<?xml version="1.0" encoding="utf-8"?>
<xmeml version="5">
  <sequence id="video">
    <name>상도지기_240617_자막</name>
    <duration>2249.7599999999998</duration>
    <rate>
      <timebase>24</timebase>
      <ntsc>false</ntsc>
    </rate>
    <media>
      <video>
        <format>
          <samplecharacteristics>
            <width>1280</width>
            <height>720</height>
            <anamorphic>false</anamorphic>
            <pixelaspectratio>square</pixelaspectratio>
            <fielddominance>none</fielddominance>
          </samplecharacteristics>
        </format>
        <track>
          <clipitem>
            <name>상도지기_240617_자막.mp4</name>
            <enabled>true</enabled>
            <rate>
              <timebase>24</timebase>
              <ntsc>false</ntsc>
            </rate>
            <in>0</in>
            <out>92.64000000000001</out>
            <start>0</start>
            <end>92.64000000000001</end>
            <file id="상도지기_240617_자막.mp4">
              <name>상도지기_240617_자막.mp4</name>
              <pathurl>/Users/ihuijae/Desktop/JLFilms/상도지기님/상도지기_240617/상도지기_240617_자막.mp4</pathurl>
              <media>
                <video>
                  <samplecharacteristics>
                    <width>1280</width>
                    <height>720</height>
                    <anamorphic>true</anamorphic>
                    <pixelaspectratio>square</pixelaspectratio>
                    <fielddominance>none</fielddominance>
                  </samplecharacteristics>
                </video>
                <audio>
                  <in>0</in>
                  <out>2249.7599999999998</out>
                  <channelcount>2</channelcount>
                  <duration>2249.7599999999998</duration>
                </audio>
              </media>
            </file>
            <link>
              <mediatype>video</mediatype>
              <trackindex>1</trackindex>
              <clipindex>1</clipindex>
            </link>
            <link>
              <mediatype>audio</mediatype>
              <trackindex>1</trackindex>
              <clipindex>1</clipindex>
              <groupindex>1</groupindex>
            </link>
            <link>
              <mediatype>audio</mediatype>
              <trackindex>2</trackindex>
              <clipindex>1</clipindex>
              <groupindex>1</groupindex>
            </link>
          </clipitem>
          <clipitem>
            <name>상도지기_240617_자막.mp4</name>
            <enabled>true</enabled>
            <rate>
              <timebase>24</timebase>
              <ntsc>false</ntsc>
            </rate>
            <in>92.64</in>
            <out>160.31999999999996</out>
            <start>92.64000000000001</start>
            <end>160.32</end>
            <file id="상도지기_240617_자막.mp4">
              <name>상도지기_240617_자막.mp4</name>
              <pathurl>/Users/ihuijae/Desktop/JLFilms/상도지기님/상도지기_240617/상도지기_240617_자막.mp4</pathurl>
              <media>
                <video>
                  <samplecharacteristics>
                    <width>1280</width>
                    <height>720</height>
                    <anamorphic>true</anamorphic>
                    <pixelaspectratio>square</pixelaspectratio>
                    <fielddominance>none</fielddominance>
                  </samplecharacteristics>
                </video>
                <audio>
                  <in>0</in>
                  <out>2249.7599999999998</out>
                  <channelcount>2</channelcount>
                  <duration>2249.7599999999998</duration>
                </audio>
              </media>
            </file>
            <link>
              <mediatype>video</mediatype>
              <trackindex>1</trackindex>
              <clipindex>2</clipindex>
            </link>
            <link>
              <mediatype>audio</mediatype>
              <trackindex>1</trackindex>
              <clipindex>2</clipindex>
              <groupindex>2</groupindex>
            </link>
            <link>
              <mediatype>audio</mediatype>
              <trackindex>2</trackindex>
              <clipindex>2</clipindex>
              <groupindex>2</groupindex>
            </link>
          </clipitem>
          <clipitem>
            <name>상도지기_240617_자막.mp4</name>
            <enabled>true</enabled>
            <rate>
              <timebase>24</timebase>
              <ntsc>false</ntsc>
            </rate>
            <in>160.32</in>
            <out>215.03999999999996</out>
            <start>160.32</start>
            <end>215.03999999999996</end>
            <file id="상도지기_240617_자막.mp4">
              <name>상도지기_240617_자막.mp4</name>
              <pathurl>/Users/ihuijae/Desktop/JLFilms/상도지기님/상도지기_240617/상도지기_240617_자막.mp4</pathurl>
              <media>
                <video>
                  <samplecharacteristics>
                    <width>1280</width>
                    <height>720</height>
                    <anamorphic>true</anamorphic>
                    <pixelaspectratio>square</pixelaspectratio>
                    <fielddominance>none</fielddominance>
                  </samplecharacteristics>
                </video>
                <audio>
                  <in>0</in>
                  <out>2249.7599999999998</out>
                  <channelcount>2</channelcount>
                  <duration>2249.7599999999998</duration>
                </audio>
              </media>
            </file>
            <link>
              <mediatype>video</mediatype>
              <trackindex>1</trackindex>
              <clipindex>3</clipindex>
            </link>
            <link>
              <mediatype>audio</mediatype>
              <trackindex>1</trackindex>
              <clipindex>3</clipindex>
              <groupindex>3</groupindex>
            </link>
            <link>
              <mediatype>audio</mediatype>
              <trackindex>2</trackindex>
              <clipindex>3</clipindex>
              <groupindex>3</groupindex>
            </link>
          </clipitem>
          <clipitem>
            <name>상도지기_240617_자막.mp4</name>
            <enabled>true</enabled>
            <rate>
              <timebase>24</timebase>
              <ntsc>false</ntsc>
            </rate>
            <in>215.04000000000002</in>
            <out>293.04</out>
            <start>215.03999999999996</start>
            <end>293.03999999999996</end>
            <file id="상도지기_240617_자막.mp4">
              <name>상도지기_240617_자막.mp4</name>
              <pathurl>/Users/ihuijae/Desktop/JLFilms/상도지기님/상도지기_240617/상도지기_240617_자막.mp4</pathurl>
              <media>
                <video>
                  <samplecharacteristics>
                    <width>1280</width>
                    <height>720</height>
                    <anamorphic>true</anamorphic>
                    <pixelaspectratio>square</pixelaspectratio>
                    <fielddominance>none</fielddominance>
                  </samplecharacteristics>
                </video>
                <audio>
                  <in>0</in>
                  <out>2249.7599999999998</out>
                  <channelcount>2</channelcount>
                  <duration>2249.7599999999998</duration>
                </audio>
              </media>
            </file>
            <link>
              <mediatype>video</mediatype>
              <trackindex>1</trackindex>
              <clipindex>4</clipindex>
            </link>
            <link>
              <mediatype>audio</mediatype>
              <trackindex>1</trackindex>
              <clipindex>4</clipindex>
              <groupindex>4</groupindex>
            </link>
            <link>
              <mediatype>audio</mediatype>
              <trackindex>2</trackindex>
              <clipindex>4</clipindex>
              <groupindex>4</groupindex>
            </link>
          </clipitem>
          <clipitem>
            <name>상도지기_240617_자막.mp4</name>
            <enabled>true</enabled>
            <rate>
              <timebase>24</timebase>
              <ntsc>false</ntsc>
            </rate>
            <in>293.04</in>
            <out>360.7200000000001</out>
            <start>293.03999999999996</start>
            <end>360.72</end>
            <file id="상도지기_240617_자막.mp4">
              <name>상도지기_240617_자막.mp4</name>
              <pathurl>/Users/ihuijae/Desktop/JLFilms/상도지기님/상도지기_240617/상도지기_240617_자막.mp4</pathurl>
              <media>
                <video>
                  <samplecharacteristics>
                    <width>1280</width>
                    <height>720</height>
                    <anamorphic>true</anamorphic>
                    <pixelaspectratio>square</pixelaspectratio>
                    <fielddominance>none</fielddominance>
                  </samplecharacteristics>
                </video>
                <audio>
                  <in>0</in>
                  <out>2249.7599999999998</out>
                  <channelcount>2</channelcount>
                  <duration>2249.7599999999998</duration>
                </audio>
              </media>
            </file>
            <link>
              <mediatype>video</mediatype>
              <trackindex>1</trackindex>
              <clipindex>5</clipindex>
            </link>
            <link>
              <mediatype>audio</mediatype>
              <trackindex>1</trackindex>
              <clipindex>5</clipindex>
              <groupindex>5</groupindex>
            </link>
            <link>
              <mediatype>audio</mediatype>
              <trackindex>2</trackindex>
              <clipindex>5</clipindex>
              <groupindex>5</groupindex>
            </link>
          </clipitem>
          <clipitem>
            <name>상도지기_240617_자막.mp4</name>
            <enabled>true</enabled>
            <rate>
              <timebase>24</timebase>
              <ntsc>false</ntsc>
            </rate>
            <in>360.71999999999997</in>
            <out>443.27999999999986</out>
            <start>360.72</start>
            <end>443.28</end>
            <file id="상도지기_240617_자막.mp4">
              <name>상도지기_240617_자막.mp4</name>
              <pathurl>/Users/ihuijae/Desktop/JLFilms/상도지기님/상도지기_240617/상도지기_240617_자막.mp4</pathurl>
              <media>
                <video>
                  <samplecharacteristics>
                    <width>1280</width>
                    <height>720</height>
                    <anamorphic>true</anamorphic>
                    <pixelaspectratio>square</pixelaspectratio>
                    <fielddominance>none</fielddominance>
                  </samplecharacteristics>
                </video>
                <audio>
                  <in>0</in>
                  <out>2249.7599999999998</out>
                  <channelcount>2</channelcount>
                  <duration>2249.7599999999998</duration>
                </audio>
              </media>
            </file>
            <link>
              <mediatype>video</mediatype>
              <trackindex>1</trackindex>
              <clipindex>6</clipindex>
            </link>
            <link>
              <mediatype>audio</mediatype>
              <trackindex>1</trackindex>
              <clipindex>6</clipindex>
              <groupindex>6</groupindex>
            </link>
            <link>
              <mediatype>audio</mediatype>
              <trackindex>2</trackindex>
              <clipindex>6</clipindex>
              <groupindex>6</groupindex>
            </link>
          </clipitem>
          <clipitem>
            <name>상도지기_240617_자막.mp4</name>
            <enabled>true</enabled>
            <rate>
              <timebase>24</timebase>
              <ntsc>false</ntsc>
            </rate>
            <in>443.28</in>
            <out>532.3199999999999</out>
            <start>443.28</start>
            <end>532.3199999999999</end>
            <file id="상도지기_240617_자막.mp4">
              <name>상도지기_240617_자막.mp4</name>
              <pathurl>/Users/ihuijae/Desktop/JLFilms/상도지기님/상도지기_240617/상도지기_240617_자막.mp4</pathurl>
              <media>
                <video>
                  <samplecharacteristics>
                    <width>1280</width>
                    <height>720</height>
                    <anamorphic>true</anamorphic>
                    <pixelaspectratio>square</pixelaspectratio>
                    <fielddominance>none</fielddominance>
                  </samplecharacteristics>
                </video>
                <audio>
                  <in>0</in>
                  <out>2249.7599999999998</out>
                  <channelcount>2</channelcount>
                  <duration>2249.7599999999998</duration>
                </audio>
              </media>
            </file>
            <link>
              <mediatype>video</mediatype>
              <trackindex>1</trackindex>
              <clipindex>7</clipindex>
            </link>
            <link>
              <mediatype>audio</mediatype>
              <trackindex>1</trackindex>
              <clipindex>7</clipindex>
              <groupindex>7</groupindex>
            </link>
            <link>
              <mediatype>audio</mediatype>
              <trackindex>2</trackindex>
              <clipindex>7</clipindex>
              <groupindex>7</groupindex>
            </link>
          </clipitem>
          <clipitem>
            <name>상도지기_240617_자막.mp4</name>
            <enabled>true</enabled>
            <rate>
              <timebase>24</timebase>
              <ntsc>false</ntsc>
            </rate>
            <in>532.3199999999999</in>
            <out>591.8399999999999</out>
            <start>532.3199999999999</start>
            <end>591.8399999999999</end>
            <file id="상도지기_240617_자막.mp4">
              <name>상도지기_240617_자막.mp4</name>
              <pathurl>/Users/ihuijae/Desktop/JLFilms/상도지기님/상도지기_240617/상도지기_240617_자막.mp4</pathurl>
              <media>
                <video>
                  <samplecharacteristics>
                    <width>1280</width>
                    <height>720</height>
                    <anamorphic>true</anamorphic>
                    <pixelaspectratio>square</pixelaspectratio>
                    <fielddominance>none</fielddominance>
                  </samplecharacteristics>
                </video>
                <audio>
                  <in>0</in>
                  <out>2249.7599999999998</out>
                  <channelcount>2</channelcount>
                  <duration>2249.7599999999998</duration>
                </audio>
              </media>
            </file>
            <link>
              <mediatype>video</mediatype>
              <trackindex>1</trackindex>
              <clipindex>8</clipindex>
            </link>
            <link>
              <mediatype>audio</mediatype>
              <trackindex>1</trackindex>
              <clipindex>8</clipindex>
              <groupindex>8</groupindex>
            </link>
            <link>
              <mediatype>audio</mediatype>
              <trackindex>2</trackindex>
              <clipindex>8</clipindex>
              <groupindex>8</groupindex>
            </link>
          </clipitem>
          <clipitem>
            <name>상도지기_240617_자막.mp4</name>
            <enabled>true</enabled>
            <rate>
              <timebase>24</timebase>
              <ntsc>false</ntsc>
            </rate>
            <in>591.84</in>
            <out>634.3199999999999</out>
            <start>591.8399999999999</start>
            <end>634.3199999999999</end>
            <file id="상도지기_240617_자막.mp4">
              <name>상도지기_240617_자막.mp4</name>
              <pathurl>/Users/ihuijae/Desktop/JLFilms/상도지기님/상도지기_240617/상도지기_240617_자막.mp4</pathurl>
              <media>
                <video>
                  <samplecharacteristics>
                    <width>1280</width>
                    <height>720</height>
                    <anamorphic>true</anamorphic>
                    <pixelaspectratio>square</pixelaspectratio>
                    <fielddominance>none</fielddominance>
                  </samplecharacteristics>
                </video>
                <audio>
                  <in>0</in>
                  <out>2249.7599999999998</out>
                  <channelcount>2</channelcount>
                  <duration>2249.7599999999998</duration>
                </audio>
              </media>
            </file>
            <link>
              <mediatype>video</mediatype>
              <trackindex>1</trackindex>
              <clipindex>9</clipindex>
            </link>
            <link>
              <mediatype>audio</mediatype>
              <trackindex>1</trackindex>
              <clipindex>9</clipindex>
              <groupindex>9</groupindex>
            </link>
            <link>
              <mediatype>audio</mediatype>
              <trackindex>2</trackindex>
              <clipindex>9</clipindex>
              <groupindex>9</groupindex>
            </link>
          </clipitem>
          <clipitem>
            <name>상도지기_240617_자막.mp4</name>
            <enabled>true</enabled>
            <rate>
              <timebase>24</timebase>
              <ntsc>false</ntsc>
            </rate>
            <in>634.3199999999999</in>
            <out>711.1199999999999</out>
            <start>634.3199999999999</start>
            <end>711.1199999999998</end>
            <file id="상도지기_240617_자막.mp4">
              <name>상도지기_240617_자막.mp4</name>
              <pathurl>/Users/ihuijae/Desktop/JLFilms/상도지기님/상도지기_240617/상도지기_240617_자막.mp4</pathurl>
              <media>
                <video>
                  <samplecharacteristics>
                    <width>1280</width>
                    <height>720</height>
                    <anamorphic>true</anamorphic>
                    <pixelaspectratio>square</pixelaspectratio>
                    <fielddominance>none</fielddominance>
                  </samplecharacteristics>
                </video>
                <audio>
                  <in>0</in>
                  <out>2249.7599999999998</out>
                  <channelcount>2</channelcount>
                  <duration>2249.7599999999998</duration>
                </audio>
              </media>
            </file>
            <link>
              <mediatype>video</mediatype>
              <trackindex>1</trackindex>
              <clipindex>10</clipindex>
            </link>
            <link>
              <mediatype>audio</mediatype>
              <trackindex>1</trackindex>
              <clipindex>10</clipindex>
              <groupindex>10</groupindex>
            </link>
            <link>
              <mediatype>audio</mediatype>
              <trackindex>2</trackindex>
              <clipindex>10</clipindex>
              <groupindex>10</groupindex>
            </link>
          </clipitem>
          <clipitem>
            <name>상도지기_240617_자막.mp4</name>
            <enabled>true</enabled>
            <rate>
              <timebase>24</timebase>
              <ntsc>false</ntsc>
            </rate>
            <in>711.12</in>
            <out>797.7599999999999</out>
            <start>711.1199999999998</start>
            <end>797.7599999999998</end>
            <file id="상도지기_240617_자막.mp4">
              <name>상도지기_240617_자막.mp4</name>
              <pathurl>/Users/ihuijae/Desktop/JLFilms/상도지기님/상도지기_240617/상도지기_240617_자막.mp4</pathurl>
              <media>
                <video>
                  <samplecharacteristics>
                    <width>1280</width>
                    <height>720</height>
                    <anamorphic>true</anamorphic>
                    <pixelaspectratio>square</pixelaspectratio>
                    <fielddominance>none</fielddominance>
                  </samplecharacteristics>
                </video>
                <audio>
                  <in>0</in>
                  <out>2249.7599999999998</out>
                  <channelcount>2</channelcount>
                  <duration>2249.7599999999998</duration>
                </audio>
              </media>
            </file>
            <link>
              <mediatype>video</mediatype>
              <trackindex>1</trackindex>
              <clipindex>11</clipindex>
            </link>
            <link>
              <mediatype>audio</mediatype>
              <trackindex>1</trackindex>
              <clipindex>11</clipindex>
              <groupindex>11</groupindex>
            </link>
            <link>
              <mediatype>audio</mediatype>
              <trackindex>2</trackindex>
              <clipindex>11</clipindex>
              <groupindex>11</groupindex>
            </link>
          </clipitem>
          <clipitem>
            <name>상도지기_240617_자막.mp4</name>
            <enabled>true</enabled>
            <rate>
              <timebase>24</timebase>
              <ntsc>false</ntsc>
            </rate>
            <in>797.76</in>
            <out>851.76</out>
            <start>797.7599999999998</start>
            <end>851.7599999999998</end>
            <file id="상도지기_240617_자막.mp4">
              <name>상도지기_240617_자막.mp4</name>
              <pathurl>/Users/ihuijae/Desktop/JLFilms/상도지기님/상도지기_240617/상도지기_240617_자막.mp4</pathurl>
              <media>
                <video>
                  <samplecharacteristics>
                    <width>1280</width>
                    <height>720</height>
                    <anamorphic>true</anamorphic>
                    <pixelaspectratio>square</pixelaspectratio>
                    <fielddominance>none</fielddominance>
                  </samplecharacteristics>
                </video>
                <audio>
                  <in>0</in>
                  <out>2249.7599999999998</out>
                  <channelcount>2</channelcount>
                  <duration>2249.7599999999998</duration>
                </audio>
              </media>
            </file>
            <link>
              <mediatype>video</mediatype>
              <trackindex>1</trackindex>
              <clipindex>12</clipindex>
            </link>
            <link>
              <mediatype>audio</mediatype>
              <trackindex>1</trackindex>
              <clipindex>12</clipindex>
              <groupindex>12</groupindex>
            </link>
            <link>
              <mediatype>audio</mediatype>
              <trackindex>2</trackindex>
              <clipindex>12</clipindex>
              <groupindex>12</groupindex>
            </link>
          </clipitem>
          <clipitem>
            <name>상도지기_240617_자막.mp4</name>
            <enabled>true</enabled>
            <rate>
              <timebase>24</timebase>
              <ntsc>false</ntsc>
            </rate>
            <in>851.76</in>
            <out>937.6800000000001</out>
            <start>851.7599999999998</start>
            <end>937.6799999999996</end>
            <file id="상도지기_240617_자막.mp4">
              <name>상도지기_240617_자막.mp4</name>
              <pathurl>/Users/ihuijae/Desktop/JLFilms/상도지기님/상도지기_240617/상도지기_240617_자막.mp4</pathurl>
              <media>
                <video>
                  <samplecharacteristics>
                    <width>1280</width>
                    <height>720</height>
                    <anamorphic>true</anamorphic>
                    <pixelaspectratio>square</pixelaspectratio>
                    <fielddominance>none</fielddominance>
                  </samplecharacteristics>
                </video>
                <audio>
                  <in>0</in>
                  <out>2249.7599999999998</out>
                  <channelcount>2</channelcount>
                  <duration>2249.7599999999998</duration>
                </audio>
              </media>
            </file>
            <link>
              <mediatype>video</mediatype>
              <trackindex>1</trackindex>
              <clipindex>13</clipindex>
            </link>
            <link>
              <mediatype>audio</mediatype>
              <trackindex>1</trackindex>
              <clipindex>13</clipindex>
              <groupindex>13</groupindex>
            </link>
            <link>
              <mediatype>audio</mediatype>
              <trackindex>2</trackindex>
              <clipindex>13</clipindex>
              <groupindex>13</groupindex>
            </link>
          </clipitem>
          <clipitem>
            <name>상도지기_240617_자막.mp4</name>
            <enabled>true</enabled>
            <rate>
              <timebase>24</timebase>
              <ntsc>false</ntsc>
            </rate>
            <in>937.6800000000001</in>
            <out>1015.6799999999998</out>
            <start>937.6799999999996</start>
            <end>1015.6799999999995</end>
            <file id="상도지기_240617_자막.mp4">
              <name>상도지기_240617_자막.mp4</name>
              <pathurl>/Users/ihuijae/Desktop/JLFilms/상도지기님/상도지기_240617/상도지기_240617_자막.mp4</pathurl>
              <media>
                <video>
                  <samplecharacteristics>
                    <width>1280</width>
                    <height>720</height>
                    <anamorphic>true</anamorphic>
                    <pixelaspectratio>square</pixelaspectratio>
                    <fielddominance>none</fielddominance>
                  </samplecharacteristics>
                </video>
                <audio>
                  <in>0</in>
                  <out>2249.7599999999998</out>
                  <channelcount>2</channelcount>
                  <duration>2249.7599999999998</duration>
                </audio>
              </media>
            </file>
            <link>
              <mediatype>video</mediatype>
              <trackindex>1</trackindex>
              <clipindex>14</clipindex>
            </link>
            <link>
              <mediatype>audio</mediatype>
              <trackindex>1</trackindex>
              <clipindex>14</clipindex>
              <groupindex>14</groupindex>
            </link>
            <link>
              <mediatype>audio</mediatype>
              <trackindex>2</trackindex>
              <clipindex>14</clipindex>
              <groupindex>14</groupindex>
            </link>
          </clipitem>
          <clipitem>
            <name>상도지기_240617_자막.mp4</name>
            <enabled>true</enabled>
            <rate>
              <timebase>24</timebase>
              <ntsc>false</ntsc>
            </rate>
            <in>1015.6800000000001</in>
            <out>1099.1999999999998</out>
            <start>1015.6799999999995</start>
            <end>1099.1999999999994</end>
            <file id="상도지기_240617_자막.mp4">
              <name>상도지기_240617_자막.mp4</name>
              <pathurl>/Users/ihuijae/Desktop/JLFilms/상도지기님/상도지기_240617/상도지기_240617_자막.mp4</pathurl>
              <media>
                <video>
                  <samplecharacteristics>
                    <width>1280</width>
                    <height>720</height>
                    <anamorphic>true</anamorphic>
                    <pixelaspectratio>square</pixelaspectratio>
                    <fielddominance>none</fielddominance>
                  </samplecharacteristics>
                </video>
                <audio>
                  <in>0</in>
                  <out>2249.7599999999998</out>
                  <channelcount>2</channelcount>
                  <duration>2249.7599999999998</duration>
                </audio>
              </media>
            </file>
            <link>
              <mediatype>video</mediatype>
              <trackindex>1</trackindex>
              <clipindex>15</clipindex>
            </link>
            <link>
              <mediatype>audio</mediatype>
              <trackindex>1</trackindex>
              <clipindex>15</clipindex>
              <groupindex>15</groupindex>
            </link>
            <link>
              <mediatype>audio</mediatype>
              <trackindex>2</trackindex>
              <clipindex>15</clipindex>
              <groupindex>15</groupindex>
            </link>
          </clipitem>
          <clipitem>
            <name>상도지기_240617_자막.mp4</name>
            <enabled>true</enabled>
            <rate>
              <timebase>24</timebase>
              <ntsc>false</ntsc>
            </rate>
            <in>1099.1999999999998</in>
            <out>1191.12</out>
            <start>1099.1999999999994</start>
            <end>1191.1199999999994</end>
            <file id="상도지기_240617_자막.mp4">
              <name>상도지기_240617_자막.mp4</name>
              <pathurl>/Users/ihuijae/Desktop/JLFilms/상도지기님/상도지기_240617/상도지기_240617_자막.mp4</pathurl>
              <media>
                <video>
                  <samplecharacteristics>
                    <width>1280</width>
                    <height>720</height>
                    <anamorphic>true</anamorphic>
                    <pixelaspectratio>square</pixelaspectratio>
                    <fielddominance>none</fielddominance>
                  </samplecharacteristics>
                </video>
                <audio>
                  <in>0</in>
                  <out>2249.7599999999998</out>
                  <channelcount>2</channelcount>
                  <duration>2249.7599999999998</duration>
                </audio>
              </media>
            </file>
            <link>
              <mediatype>video</mediatype>
              <trackindex>1</trackindex>
              <clipindex>16</clipindex>
            </link>
            <link>
              <mediatype>audio</mediatype>
              <trackindex>1</trackindex>
              <clipindex>16</clipindex>
              <groupindex>16</groupindex>
            </link>
            <link>
              <mediatype>audio</mediatype>
              <trackindex>2</trackindex>
              <clipindex>16</clipindex>
              <groupindex>16</groupindex>
            </link>
          </clipitem>
          <clipitem>
            <name>상도지기_240617_자막.mp4</name>
            <enabled>true</enabled>
            <rate>
              <timebase>24</timebase>
              <ntsc>false</ntsc>
            </rate>
            <in>1191.1200000000001</in>
            <out>1251.1200000000001</out>
            <start>1191.1199999999994</start>
            <end>1251.1199999999994</end>
            <file id="상도지기_240617_자막.mp4">
              <name>상도지기_240617_자막.mp4</name>
              <pathurl>/Users/ihuijae/Desktop/JLFilms/상도지기님/상도지기_240617/상도지기_240617_자막.mp4</pathurl>
              <media>
                <video>
                  <samplecharacteristics>
                    <width>1280</width>
                    <height>720</height>
                    <anamorphic>true</anamorphic>
                    <pixelaspectratio>square</pixelaspectratio>
                    <fielddominance>none</fielddominance>
                  </samplecharacteristics>
                </video>
                <audio>
                  <in>0</in>
                  <out>2249.7599999999998</out>
                  <channelcount>2</channelcount>
                  <duration>2249.7599999999998</duration>
                </audio>
              </media>
            </file>
            <link>
              <mediatype>video</mediatype>
              <trackindex>1</trackindex>
              <clipindex>17</clipindex>
            </link>
            <link>
              <mediatype>audio</mediatype>
              <trackindex>1</trackindex>
              <clipindex>17</clipindex>
              <groupindex>17</groupindex>
            </link>
            <link>
              <mediatype>audio</mediatype>
              <trackindex>2</trackindex>
              <clipindex>17</clipindex>
              <groupindex>17</groupindex>
            </link>
          </clipitem>
          <clipitem>
            <name>상도지기_240617_자막.mp4</name>
            <enabled>true</enabled>
            <rate>
              <timebase>24</timebase>
              <ntsc>false</ntsc>
            </rate>
            <in>1251.1200000000001</in>
            <out>1306.32</out>
            <start>1251.1199999999994</start>
            <end>1306.3199999999993</end>
            <file id="상도지기_240617_자막.mp4">
              <name>상도지기_240617_자막.mp4</name>
              <pathurl>/Users/ihuijae/Desktop/JLFilms/상도지기님/상도지기_240617/상도지기_240617_자막.mp4</pathurl>
              <media>
                <video>
                  <samplecharacteristics>
                    <width>1280</width>
                    <height>720</height>
                    <anamorphic>true</anamorphic>
                    <pixelaspectratio>square</pixelaspectratio>
                    <fielddominance>none</fielddominance>
                  </samplecharacteristics>
                </video>
                <audio>
                  <in>0</in>
                  <out>2249.7599999999998</out>
                  <channelcount>2</channelcount>
                  <duration>2249.7599999999998</duration>
                </audio>
              </media>
            </file>
            <link>
              <mediatype>video</mediatype>
              <trackindex>1</trackindex>
              <clipindex>18</clipindex>
            </link>
            <link>
              <mediatype>audio</mediatype>
              <trackindex>1</trackindex>
              <clipindex>18</clipindex>
              <groupindex>18</groupindex>
            </link>
            <link>
              <mediatype>audio</mediatype>
              <trackindex>2</trackindex>
              <clipindex>18</clipindex>
              <groupindex>18</groupindex>
            </link>
          </clipitem>
          <clipitem>
            <name>상도지기_240617_자막.mp4</name>
            <enabled>true</enabled>
            <rate>
              <timebase>24</timebase>
              <ntsc>false</ntsc>
            </rate>
            <in>1306.32</in>
            <out>1366.32</out>
            <start>1306.3199999999993</start>
            <end>1366.3199999999993</end>
            <file id="상도지기_240617_자막.mp4">
              <name>상도지기_240617_자막.mp4</name>
              <pathurl>/Users/ihuijae/Desktop/JLFilms/상도지기님/상도지기_240617/상도지기_240617_자막.mp4</pathurl>
              <media>
                <video>
                  <samplecharacteristics>
                    <width>1280</width>
                    <height>720</height>
                    <anamorphic>true</anamorphic>
                    <pixelaspectratio>square</pixelaspectratio>
                    <fielddominance>none</fielddominance>
                  </samplecharacteristics>
                </video>
                <audio>
                  <in>0</in>
                  <out>2249.7599999999998</out>
                  <channelcount>2</channelcount>
                  <duration>2249.7599999999998</duration>
                </audio>
              </media>
            </file>
            <link>
              <mediatype>video</mediatype>
              <trackindex>1</trackindex>
              <clipindex>19</clipindex>
            </link>
            <link>
              <mediatype>audio</mediatype>
              <trackindex>1</trackindex>
              <clipindex>19</clipindex>
              <groupindex>19</groupindex>
            </link>
            <link>
              <mediatype>audio</mediatype>
              <trackindex>2</trackindex>
              <clipindex>19</clipindex>
              <groupindex>19</groupindex>
            </link>
          </clipitem>
          <clipitem>
            <name>상도지기_240617_자막.mp4</name>
            <enabled>true</enabled>
            <rate>
              <timebase>24</timebase>
              <ntsc>false</ntsc>
            </rate>
            <in>1366.32</in>
            <out>1441.9199999999998</out>
            <start>1366.3199999999993</start>
            <end>1441.9199999999992</end>
            <file id="상도지기_240617_자막.mp4">
              <name>상도지기_240617_자막.mp4</name>
              <pathurl>/Users/ihuijae/Desktop/JLFilms/상도지기님/상도지기_240617/상도지기_240617_자막.mp4</pathurl>
              <media>
                <video>
                  <samplecharacteristics>
                    <width>1280</width>
                    <height>720</height>
                    <anamorphic>true</anamorphic>
                    <pixelaspectratio>square</pixelaspectratio>
                    <fielddominance>none</fielddominance>
                  </samplecharacteristics>
                </video>
                <audio>
                  <in>0</in>
                  <out>2249.7599999999998</out>
                  <channelcount>2</channelcount>
                  <duration>2249.7599999999998</duration>
                </audio>
              </media>
            </file>
            <link>
              <mediatype>video</mediatype>
              <trackindex>1</trackindex>
              <clipindex>20</clipindex>
            </link>
            <link>
              <mediatype>audio</mediatype>
              <trackindex>1</trackindex>
              <clipindex>20</clipindex>
              <groupindex>20</groupindex>
            </link>
            <link>
              <mediatype>audio</mediatype>
              <trackindex>2</trackindex>
              <clipindex>20</clipindex>
              <groupindex>20</groupindex>
            </link>
          </clipitem>
          <clipitem>
            <name>상도지기_240617_자막.mp4</name>
            <enabled>true</enabled>
            <rate>
              <timebase>24</timebase>
              <ntsc>false</ntsc>
            </rate>
            <in>1441.92</in>
            <out>1532.3999999999999</out>
            <start>1441.9199999999992</start>
            <end>1532.399999999999</end>
            <file id="상도지기_240617_자막.mp4">
              <name>상도지기_240617_자막.mp4</name>
              <pathurl>/Users/ihuijae/Desktop/JLFilms/상도지기님/상도지기_240617/상도지기_240617_자막.mp4</pathurl>
              <media>
                <video>
                  <samplecharacteristics>
                    <width>1280</width>
                    <height>720</height>
                    <anamorphic>true</anamorphic>
                    <pixelaspectratio>square</pixelaspectratio>
                    <fielddominance>none</fielddominance>
                  </samplecharacteristics>
                </video>
                <audio>
                  <in>0</in>
                  <out>2249.7599999999998</out>
                  <channelcount>2</channelcount>
                  <duration>2249.7599999999998</duration>
                </audio>
              </media>
            </file>
            <link>
              <mediatype>video</mediatype>
              <trackindex>1</trackindex>
              <clipindex>21</clipindex>
            </link>
            <link>
              <mediatype>audio</mediatype>
              <trackindex>1</trackindex>
              <clipindex>21</clipindex>
              <groupindex>21</groupindex>
            </link>
            <link>
              <mediatype>audio</mediatype>
              <trackindex>2</trackindex>
              <clipindex>21</clipindex>
              <groupindex>21</groupindex>
            </link>
          </clipitem>
          <clipitem>
            <name>상도지기_240617_자막.mp4</name>
            <enabled>true</enabled>
            <rate>
              <timebase>24</timebase>
              <ntsc>false</ntsc>
            </rate>
            <in>1532.4</in>
            <out>1591.6800000000003</out>
            <start>1532.399999999999</start>
            <end>1591.6799999999992</end>
            <file id="상도지기_240617_자막.mp4">
              <name>상도지기_240617_자막.mp4</name>
              <pathurl>/Users/ihuijae/Desktop/JLFilms/상도지기님/상도지기_240617/상도지기_240617_자막.mp4</pathurl>
              <media>
                <video>
                  <samplecharacteristics>
                    <width>1280</width>
                    <height>720</height>
                    <anamorphic>true</anamorphic>
                    <pixelaspectratio>square</pixelaspectratio>
                    <fielddominance>none</fielddominance>
                  </samplecharacteristics>
                </video>
                <audio>
                  <in>0</in>
                  <out>2249.7599999999998</out>
                  <channelcount>2</channelcount>
                  <duration>2249.7599999999998</duration>
                </audio>
              </media>
            </file>
            <link>
              <mediatype>video</mediatype>
              <trackindex>1</trackindex>
              <clipindex>22</clipindex>
            </link>
            <link>
              <mediatype>audio</mediatype>
              <trackindex>1</trackindex>
              <clipindex>22</clipindex>
              <groupindex>22</groupindex>
            </link>
            <link>
              <mediatype>audio</mediatype>
              <trackindex>2</trackindex>
              <clipindex>22</clipindex>
              <groupindex>22</groupindex>
            </link>
          </clipitem>
          <clipitem>
            <name>상도지기_240617_자막.mp4</name>
            <enabled>true</enabled>
            <rate>
              <timebase>24</timebase>
              <ntsc>false</ntsc>
            </rate>
            <in>1591.6799999999998</in>
            <out>1666.7999999999993</out>
            <start>1591.6799999999992</start>
            <end>1666.7999999999988</end>
            <file id="상도지기_240617_자막.mp4">
              <name>상도지기_240617_자막.mp4</name>
              <pathurl>/Users/ihuijae/Desktop/JLFilms/상도지기님/상도지기_240617/상도지기_240617_자막.mp4</pathurl>
              <media>
                <video>
                  <samplecharacteristics>
                    <width>1280</width>
                    <height>720</height>
                    <anamorphic>true</anamorphic>
                    <pixelaspectratio>square</pixelaspectratio>
                    <fielddominance>none</fielddominance>
                  </samplecharacteristics>
                </video>
                <audio>
                  <in>0</in>
                  <out>2249.7599999999998</out>
                  <channelcount>2</channelcount>
                  <duration>2249.7599999999998</duration>
                </audio>
              </media>
            </file>
            <link>
              <mediatype>video</mediatype>
              <trackindex>1</trackindex>
              <clipindex>23</clipindex>
            </link>
            <link>
              <mediatype>audio</mediatype>
              <trackindex>1</trackindex>
              <clipindex>23</clipindex>
              <groupindex>23</groupindex>
            </link>
            <link>
              <mediatype>audio</mediatype>
              <trackindex>2</trackindex>
              <clipindex>23</clipindex>
              <groupindex>23</groupindex>
            </link>
          </clipitem>
          <clipitem>
            <name>상도지기_240617_자막.mp4</name>
            <enabled>true</enabled>
            <rate>
              <timebase>24</timebase>
              <ntsc>false</ntsc>
            </rate>
            <in>1666.8000000000002</in>
            <out>1769.0400000000002</out>
            <start>1666.7999999999988</start>
            <end>1769.0399999999988</end>
            <file id="상도지기_240617_자막.mp4">
              <name>상도지기_240617_자막.mp4</name>
              <pathurl>/Users/ihuijae/Desktop/JLFilms/상도지기님/상도지기_240617/상도지기_240617_자막.mp4</pathurl>
              <media>
                <video>
                  <samplecharacteristics>
                    <width>1280</width>
                    <height>720</height>
                    <anamorphic>true</anamorphic>
                    <pixelaspectratio>square</pixelaspectratio>
                    <fielddominance>none</fielddominance>
                  </samplecharacteristics>
                </video>
                <audio>
                  <in>0</in>
                  <out>2249.7599999999998</out>
                  <channelcount>2</channelcount>
                  <duration>2249.7599999999998</duration>
                </audio>
              </media>
            </file>
            <link>
              <mediatype>video</mediatype>
              <trackindex>1</trackindex>
              <clipindex>24</clipindex>
            </link>
            <link>
              <mediatype>audio</mediatype>
              <trackindex>1</trackindex>
              <clipindex>24</clipindex>
              <groupindex>24</groupindex>
            </link>
            <link>
              <mediatype>audio</mediatype>
              <trackindex>2</trackindex>
              <clipindex>24</clipindex>
              <groupindex>24</groupindex>
            </link>
          </clipitem>
          <clipitem>
            <name>상도지기_240617_자막.mp4</name>
            <enabled>true</enabled>
            <rate>
              <timebase>24</timebase>
              <ntsc>false</ntsc>
            </rate>
            <in>1769.04</in>
            <out>1852.0799999999997</out>
            <start>1769.0399999999988</start>
            <end>1852.0799999999986</end>
            <file id="상도지기_240617_자막.mp4">
              <name>상도지기_240617_자막.mp4</name>
              <pathurl>/Users/ihuijae/Desktop/JLFilms/상도지기님/상도지기_240617/상도지기_240617_자막.mp4</pathurl>
              <media>
                <video>
                  <samplecharacteristics>
                    <width>1280</width>
                    <height>720</height>
                    <anamorphic>true</anamorphic>
                    <pixelaspectratio>square</pixelaspectratio>
                    <fielddominance>none</fielddominance>
                  </samplecharacteristics>
                </video>
                <audio>
                  <in>0</in>
                  <out>2249.7599999999998</out>
                  <channelcount>2</channelcount>
                  <duration>2249.7599999999998</duration>
                </audio>
              </media>
            </file>
            <link>
              <mediatype>video</mediatype>
              <trackindex>1</trackindex>
              <clipindex>25</clipindex>
            </link>
            <link>
              <mediatype>audio</mediatype>
              <trackindex>1</trackindex>
              <clipindex>25</clipindex>
              <groupindex>25</groupindex>
            </link>
            <link>
              <mediatype>audio</mediatype>
              <trackindex>2</trackindex>
              <clipindex>25</clipindex>
              <groupindex>25</groupindex>
            </link>
          </clipitem>
          <clipitem>
            <name>상도지기_240617_자막.mp4</name>
            <enabled>true</enabled>
            <rate>
              <timebase>24</timebase>
              <ntsc>false</ntsc>
            </rate>
            <in>1852.08</in>
            <out>1891.44</out>
            <start>1852.0799999999986</start>
            <end>1891.4399999999987</end>
            <file id="상도지기_240617_자막.mp4">
              <name>상도지기_240617_자막.mp4</name>
              <pathurl>/Users/ihuijae/Desktop/JLFilms/상도지기님/상도지기_240617/상도지기_240617_자막.mp4</pathurl>
              <media>
                <video>
                  <samplecharacteristics>
                    <width>1280</width>
                    <height>720</height>
                    <anamorphic>true</anamorphic>
                    <pixelaspectratio>square</pixelaspectratio>
                    <fielddominance>none</fielddominance>
                  </samplecharacteristics>
                </video>
                <audio>
                  <in>0</in>
                  <out>2249.7599999999998</out>
                  <channelcount>2</channelcount>
                  <duration>2249.7599999999998</duration>
                </audio>
              </media>
            </file>
            <link>
              <mediatype>video</mediatype>
              <trackindex>1</trackindex>
              <clipindex>26</clipindex>
            </link>
            <link>
              <mediatype>audio</mediatype>
              <trackindex>1</trackindex>
              <clipindex>26</clipindex>
              <groupindex>26</groupindex>
            </link>
            <link>
              <mediatype>audio</mediatype>
              <trackindex>2</trackindex>
              <clipindex>26</clipindex>
              <groupindex>26</groupindex>
            </link>
          </clipitem>
          <clipitem>
            <name>상도지기_240617_자막.mp4</name>
            <enabled>true</enabled>
            <rate>
              <timebase>24</timebase>
              <ntsc>false</ntsc>
            </rate>
            <in>1891.44</in>
            <out>1952.4</out>
            <start>1891.4399999999987</start>
            <end>1952.3999999999987</end>
            <file id="상도지기_240617_자막.mp4">
              <name>상도지기_240617_자막.mp4</name>
              <pathurl>/Users/ihuijae/Desktop/JLFilms/상도지기님/상도지기_240617/상도지기_240617_자막.mp4</pathurl>
              <media>
                <video>
                  <samplecharacteristics>
                    <width>1280</width>
                    <height>720</height>
                    <anamorphic>true</anamorphic>
                    <pixelaspectratio>square</pixelaspectratio>
                    <fielddominance>none</fielddominance>
                  </samplecharacteristics>
                </video>
                <audio>
                  <in>0</in>
                  <out>2249.7599999999998</out>
                  <channelcount>2</channelcount>
                  <duration>2249.7599999999998</duration>
                </audio>
              </media>
            </file>
            <link>
              <mediatype>video</mediatype>
              <trackindex>1</trackindex>
              <clipindex>27</clipindex>
            </link>
            <link>
              <mediatype>audio</mediatype>
              <trackindex>1</trackindex>
              <clipindex>27</clipindex>
              <groupindex>27</groupindex>
            </link>
            <link>
              <mediatype>audio</mediatype>
              <trackindex>2</trackindex>
              <clipindex>27</clipindex>
              <groupindex>27</groupindex>
            </link>
          </clipitem>
          <clipitem>
            <name>상도지기_240617_자막.mp4</name>
            <enabled>true</enabled>
            <rate>
              <timebase>24</timebase>
              <ntsc>false</ntsc>
            </rate>
            <in>1952.3999999999999</in>
            <out>2065.2</out>
            <start>1952.3999999999987</start>
            <end>2065.1999999999985</end>
            <file id="상도지기_240617_자막.mp4">
              <name>상도지기_240617_자막.mp4</name>
              <pathurl>/Users/ihuijae/Desktop/JLFilms/상도지기님/상도지기_240617/상도지기_240617_자막.mp4</pathurl>
              <media>
                <video>
                  <samplecharacteristics>
                    <width>1280</width>
                    <height>720</height>
                    <anamorphic>true</anamorphic>
                    <pixelaspectratio>square</pixelaspectratio>
                    <fielddominance>none</fielddominance>
                  </samplecharacteristics>
                </video>
                <audio>
                  <in>0</in>
                  <out>2249.7599999999998</out>
                  <channelcount>2</channelcount>
                  <duration>2249.7599999999998</duration>
                </audio>
              </media>
            </file>
            <link>
              <mediatype>video</mediatype>
              <trackindex>1</trackindex>
              <clipindex>28</clipindex>
            </link>
            <link>
              <mediatype>audio</mediatype>
              <trackindex>1</trackindex>
              <clipindex>28</clipindex>
              <groupindex>28</groupindex>
            </link>
            <link>
              <mediatype>audio</mediatype>
              <trackindex>2</trackindex>
              <clipindex>28</clipindex>
              <groupindex>28</groupindex>
            </link>
          </clipitem>
          <clipitem>
            <name>상도지기_240617_자막.mp4</name>
            <enabled>true</enabled>
            <rate>
              <timebase>24</timebase>
              <ntsc>false</ntsc>
            </rate>
            <in>2065.2</in>
            <out>2128.08</out>
            <start>2065.1999999999985</start>
            <end>2128.079999999998</end>
            <file id="상도지기_240617_자막.mp4">
              <name>상도지기_240617_자막.mp4</name>
              <pathurl>/Users/ihuijae/Desktop/JLFilms/상도지기님/상도지기_240617/상도지기_240617_자막.mp4</pathurl>
              <media>
                <video>
                  <samplecharacteristics>
                    <width>1280</width>
                    <height>720</height>
                    <anamorphic>true</anamorphic>
                    <pixelaspectratio>square</pixelaspectratio>
                    <fielddominance>none</fielddominance>
                  </samplecharacteristics>
                </video>
                <audio>
                  <in>0</in>
                  <out>2249.7599999999998</out>
                  <channelcount>2</channelcount>
                  <duration>2249.7599999999998</duration>
                </audio>
              </media>
            </file>
            <link>
              <mediatype>video</mediatype>
              <trackindex>1</trackindex>
              <clipindex>29</clipindex>
            </link>
            <link>
              <mediatype>audio</mediatype>
              <trackindex>1</trackindex>
              <clipindex>29</clipindex>
              <groupindex>29</groupindex>
            </link>
            <link>
              <mediatype>audio</mediatype>
              <trackindex>2</trackindex>
              <clipindex>29</clipindex>
              <groupindex>29</groupindex>
            </link>
          </clipitem>
          <clipitem>
            <name>상도지기_240617_자막.mp4</name>
            <enabled>true</enabled>
            <rate>
              <timebase>24</timebase>
              <ntsc>false</ntsc>
            </rate>
            <in>2128.08</in>
            <out>2249.76</out>
            <start>2128.079999999998</start>
            <end>2249.7599999999984</end>
            <file id="상도지기_240617_자막.mp4">
              <name>상도지기_240617_자막.mp4</name>
              <pathurl>/Users/ihuijae/Desktop/JLFilms/상도지기님/상도지기_240617/상도지기_240617_자막.mp4</pathurl>
              <media>
                <video>
                  <samplecharacteristics>
                    <width>1280</width>
                    <height>720</height>
                    <anamorphic>true</anamorphic>
                    <pixelaspectratio>square</pixelaspectratio>
                    <fielddominance>none</fielddominance>
                  </samplecharacteristics>
                </video>
                <audio>
                  <in>0</in>
                  <out>2249.7599999999998</out>
                  <channelcount>2</channelcount>
                  <duration>2249.7599999999998</duration>
                </audio>
              </media>
            </file>
            <link>
              <mediatype>video</mediatype>
              <trackindex>1</trackindex>
              <clipindex>30</clipindex>
            </link>
            <link>
              <mediatype>audio</mediatype>
              <trackindex>1</trackindex>
              <clipindex>30</clipindex>
              <groupindex>30</groupindex>
            </link>
            <link>
              <mediatype>audio</mediatype>
              <trackindex>2</trackindex>
              <clipindex>30</clipindex>
              <groupindex>30</groupindex>
            </link>
          </clipitem>
        </track>
        <track>
          <generatoritem id="Outline Text1">
            <name>안녕하세요 아프니까 PC방 사장이다의 상도지기입니다</name>
            <duration>2249.7599999999998</duration>
            <rate>
              <timebase>24</timebase>
              <ntsc>false</ntsc>
            </rate>
            <start>0</start>
            <end>92.64000000000001</end>
            <in>0</in>
            <out>92.64000000000001</out>
            <enabled>true</enabled>
            <anamorphic>false</anamorphic>
            <alphatype>black</alphatype>
            <masterclipid>Outline Text1</masterclipid>
            <effect>
              <name>Outline Text</name>
              <effectid>Outline Text</effectid>
              <effectcategory>Text</effectcategory>
              <effecttype>generator</effecttype>
              <mediatype>video</mediatype>
              <parameter>
                <parameterid>part1</parameterid>
                <name>Text Settings</name>
                <value/>
              </parameter>
              <parameter>
                <parameterid>str</parameterid>
                <name>Text</name>
                <value>안녕하세요 아프니까 PC방 사장이다의 상도지기입니다</value>
              </parameter>
              <parameter>
                <parameterid>font</parameterid>
                <name>Font</name>
                <value>AppleSDGothicNeo-Regular</value>
              </parameter>
              <parameter>
                <parameterid>style</parameterid>
                <name>Style</name>
                <valuemin>1</valuemin>
                <valuemax>1</valuemax>
                <valuelist>
                  <valueentry>
                    <name>Regular</name>
                    <value>1</value>
                  </valueentry>
                </valuelist>
                <value>1</value>
              </parameter>
              <parameter>
                <parameterid>align</parameterid>
                <name>Alignment</name>
                <valuemin>1</valuemin>
                <valuemax>3</valuemax>
                <valuelist>
                  <valueentry>
                    <name>Left</name>
                    <value>1</value>
                  </valueentry>
                  <valueentry>
                    <name>Center</name>
                    <value>2</value>
                  </valueentry>
                  <valueentry>
                    <name>Right</name>
                    <value>3</value>
                  </valueentry>
                </valuelist>
                <value>2</value>
              </parameter>
              <parameter>
                <parameterid>size</parameterid>
                <name>Size</name>
                <valuemin>0</valuemin>
                <valuemax>200</valuemax>
                <value>24</value>
              </parameter>
              <parameter>
                <parameterid>track</parameterid>
                <name>Tracking</name>
                <valuemin>0</valuemin>
                <valuemax>100</valuemax>
                <value>1</value>
              </parameter>
              <parameter>
                <parameterid>lead</parameterid>
                <name>Leading</name>
                <valuemin>-100</valuemin>
                <valuemax>100</valuemax>
                <value>0</value>
              </parameter>
              <parameter>
                <parameterid>aspect</parameterid>
                <name>Aspect</name>
                <valuemin>0</valuemin>
                <valuemax>4</valuemax>
                <value>1</value>
              </parameter>
              <parameter>
                <parameterid>linewidth</parameterid>
                <name>Line Width</name>
                <valuemin>0</valuemin>
                <valuemax>200</valuemax>
                <value>2</value>
              </parameter>
              <parameter>
                <parameterid>linesoft</parameterid>
                <name>Line Softness</name>
                <valuemin>0</valuemin>
                <valuemax>100</valuemax>
                <value>5</value>
              </parameter>
              <parameter>
                <parameterid>textopacity</parameterid>
                <name>Text Opacity</name>
                <valuemin>0</valuemin>
                <valuemax>100</valuemax>
                <value>100</value>
              </parameter>
              <parameter>
                <parameterid>center</parameterid>
                <name>Center</name>
                <value>
                  <horiz>0</horiz>
                  <vert>0.4703703703703703</vert>
                </value>
              </parameter>
              <parameter>
                <parameterid>textcolor</parameterid>
                <name>Text Color</name>
                <value>
                  <alpha>255</alpha>
                  <red>255</red>
                  <green>255</green>
                  <blue>255</blue>
                </value>
              </parameter>
              <parameter>
                <parameterid>supertext</parameterid>
                <name>Text Graphic</name>
              </parameter>
              <parameter>
                <parameterid>linecolor</parameterid>
                <name>Line Color</name>
                <value>
                  <alpha>255</alpha>
                  <red>0</red>
                  <green>0</green>
                  <blue>0</blue>
                </value>
              </parameter>
              <parameter>
                <parameterid>superline</parameterid>
                <name>Line Graphic</name>
              </parameter>
              <parameter>
                <parameterid>part2</parameterid>
                <name>Background Settings</name>
              </parameter>
              <parameter>
                <parameterid>xscale</parameterid>
                <name>Horizontal Size</name>
                <valuemin>0</valuemin>
                <valuemax>200</valuemax>
                <value>0</value>
              </parameter>
              <parameter>
                <parameterid>yscale</parameterid>
                <name>Vertical Size</name>
                <valuemin>0</valuemin>
                <valuemax>200</valuemax>
                <value>0</value>
              </parameter>
              <parameter>
                <parameterid>xoffset</parameterid>
                <name>Horizontal Offset</name>
                <valuemin>-100</valuemin>
                <valuemax>100</valuemax>
                <value>0</value>
              </parameter>
              <parameter>
                <parameterid>yoffset</parameterid>
                <name>Vertical Offset</name>
                <valuemin>-100</valuemin>
                <valuemax>100</valuemax>
                <value>0</value>
              </parameter>
              <parameter>
                <parameterid>backsoft</parameterid>
                <name>Back Soft</name>
                <valuemin>0</valuemin>
                <valuemax>100</valuemax>
                <value>0</value>
              </parameter>
              <parameter>
                <parameterid>backopacity</parameterid>
                <name>Back Opacity</name>
                <valuemin>0</valuemin>
                <valuemax>100</valuemax>
                <value>50</value>
              </parameter>
              <parameter>
                <parameterid>backcolor</parameterid>
                <name>Back Color</name>
                <value>
                  <alpha>255</alpha>
                  <red>255</red>
                  <green>255</green>
                  <blue>255</blue>
                </value>
              </parameter>
              <parameter>
                <parameterid>superback</parameterid>
                <name>Back Graphic</name>
              </parameter>
              <parameter>
                <parameterid>crop</parameterid>
                <name>Crop</name>
                <value>false</value>
              </parameter>
              <parameter>
                <parameterid>autokern</parameterid>
                <name>Auto Kerning</name>
                <value>true</value>
              </parameter>
            </effect>
            <sourcetrack>
              <mediatype>video</mediatype>
            </sourcetrack>
          </generatoritem>
          <generatoritem id="Outline Text1">
            <name>상도지기 개인 PC방 창업 665호점</name>
            <duration>2249.7599999999998</duration>
            <rate>
              <timebase>24</timebase>
              <ntsc>false</ntsc>
            </rate>
            <start>92.64000000000001</start>
            <end>160.32</end>
            <in>92.64000000000001</in>
            <out>160.32</out>
            <enabled>true</enabled>
            <anamorphic>false</anamorphic>
            <alphatype>black</alphatype>
            <masterclipid>Outline Text1</masterclipid>
            <effect>
              <name>Outline Text</name>
              <effectid>Outline Text</effectid>
              <effectcategory>Text</effectcategory>
              <effecttype>generator</effecttype>
              <mediatype>video</mediatype>
              <parameter>
                <parameterid>part1</parameterid>
                <name>Text Settings</name>
                <value/>
              </parameter>
              <parameter>
                <parameterid>str</parameterid>
                <name>Text</name>
                <value>상도지기 개인 PC방 창업 665호점</value>
              </parameter>
              <parameter>
                <parameterid>font</parameterid>
                <name>Font</name>
                <value>AppleSDGothicNeo-Regular</value>
              </parameter>
              <parameter>
                <parameterid>style</parameterid>
                <name>Style</name>
                <valuemin>1</valuemin>
                <valuemax>1</valuemax>
                <valuelist>
                  <valueentry>
                    <name>Regular</name>
                    <value>1</value>
                  </valueentry>
                </valuelist>
                <value>1</value>
              </parameter>
              <parameter>
                <parameterid>align</parameterid>
                <name>Alignment</name>
                <valuemin>1</valuemin>
                <valuemax>3</valuemax>
                <valuelist>
                  <valueentry>
                    <name>Left</name>
                    <value>1</value>
                  </valueentry>
                  <valueentry>
                    <name>Center</name>
                    <value>2</value>
                  </valueentry>
                  <valueentry>
                    <name>Right</name>
                    <value>3</value>
                  </valueentry>
                </valuelist>
                <value>2</value>
              </parameter>
              <parameter>
                <parameterid>size</parameterid>
                <name>Size</name>
                <valuemin>0</valuemin>
                <valuemax>200</valuemax>
                <value>24</value>
              </parameter>
              <parameter>
                <parameterid>track</parameterid>
                <name>Tracking</name>
                <valuemin>0</valuemin>
                <valuemax>100</valuemax>
                <value>1</value>
              </parameter>
              <parameter>
                <parameterid>lead</parameterid>
                <name>Leading</name>
                <valuemin>-100</valuemin>
                <valuemax>100</valuemax>
                <value>0</value>
              </parameter>
              <parameter>
                <parameterid>aspect</parameterid>
                <name>Aspect</name>
                <valuemin>0</valuemin>
                <valuemax>4</valuemax>
                <value>1</value>
              </parameter>
              <parameter>
                <parameterid>linewidth</parameterid>
                <name>Line Width</name>
                <valuemin>0</valuemin>
                <valuemax>200</valuemax>
                <value>2</value>
              </parameter>
              <parameter>
                <parameterid>linesoft</parameterid>
                <name>Line Softness</name>
                <valuemin>0</valuemin>
                <valuemax>100</valuemax>
                <value>5</value>
              </parameter>
              <parameter>
                <parameterid>textopacity</parameterid>
                <name>Text Opacity</name>
                <valuemin>0</valuemin>
                <valuemax>100</valuemax>
                <value>100</value>
              </parameter>
              <parameter>
                <parameterid>center</parameterid>
                <name>Center</name>
                <value>
                  <horiz>0</horiz>
                  <vert>0.4703703703703703</vert>
                </value>
              </parameter>
              <parameter>
                <parameterid>textcolor</parameterid>
                <name>Text Color</name>
                <value>
                  <alpha>255</alpha>
                  <red>255</red>
                  <green>255</green>
                  <blue>255</blue>
                </value>
              </parameter>
              <parameter>
                <parameterid>supertext</parameterid>
                <name>Text Graphic</name>
              </parameter>
              <parameter>
                <parameterid>linecolor</parameterid>
                <name>Line Color</name>
                <value>
                  <alpha>255</alpha>
                  <red>0</red>
                  <green>0</green>
                  <blue>0</blue>
                </value>
              </parameter>
              <parameter>
                <parameterid>superline</parameterid>
                <name>Line Graphic</name>
              </parameter>
              <parameter>
                <parameterid>part2</parameterid>
                <name>Background Settings</name>
              </parameter>
              <parameter>
                <parameterid>xscale</parameterid>
                <name>Horizontal Size</name>
                <valuemin>0</valuemin>
                <valuemax>200</valuemax>
                <value>0</value>
              </parameter>
              <parameter>
                <parameterid>yscale</parameterid>
                <name>Vertical Size</name>
                <valuemin>0</valuemin>
                <valuemax>200</valuemax>
                <value>0</value>
              </parameter>
              <parameter>
                <parameterid>xoffset</parameterid>
                <name>Horizontal Offset</name>
                <valuemin>-100</valuemin>
                <valuemax>100</valuemax>
                <value>0</value>
              </parameter>
              <parameter>
                <parameterid>yoffset</parameterid>
                <name>Vertical Offset</name>
                <valuemin>-100</valuemin>
                <valuemax>100</valuemax>
                <value>0</value>
              </parameter>
              <parameter>
                <parameterid>backsoft</parameterid>
                <name>Back Soft</name>
                <valuemin>0</valuemin>
                <valuemax>100</valuemax>
                <value>0</value>
              </parameter>
              <parameter>
                <parameterid>backopacity</parameterid>
                <name>Back Opacity</name>
                <valuemin>0</valuemin>
                <valuemax>100</valuemax>
                <value>50</value>
              </parameter>
              <parameter>
                <parameterid>backcolor</parameterid>
                <name>Back Color</name>
                <value>
                  <alpha>255</alpha>
                  <red>255</red>
                  <green>255</green>
                  <blue>255</blue>
                </value>
              </parameter>
              <parameter>
                <parameterid>superback</parameterid>
                <name>Back Graphic</name>
              </parameter>
              <parameter>
                <parameterid>crop</parameterid>
                <name>Crop</name>
                <value>false</value>
              </parameter>
              <parameter>
                <parameterid>autokern</parameterid>
                <name>Auto Kerning</name>
                <value>true</value>
              </parameter>
            </effect>
            <sourcetrack>
              <mediatype>video</mediatype>
            </sourcetrack>
          </generatoritem>
          <generatoritem id="Outline Text1">
            <name>충북 영동점 브리핑입니다</name>
            <duration>2249.7599999999998</duration>
            <rate>
              <timebase>24</timebase>
              <ntsc>false</ntsc>
            </rate>
            <start>160.32</start>
            <end>215.03999999999996</end>
            <in>160.32</in>
            <out>215.03999999999996</out>
            <enabled>true</enabled>
            <anamorphic>false</anamorphic>
            <alphatype>black</alphatype>
            <masterclipid>Outline Text1</masterclipid>
            <effect>
              <name>Outline Text</name>
              <effectid>Outline Text</effectid>
              <effectcategory>Text</effectcategory>
              <effecttype>generator</effecttype>
              <mediatype>video</mediatype>
              <parameter>
                <parameterid>part1</parameterid>
                <name>Text Settings</name>
                <value/>
              </parameter>
              <parameter>
                <parameterid>str</parameterid>
                <name>Text</name>
                <value>충북 영동점 브리핑입니다</value>
              </parameter>
              <parameter>
                <parameterid>font</parameterid>
                <name>Font</name>
                <value>AppleSDGothicNeo-Regular</value>
              </parameter>
              <parameter>
                <parameterid>style</parameterid>
                <name>Style</name>
                <valuemin>1</valuemin>
                <valuemax>1</valuemax>
                <valuelist>
                  <valueentry>
                    <name>Regular</name>
                    <value>1</value>
                  </valueentry>
                </valuelist>
                <value>1</value>
              </parameter>
              <parameter>
                <parameterid>align</parameterid>
                <name>Alignment</name>
                <valuemin>1</valuemin>
                <valuemax>3</valuemax>
                <valuelist>
                  <valueentry>
                    <name>Left</name>
                    <value>1</value>
                  </valueentry>
                  <valueentry>
                    <name>Center</name>
                    <value>2</value>
                  </valueentry>
                  <valueentry>
                    <name>Right</name>
                    <value>3</value>
                  </valueentry>
                </valuelist>
                <value>2</value>
              </parameter>
              <parameter>
                <parameterid>size</parameterid>
                <name>Size</name>
                <valuemin>0</valuemin>
                <valuemax>200</valuemax>
                <value>24</value>
              </parameter>
              <parameter>
                <parameterid>track</parameterid>
                <name>Tracking</name>
                <valuemin>0</valuemin>
                <valuemax>100</valuemax>
                <value>1</value>
              </parameter>
              <parameter>
                <parameterid>lead</parameterid>
                <name>Leading</name>
                <valuemin>-100</valuemin>
                <valuemax>100</valuemax>
                <value>0</value>
              </parameter>
              <parameter>
                <parameterid>aspect</parameterid>
                <name>Aspect</name>
                <valuemin>0</valuemin>
                <valuemax>4</valuemax>
                <value>1</value>
              </parameter>
              <parameter>
                <parameterid>linewidth</parameterid>
                <name>Line Width</name>
                <valuemin>0</valuemin>
                <valuemax>200</valuemax>
                <value>2</value>
              </parameter>
              <parameter>
                <parameterid>linesoft</parameterid>
                <name>Line Softness</name>
                <valuemin>0</valuemin>
                <valuemax>100</valuemax>
                <value>5</value>
              </parameter>
              <parameter>
                <parameterid>textopacity</parameterid>
                <name>Text Opacity</name>
                <valuemin>0</valuemin>
                <valuemax>100</valuemax>
                <value>100</value>
              </parameter>
              <parameter>
                <parameterid>center</parameterid>
                <name>Center</name>
                <value>
                  <horiz>0</horiz>
                  <vert>0.4703703703703703</vert>
                </value>
              </parameter>
              <parameter>
                <parameterid>textcolor</parameterid>
                <name>Text Color</name>
                <value>
                  <alpha>255</alpha>
                  <red>255</red>
                  <green>255</green>
                  <blue>255</blue>
                </value>
              </parameter>
              <parameter>
                <parameterid>supertext</parameterid>
                <name>Text Graphic</name>
              </parameter>
              <parameter>
                <parameterid>linecolor</parameterid>
                <name>Line Color</name>
                <value>
                  <alpha>255</alpha>
                  <red>0</red>
                  <green>0</green>
                  <blue>0</blue>
                </value>
              </parameter>
              <parameter>
                <parameterid>superline</parameterid>
                <name>Line Graphic</name>
              </parameter>
              <parameter>
                <parameterid>part2</parameterid>
                <name>Background Settings</name>
              </parameter>
              <parameter>
                <parameterid>xscale</parameterid>
                <name>Horizontal Size</name>
                <valuemin>0</valuemin>
                <valuemax>200</valuemax>
                <value>0</value>
              </parameter>
              <parameter>
                <parameterid>yscale</parameterid>
                <name>Vertical Size</name>
                <valuemin>0</valuemin>
                <valuemax>200</valuemax>
                <value>0</value>
              </parameter>
              <parameter>
                <parameterid>xoffset</parameterid>
                <name>Horizontal Offset</name>
                <valuemin>-100</valuemin>
                <valuemax>100</valuemax>
                <value>0</value>
              </parameter>
              <parameter>
                <parameterid>yoffset</parameterid>
                <name>Vertical Offset</name>
                <valuemin>-100</valuemin>
                <valuemax>100</valuemax>
                <value>0</value>
              </parameter>
              <parameter>
                <parameterid>backsoft</parameterid>
                <name>Back Soft</name>
                <valuemin>0</valuemin>
                <valuemax>100</valuemax>
                <value>0</value>
              </parameter>
              <parameter>
                <parameterid>backopacity</parameterid>
                <name>Back Opacity</name>
                <valuemin>0</valuemin>
                <valuemax>100</valuemax>
                <value>50</value>
              </parameter>
              <parameter>
                <parameterid>backcolor</parameterid>
                <name>Back Color</name>
                <value>
                  <alpha>255</alpha>
                  <red>255</red>
                  <green>255</green>
                  <blue>255</blue>
                </value>
              </parameter>
              <parameter>
                <parameterid>superback</parameterid>
                <name>Back Graphic</name>
              </parameter>
              <parameter>
                <parameterid>crop</parameterid>
                <name>Crop</name>
                <value>false</value>
              </parameter>
              <parameter>
                <parameterid>autokern</parameterid>
                <name>Auto Kerning</name>
                <value>true</value>
              </parameter>
            </effect>
            <sourcetrack>
              <mediatype>video</mediatype>
            </sourcetrack>
          </generatoritem>
          <generatoritem id="Outline Text1">
            <name>영동점은 사장님이 파벽을 좋아하셔 가지고</name>
            <duration>2249.7599999999998</duration>
            <rate>
              <timebase>24</timebase>
              <ntsc>false</ntsc>
            </rate>
            <start>215.03999999999996</start>
            <end>293.03999999999996</end>
            <in>215.03999999999996</in>
            <out>293.03999999999996</out>
            <enabled>true</enabled>
            <anamorphic>false</anamorphic>
            <alphatype>black</alphatype>
            <masterclipid>Outline Text1</masterclipid>
            <effect>
              <name>Outline Text</name>
              <effectid>Outline Text</effectid>
              <effectcategory>Text</effectcategory>
              <effecttype>generator</effecttype>
              <mediatype>video</mediatype>
              <parameter>
                <parameterid>part1</parameterid>
                <name>Text Settings</name>
                <value/>
              </parameter>
              <parameter>
                <parameterid>str</parameterid>
                <name>Text</name>
                <value>영동점은 사장님이 파벽을 좋아하셔 가지고</value>
              </parameter>
              <parameter>
                <parameterid>font</parameterid>
                <name>Font</name>
                <value>AppleSDGothicNeo-Regular</value>
              </parameter>
              <parameter>
                <parameterid>style</parameterid>
                <name>Style</name>
                <valuemin>1</valuemin>
                <valuemax>1</valuemax>
                <valuelist>
                  <valueentry>
                    <name>Regular</name>
                    <value>1</value>
                  </valueentry>
                </valuelist>
                <value>1</value>
              </parameter>
              <parameter>
                <parameterid>align</parameterid>
                <name>Alignment</name>
                <valuemin>1</valuemin>
                <valuemax>3</valuemax>
                <valuelist>
                  <valueentry>
                    <name>Left</name>
                    <value>1</value>
                  </valueentry>
                  <valueentry>
                    <name>Center</name>
                    <value>2</value>
                  </valueentry>
                  <valueentry>
                    <name>Right</name>
                    <value>3</value>
                  </valueentry>
                </valuelist>
                <value>2</value>
              </parameter>
              <parameter>
                <parameterid>size</parameterid>
                <name>Size</name>
                <valuemin>0</valuemin>
                <valuemax>200</valuemax>
                <value>24</value>
              </parameter>
              <parameter>
                <parameterid>track</parameterid>
                <name>Tracking</name>
                <valuemin>0</valuemin>
                <valuemax>100</valuemax>
                <value>1</value>
              </parameter>
              <parameter>
                <parameterid>lead</parameterid>
                <name>Leading</name>
                <valuemin>-100</valuemin>
                <valuemax>100</valuemax>
                <value>0</value>
              </parameter>
              <parameter>
                <parameterid>aspect</parameterid>
                <name>Aspect</name>
                <valuemin>0</valuemin>
                <valuemax>4</valuemax>
                <value>1</value>
              </parameter>
              <parameter>
                <parameterid>linewidth</parameterid>
                <name>Line Width</name>
                <valuemin>0</valuemin>
                <valuemax>200</valuemax>
                <value>2</value>
              </parameter>
              <parameter>
                <parameterid>linesoft</parameterid>
                <name>Line Softness</name>
                <valuemin>0</valuemin>
                <valuemax>100</valuemax>
                <value>5</value>
              </parameter>
              <parameter>
                <parameterid>textopacity</parameterid>
                <name>Text Opacity</name>
                <valuemin>0</valuemin>
                <valuemax>100</valuemax>
                <value>100</value>
              </parameter>
              <parameter>
                <parameterid>center</parameterid>
                <name>Center</name>
                <value>
                  <horiz>0</horiz>
                  <vert>0.4703703703703703</vert>
                </value>
              </parameter>
              <parameter>
                <parameterid>textcolor</parameterid>
                <name>Text Color</name>
                <value>
                  <alpha>255</alpha>
                  <red>255</red>
                  <green>255</green>
                  <blue>255</blue>
                </value>
              </parameter>
              <parameter>
                <parameterid>supertext</parameterid>
                <name>Text Graphic</name>
              </parameter>
              <parameter>
                <parameterid>linecolor</parameterid>
                <name>Line Color</name>
                <value>
                  <alpha>255</alpha>
                  <red>0</red>
                  <green>0</green>
                  <blue>0</blue>
                </value>
              </parameter>
              <parameter>
                <parameterid>superline</parameterid>
                <name>Line Graphic</name>
              </parameter>
              <parameter>
                <parameterid>part2</parameterid>
                <name>Background Settings</name>
              </parameter>
              <parameter>
                <parameterid>xscale</parameterid>
                <name>Horizontal Size</name>
                <valuemin>0</valuemin>
                <valuemax>200</valuemax>
                <value>0</value>
              </parameter>
              <parameter>
                <parameterid>yscale</parameterid>
                <name>Vertical Size</name>
                <valuemin>0</valuemin>
                <valuemax>200</valuemax>
                <value>0</value>
              </parameter>
              <parameter>
                <parameterid>xoffset</parameterid>
                <name>Horizontal Offset</name>
                <valuemin>-100</valuemin>
                <valuemax>100</valuemax>
                <value>0</value>
              </parameter>
              <parameter>
                <parameterid>yoffset</parameterid>
                <name>Vertical Offset</name>
                <valuemin>-100</valuemin>
                <valuemax>100</valuemax>
                <value>0</value>
              </parameter>
              <parameter>
                <parameterid>backsoft</parameterid>
                <name>Back Soft</name>
                <valuemin>0</valuemin>
                <valuemax>100</valuemax>
                <value>0</value>
              </parameter>
              <parameter>
                <parameterid>backopacity</parameterid>
                <name>Back Opacity</name>
                <valuemin>0</valuemin>
                <valuemax>100</valuemax>
                <value>50</value>
              </parameter>
              <parameter>
                <parameterid>backcolor</parameterid>
                <name>Back Color</name>
                <value>
                  <alpha>255</alpha>
                  <red>255</red>
                  <green>255</green>
                  <blue>255</blue>
                </value>
              </parameter>
              <parameter>
                <parameterid>superback</parameterid>
                <name>Back Graphic</name>
              </parameter>
              <parameter>
                <parameterid>crop</parameterid>
                <name>Crop</name>
                <value>false</value>
              </parameter>
              <parameter>
                <parameterid>autokern</parameterid>
                <name>Auto Kerning</name>
                <value>true</value>
              </parameter>
            </effect>
            <sourcetrack>
              <mediatype>video</mediatype>
            </sourcetrack>
          </generatoritem>
          <generatoritem id="Outline Text1">
            <name>벽면에 다양한 파벽을 시공했습니다</name>
            <duration>2249.7599999999998</duration>
            <rate>
              <timebase>24</timebase>
              <ntsc>false</ntsc>
            </rate>
            <start>293.03999999999996</start>
            <end>360.72</end>
            <in>293.03999999999996</in>
            <out>360.72</out>
            <enabled>true</enabled>
            <anamorphic>false</anamorphic>
            <alphatype>black</alphatype>
            <masterclipid>Outline Text1</masterclipid>
            <effect>
              <name>Outline Text</name>
              <effectid>Outline Text</effectid>
              <effectcategory>Text</effectcategory>
              <effecttype>generator</effecttype>
              <mediatype>video</mediatype>
              <parameter>
                <parameterid>part1</parameterid>
                <name>Text Settings</name>
                <value/>
              </parameter>
              <parameter>
                <parameterid>str</parameterid>
                <name>Text</name>
                <value>벽면에 다양한 파벽을 시공했습니다</value>
              </parameter>
              <parameter>
                <parameterid>font</parameterid>
                <name>Font</name>
                <value>AppleSDGothicNeo-Regular</value>
              </parameter>
              <parameter>
                <parameterid>style</parameterid>
                <name>Style</name>
                <valuemin>1</valuemin>
                <valuemax>1</valuemax>
                <valuelist>
                  <valueentry>
                    <name>Regular</name>
                    <value>1</value>
                  </valueentry>
                </valuelist>
                <value>1</value>
              </parameter>
              <parameter>
                <parameterid>align</parameterid>
                <name>Alignment</name>
                <valuemin>1</valuemin>
                <valuemax>3</valuemax>
                <valuelist>
                  <valueentry>
                    <name>Left</name>
                    <value>1</value>
                  </valueentry>
                  <valueentry>
                    <name>Center</name>
                    <value>2</value>
                  </valueentry>
                  <valueentry>
                    <name>Right</name>
                    <value>3</value>
                  </valueentry>
                </valuelist>
                <value>2</value>
              </parameter>
              <parameter>
                <parameterid>size</parameterid>
                <name>Size</name>
                <valuemin>0</valuemin>
                <valuemax>200</valuemax>
                <value>24</value>
              </parameter>
              <parameter>
                <parameterid>track</parameterid>
                <name>Tracking</name>
                <valuemin>0</valuemin>
                <valuemax>100</valuemax>
                <value>1</value>
              </parameter>
              <parameter>
                <parameterid>lead</parameterid>
                <name>Leading</name>
                <valuemin>-100</valuemin>
                <valuemax>100</valuemax>
                <value>0</value>
              </parameter>
              <parameter>
                <parameterid>aspect</parameterid>
                <name>Aspect</name>
                <valuemin>0</valuemin>
                <valuemax>4</valuemax>
                <value>1</value>
              </parameter>
              <parameter>
                <parameterid>linewidth</parameterid>
                <name>Line Width</name>
                <valuemin>0</valuemin>
                <valuemax>200</valuemax>
                <value>2</value>
              </parameter>
              <parameter>
                <parameterid>linesoft</parameterid>
                <name>Line Softness</name>
                <valuemin>0</valuemin>
                <valuemax>100</valuemax>
                <value>5</value>
              </parameter>
              <parameter>
                <parameterid>textopacity</parameterid>
                <name>Text Opacity</name>
                <valuemin>0</valuemin>
                <valuemax>100</valuemax>
                <value>100</value>
              </parameter>
              <parameter>
                <parameterid>center</parameterid>
                <name>Center</name>
                <value>
                  <horiz>0</horiz>
                  <vert>0.4703703703703703</vert>
                </value>
              </parameter>
              <parameter>
                <parameterid>textcolor</parameterid>
                <name>Text Color</name>
                <value>
                  <alpha>255</alpha>
                  <red>255</red>
                  <green>255</green>
                  <blue>255</blue>
                </value>
              </parameter>
              <parameter>
                <parameterid>supertext</parameterid>
                <name>Text Graphic</name>
              </parameter>
              <parameter>
                <parameterid>linecolor</parameterid>
                <name>Line Color</name>
                <value>
                  <alpha>255</alpha>
                  <red>0</red>
                  <green>0</green>
                  <blue>0</blue>
                </value>
              </parameter>
              <parameter>
                <parameterid>superline</parameterid>
                <name>Line Graphic</name>
              </parameter>
              <parameter>
                <parameterid>part2</parameterid>
                <name>Background Settings</name>
              </parameter>
              <parameter>
                <parameterid>xscale</parameterid>
                <name>Horizontal Size</name>
                <valuemin>0</valuemin>
                <valuemax>200</valuemax>
                <value>0</value>
              </parameter>
              <parameter>
                <parameterid>yscale</parameterid>
                <name>Vertical Size</name>
                <valuemin>0</valuemin>
                <valuemax>200</valuemax>
                <value>0</value>
              </parameter>
              <parameter>
                <parameterid>xoffset</parameterid>
                <name>Horizontal Offset</name>
                <valuemin>-100</valuemin>
                <valuemax>100</valuemax>
                <value>0</value>
              </parameter>
              <parameter>
                <parameterid>yoffset</parameterid>
                <name>Vertical Offset</name>
                <valuemin>-100</valuemin>
                <valuemax>100</valuemax>
                <value>0</value>
              </parameter>
              <parameter>
                <parameterid>backsoft</parameterid>
                <name>Back Soft</name>
                <valuemin>0</valuemin>
                <valuemax>100</valuemax>
                <value>0</value>
              </parameter>
              <parameter>
                <parameterid>backopacity</parameterid>
                <name>Back Opacity</name>
                <valuemin>0</valuemin>
                <valuemax>100</valuemax>
                <value>50</value>
              </parameter>
              <parameter>
                <parameterid>backcolor</parameterid>
                <name>Back Color</name>
                <value>
                  <alpha>255</alpha>
                  <red>255</red>
                  <green>255</green>
                  <blue>255</blue>
                </value>
              </parameter>
              <parameter>
                <parameterid>superback</parameterid>
                <name>Back Graphic</name>
              </parameter>
              <parameter>
                <parameterid>crop</parameterid>
                <name>Crop</name>
                <value>false</value>
              </parameter>
              <parameter>
                <parameterid>autokern</parameterid>
                <name>Auto Kerning</name>
                <value>true</value>
              </parameter>
            </effect>
            <sourcetrack>
              <mediatype>video</mediatype>
            </sourcetrack>
          </generatoritem>
          <generatoritem id="Outline Text1">
            <name>포인트 색상으로 파란색이랑 주황색을 사용했고</name>
            <duration>2249.7599999999998</duration>
            <rate>
              <timebase>24</timebase>
              <ntsc>false</ntsc>
            </rate>
            <start>360.72</start>
            <end>443.28</end>
            <in>360.72</in>
            <out>443.28</out>
            <enabled>true</enabled>
            <anamorphic>false</anamorphic>
            <alphatype>black</alphatype>
            <masterclipid>Outline Text1</masterclipid>
            <effect>
              <name>Outline Text</name>
              <effectid>Outline Text</effectid>
              <effectcategory>Text</effectcategory>
              <effecttype>generator</effecttype>
              <mediatype>video</mediatype>
              <parameter>
                <parameterid>part1</parameterid>
                <name>Text Settings</name>
                <value/>
              </parameter>
              <parameter>
                <parameterid>str</parameterid>
                <name>Text</name>
                <value>포인트 색상으로 파란색이랑 주황색을 사용했고</value>
              </parameter>
              <parameter>
                <parameterid>font</parameterid>
                <name>Font</name>
                <value>AppleSDGothicNeo-Regular</value>
              </parameter>
              <parameter>
                <parameterid>style</parameterid>
                <name>Style</name>
                <valuemin>1</valuemin>
                <valuemax>1</valuemax>
                <valuelist>
                  <valueentry>
                    <name>Regular</name>
                    <value>1</value>
                  </valueentry>
                </valuelist>
                <value>1</value>
              </parameter>
              <parameter>
                <parameterid>align</parameterid>
                <name>Alignment</name>
                <valuemin>1</valuemin>
                <valuemax>3</valuemax>
                <valuelist>
                  <valueentry>
                    <name>Left</name>
                    <value>1</value>
                  </valueentry>
                  <valueentry>
                    <name>Center</name>
                    <value>2</value>
                  </valueentry>
                  <valueentry>
                    <name>Right</name>
                    <value>3</value>
                  </valueentry>
                </valuelist>
                <value>2</value>
              </parameter>
              <parameter>
                <parameterid>size</parameterid>
                <name>Size</name>
                <valuemin>0</valuemin>
                <valuemax>200</valuemax>
                <value>24</value>
              </parameter>
              <parameter>
                <parameterid>track</parameterid>
                <name>Tracking</name>
                <valuemin>0</valuemin>
                <valuemax>100</valuemax>
                <value>1</value>
              </parameter>
              <parameter>
                <parameterid>lead</parameterid>
                <name>Leading</name>
                <valuemin>-100</valuemin>
                <valuemax>100</valuemax>
                <value>0</value>
              </parameter>
              <parameter>
                <parameterid>aspect</parameterid>
                <name>Aspect</name>
                <valuemin>0</valuemin>
                <valuemax>4</valuemax>
                <value>1</value>
              </parameter>
              <parameter>
                <parameterid>linewidth</parameterid>
                <name>Line Width</name>
                <valuemin>0</valuemin>
                <valuemax>200</valuemax>
                <value>2</value>
              </parameter>
              <parameter>
                <parameterid>linesoft</parameterid>
                <name>Line Softness</name>
                <valuemin>0</valuemin>
                <valuemax>100</valuemax>
                <value>5</value>
              </parameter>
              <parameter>
                <parameterid>textopacity</parameterid>
                <name>Text Opacity</name>
                <valuemin>0</valuemin>
                <valuemax>100</valuemax>
                <value>100</value>
              </parameter>
              <parameter>
                <parameterid>center</parameterid>
                <name>Center</name>
                <value>
                  <horiz>0</horiz>
                  <vert>0.4703703703703703</vert>
                </value>
              </parameter>
              <parameter>
                <parameterid>textcolor</parameterid>
                <name>Text Color</name>
                <value>
                  <alpha>255</alpha>
                  <red>255</red>
                  <green>255</green>
                  <blue>255</blue>
                </value>
              </parameter>
              <parameter>
                <parameterid>supertext</parameterid>
                <name>Text Graphic</name>
              </parameter>
              <parameter>
                <parameterid>linecolor</parameterid>
                <name>Line Color</name>
                <value>
                  <alpha>255</alpha>
                  <red>0</red>
                  <green>0</green>
                  <blue>0</blue>
                </value>
              </parameter>
              <parameter>
                <parameterid>superline</parameterid>
                <name>Line Graphic</name>
              </parameter>
              <parameter>
                <parameterid>part2</parameterid>
                <name>Background Settings</name>
              </parameter>
              <parameter>
                <parameterid>xscale</parameterid>
                <name>Horizontal Size</name>
                <valuemin>0</valuemin>
                <valuemax>200</valuemax>
                <value>0</value>
              </parameter>
              <parameter>
                <parameterid>yscale</parameterid>
                <name>Vertical Size</name>
                <valuemin>0</valuemin>
                <valuemax>200</valuemax>
                <value>0</value>
              </parameter>
              <parameter>
                <parameterid>xoffset</parameterid>
                <name>Horizontal Offset</name>
                <valuemin>-100</valuemin>
                <valuemax>100</valuemax>
                <value>0</value>
              </parameter>
              <parameter>
                <parameterid>yoffset</parameterid>
                <name>Vertical Offset</name>
                <valuemin>-100</valuemin>
                <valuemax>100</valuemax>
                <value>0</value>
              </parameter>
              <parameter>
                <parameterid>backsoft</parameterid>
                <name>Back Soft</name>
                <valuemin>0</valuemin>
                <valuemax>100</valuemax>
                <value>0</value>
              </parameter>
              <parameter>
                <parameterid>backopacity</parameterid>
                <name>Back Opacity</name>
                <valuemin>0</valuemin>
                <valuemax>100</valuemax>
                <value>50</value>
              </parameter>
              <parameter>
                <parameterid>backcolor</parameterid>
                <name>Back Color</name>
                <value>
                  <alpha>255</alpha>
                  <red>255</red>
                  <green>255</green>
                  <blue>255</blue>
                </value>
              </parameter>
              <parameter>
                <parameterid>superback</parameterid>
                <name>Back Graphic</name>
              </parameter>
              <parameter>
                <parameterid>crop</parameterid>
                <name>Crop</name>
                <value>false</value>
              </parameter>
              <parameter>
                <parameterid>autokern</parameterid>
                <name>Auto Kerning</name>
                <value>true</value>
              </parameter>
            </effect>
            <sourcetrack>
              <mediatype>video</mediatype>
            </sourcetrack>
          </generatoritem>
          <generatoritem id="Outline Text1">
            <name>금속 재질의 도장을 하는 방식으로 시공했습니다</name>
            <duration>2249.7599999999998</duration>
            <rate>
              <timebase>24</timebase>
              <ntsc>false</ntsc>
            </rate>
            <start>443.28</start>
            <end>532.3199999999999</end>
            <in>443.28</in>
            <out>532.3199999999999</out>
            <enabled>true</enabled>
            <anamorphic>false</anamorphic>
            <alphatype>black</alphatype>
            <masterclipid>Outline Text1</masterclipid>
            <effect>
              <name>Outline Text</name>
              <effectid>Outline Text</effectid>
              <effectcategory>Text</effectcategory>
              <effecttype>generator</effecttype>
              <mediatype>video</mediatype>
              <parameter>
                <parameterid>part1</parameterid>
                <name>Text Settings</name>
                <value/>
              </parameter>
              <parameter>
                <parameterid>str</parameterid>
                <name>Text</name>
                <value>금속 재질의 도장을 하는 방식으로 시공했습니다</value>
              </parameter>
              <parameter>
                <parameterid>font</parameterid>
                <name>Font</name>
                <value>AppleSDGothicNeo-Regular</value>
              </parameter>
              <parameter>
                <parameterid>style</parameterid>
                <name>Style</name>
                <valuemin>1</valuemin>
                <valuemax>1</valuemax>
                <valuelist>
                  <valueentry>
                    <name>Regular</name>
                    <value>1</value>
                  </valueentry>
                </valuelist>
                <value>1</value>
              </parameter>
              <parameter>
                <parameterid>align</parameterid>
                <name>Alignment</name>
                <valuemin>1</valuemin>
                <valuemax>3</valuemax>
                <valuelist>
                  <valueentry>
                    <name>Left</name>
                    <value>1</value>
                  </valueentry>
                  <valueentry>
                    <name>Center</name>
                    <value>2</value>
                  </valueentry>
                  <valueentry>
                    <name>Right</name>
                    <value>3</value>
                  </valueentry>
                </valuelist>
                <value>2</value>
              </parameter>
              <parameter>
                <parameterid>size</parameterid>
                <name>Size</name>
                <valuemin>0</valuemin>
                <valuemax>200</valuemax>
                <value>24</value>
              </parameter>
              <parameter>
                <parameterid>track</parameterid>
                <name>Tracking</name>
                <valuemin>0</valuemin>
                <valuemax>100</valuemax>
                <value>1</value>
              </parameter>
              <parameter>
                <parameterid>lead</parameterid>
                <name>Leading</name>
                <valuemin>-100</valuemin>
                <valuemax>100</valuemax>
                <value>0</value>
              </parameter>
              <parameter>
                <parameterid>aspect</parameterid>
                <name>Aspect</name>
                <valuemin>0</valuemin>
                <valuemax>4</valuemax>
                <value>1</value>
              </parameter>
              <parameter>
                <parameterid>linewidth</parameterid>
                <name>Line Width</name>
                <valuemin>0</valuemin>
                <valuemax>200</valuemax>
                <value>2</value>
              </parameter>
              <parameter>
                <parameterid>linesoft</parameterid>
                <name>Line Softness</name>
                <valuemin>0</valuemin>
                <valuemax>100</valuemax>
                <value>5</value>
              </parameter>
              <parameter>
                <parameterid>textopacity</parameterid>
                <name>Text Opacity</name>
                <valuemin>0</valuemin>
                <valuemax>100</valuemax>
                <value>100</value>
              </parameter>
              <parameter>
                <parameterid>center</parameterid>
                <name>Center</name>
                <value>
                  <horiz>0</horiz>
                  <vert>0.4703703703703703</vert>
                </value>
              </parameter>
              <parameter>
                <parameterid>textcolor</parameterid>
                <name>Text Color</name>
                <value>
                  <alpha>255</alpha>
                  <red>255</red>
                  <green>255</green>
                  <blue>255</blue>
                </value>
              </parameter>
              <parameter>
                <parameterid>supertext</parameterid>
                <name>Text Graphic</name>
              </parameter>
              <parameter>
                <parameterid>linecolor</parameterid>
                <name>Line Color</name>
                <value>
                  <alpha>255</alpha>
                  <red>0</red>
                  <green>0</green>
                  <blue>0</blue>
                </value>
              </parameter>
              <parameter>
                <parameterid>superline</parameterid>
                <name>Line Graphic</name>
              </parameter>
              <parameter>
                <parameterid>part2</parameterid>
                <name>Background Settings</name>
              </parameter>
              <parameter>
                <parameterid>xscale</parameterid>
                <name>Horizontal Size</name>
                <valuemin>0</valuemin>
                <valuemax>200</valuemax>
                <value>0</value>
              </parameter>
              <parameter>
                <parameterid>yscale</parameterid>
                <name>Vertical Size</name>
                <valuemin>0</valuemin>
                <valuemax>200</valuemax>
                <value>0</value>
              </parameter>
              <parameter>
                <parameterid>xoffset</parameterid>
                <name>Horizontal Offset</name>
                <valuemin>-100</valuemin>
                <valuemax>100</valuemax>
                <value>0</value>
              </parameter>
              <parameter>
                <parameterid>yoffset</parameterid>
                <name>Vertical Offset</name>
                <valuemin>-100</valuemin>
                <valuemax>100</valuemax>
                <value>0</value>
              </parameter>
              <parameter>
                <parameterid>backsoft</parameterid>
                <name>Back Soft</name>
                <valuemin>0</valuemin>
                <valuemax>100</valuemax>
                <value>0</value>
              </parameter>
              <parameter>
                <parameterid>backopacity</parameterid>
                <name>Back Opacity</name>
                <valuemin>0</valuemin>
                <valuemax>100</valuemax>
                <value>50</value>
              </parameter>
              <parameter>
                <parameterid>backcolor</parameterid>
                <name>Back Color</name>
                <value>
                  <alpha>255</alpha>
                  <red>255</red>
                  <green>255</green>
                  <blue>255</blue>
                </value>
              </parameter>
              <parameter>
                <parameterid>superback</parameterid>
                <name>Back Graphic</name>
              </parameter>
              <parameter>
                <parameterid>crop</parameterid>
                <name>Crop</name>
                <value>false</value>
              </parameter>
              <parameter>
                <parameterid>autokern</parameterid>
                <name>Auto Kerning</name>
                <value>true</value>
              </parameter>
            </effect>
            <sourcetrack>
              <mediatype>video</mediatype>
            </sourcetrack>
          </generatoritem>
          <generatoritem id="Outline Text1">
            <name>키오스크는 한 대를 무상으로 지원받아서</name>
            <duration>2249.7599999999998</duration>
            <rate>
              <timebase>24</timebase>
              <ntsc>false</ntsc>
            </rate>
            <start>532.3199999999999</start>
            <end>591.8399999999999</end>
            <in>532.3199999999999</in>
            <out>591.8399999999999</out>
            <enabled>true</enabled>
            <anamorphic>false</anamorphic>
            <alphatype>black</alphatype>
            <masterclipid>Outline Text1</masterclipid>
            <effect>
              <name>Outline Text</name>
              <effectid>Outline Text</effectid>
              <effectcategory>Text</effectcategory>
              <effecttype>generator</effecttype>
              <mediatype>video</mediatype>
              <parameter>
                <parameterid>part1</parameterid>
                <name>Text Settings</name>
                <value/>
              </parameter>
              <parameter>
                <parameterid>str</parameterid>
                <name>Text</name>
                <value>키오스크는 한 대를 무상으로 지원받아서</value>
              </parameter>
              <parameter>
                <parameterid>font</parameterid>
                <name>Font</name>
                <value>AppleSDGothicNeo-Regular</value>
              </parameter>
              <parameter>
                <parameterid>style</parameterid>
                <name>Style</name>
                <valuemin>1</valuemin>
                <valuemax>1</valuemax>
                <valuelist>
                  <valueentry>
                    <name>Regular</name>
                    <value>1</value>
                  </valueentry>
                </valuelist>
                <value>1</value>
              </parameter>
              <parameter>
                <parameterid>align</parameterid>
                <name>Alignment</name>
                <valuemin>1</valuemin>
                <valuemax>3</valuemax>
                <valuelist>
                  <valueentry>
                    <name>Left</name>
                    <value>1</value>
                  </valueentry>
                  <valueentry>
                    <name>Center</name>
                    <value>2</value>
                  </valueentry>
                  <valueentry>
                    <name>Right</name>
                    <value>3</value>
                  </valueentry>
                </valuelist>
                <value>2</value>
              </parameter>
              <parameter>
                <parameterid>size</parameterid>
                <name>Size</name>
                <valuemin>0</valuemin>
                <valuemax>200</valuemax>
                <value>24</value>
              </parameter>
              <parameter>
                <parameterid>track</parameterid>
                <name>Tracking</name>
                <valuemin>0</valuemin>
                <valuemax>100</valuemax>
                <value>1</value>
              </parameter>
              <parameter>
                <parameterid>lead</parameterid>
                <name>Leading</name>
                <valuemin>-100</valuemin>
                <valuemax>100</valuemax>
                <value>0</value>
              </parameter>
              <parameter>
                <parameterid>aspect</parameterid>
                <name>Aspect</name>
                <valuemin>0</valuemin>
                <valuemax>4</valuemax>
                <value>1</value>
              </parameter>
              <parameter>
                <parameterid>linewidth</parameterid>
                <name>Line Width</name>
                <valuemin>0</valuemin>
                <valuemax>200</valuemax>
                <value>2</value>
              </parameter>
              <parameter>
                <parameterid>linesoft</parameterid>
                <name>Line Softness</name>
                <valuemin>0</valuemin>
                <valuemax>100</valuemax>
                <value>5</value>
              </parameter>
              <parameter>
                <parameterid>textopacity</parameterid>
                <name>Text Opacity</name>
                <valuemin>0</valuemin>
                <valuemax>100</valuemax>
                <value>100</value>
              </parameter>
              <parameter>
                <parameterid>center</parameterid>
                <name>Center</name>
                <value>
                  <horiz>0</horiz>
                  <vert>0.4703703703703703</vert>
                </value>
              </parameter>
              <parameter>
                <parameterid>textcolor</parameterid>
                <name>Text Color</name>
                <value>
                  <alpha>255</alpha>
                  <red>255</red>
                  <green>255</green>
                  <blue>255</blue>
                </value>
              </parameter>
              <parameter>
                <parameterid>supertext</parameterid>
                <name>Text Graphic</name>
              </parameter>
              <parameter>
                <parameterid>linecolor</parameterid>
                <name>Line Color</name>
                <value>
                  <alpha>255</alpha>
                  <red>0</red>
                  <green>0</green>
                  <blue>0</blue>
                </value>
              </parameter>
              <parameter>
                <parameterid>superline</parameterid>
                <name>Line Graphic</name>
              </parameter>
              <parameter>
                <parameterid>part2</parameterid>
                <name>Background Settings</name>
              </parameter>
              <parameter>
                <parameterid>xscale</parameterid>
                <name>Horizontal Size</name>
                <valuemin>0</valuemin>
                <valuemax>200</valuemax>
                <value>0</value>
              </parameter>
              <parameter>
                <parameterid>yscale</parameterid>
                <name>Vertical Size</name>
                <valuemin>0</valuemin>
                <valuemax>200</valuemax>
                <value>0</value>
              </parameter>
              <parameter>
                <parameterid>xoffset</parameterid>
                <name>Horizontal Offset</name>
                <valuemin>-100</valuemin>
                <valuemax>100</valuemax>
                <value>0</value>
              </parameter>
              <parameter>
                <parameterid>yoffset</parameterid>
                <name>Vertical Offset</name>
                <valuemin>-100</valuemin>
                <valuemax>100</valuemax>
                <value>0</value>
              </parameter>
              <parameter>
                <parameterid>backsoft</parameterid>
                <name>Back Soft</name>
                <valuemin>0</valuemin>
                <valuemax>100</valuemax>
                <value>0</value>
              </parameter>
              <parameter>
                <parameterid>backopacity</parameterid>
                <name>Back Opacity</name>
                <valuemin>0</valuemin>
                <valuemax>100</valuemax>
                <value>50</value>
              </parameter>
              <parameter>
                <parameterid>backcolor</parameterid>
                <name>Back Color</name>
                <value>
                  <alpha>255</alpha>
                  <red>255</red>
                  <green>255</green>
                  <blue>255</blue>
                </value>
              </parameter>
              <parameter>
                <parameterid>superback</parameterid>
                <name>Back Graphic</name>
              </parameter>
              <parameter>
                <parameterid>crop</parameterid>
                <name>Crop</name>
                <value>false</value>
              </parameter>
              <parameter>
                <parameterid>autokern</parameterid>
                <name>Auto Kerning</name>
                <value>true</value>
              </parameter>
            </effect>
            <sourcetrack>
              <mediatype>video</mediatype>
            </sourcetrack>
          </generatoritem>
          <generatoritem id="Outline Text1">
            <name>두 대를 설치를 했고요</name>
            <duration>2249.7599999999998</duration>
            <rate>
              <timebase>24</timebase>
              <ntsc>false</ntsc>
            </rate>
            <start>591.8399999999999</start>
            <end>634.3199999999999</end>
            <in>591.8399999999999</in>
            <out>634.3199999999999</out>
            <enabled>true</enabled>
            <anamorphic>false</anamorphic>
            <alphatype>black</alphatype>
            <masterclipid>Outline Text1</masterclipid>
            <effect>
              <name>Outline Text</name>
              <effectid>Outline Text</effectid>
              <effectcategory>Text</effectcategory>
              <effecttype>generator</effecttype>
              <mediatype>video</mediatype>
              <parameter>
                <parameterid>part1</parameterid>
                <name>Text Settings</name>
                <value/>
              </parameter>
              <parameter>
                <parameterid>str</parameterid>
                <name>Text</name>
                <value>두 대를 설치를 했고요</value>
              </parameter>
              <parameter>
                <parameterid>font</parameterid>
                <name>Font</name>
                <value>AppleSDGothicNeo-Regular</value>
              </parameter>
              <parameter>
                <parameterid>style</parameterid>
                <name>Style</name>
                <valuemin>1</valuemin>
                <valuemax>1</valuemax>
                <valuelist>
                  <valueentry>
                    <name>Regular</name>
                    <value>1</value>
                  </valueentry>
                </valuelist>
                <value>1</value>
              </parameter>
              <parameter>
                <parameterid>align</parameterid>
                <name>Alignment</name>
                <valuemin>1</valuemin>
                <valuemax>3</valuemax>
                <valuelist>
                  <valueentry>
                    <name>Left</name>
                    <value>1</value>
                  </valueentry>
                  <valueentry>
                    <name>Center</name>
                    <value>2</value>
                  </valueentry>
                  <valueentry>
                    <name>Right</name>
                    <value>3</value>
                  </valueentry>
                </valuelist>
                <value>2</value>
              </parameter>
              <parameter>
                <parameterid>size</parameterid>
                <name>Size</name>
                <valuemin>0</valuemin>
                <valuemax>200</valuemax>
                <value>24</value>
              </parameter>
              <parameter>
                <parameterid>track</parameterid>
                <name>Tracking</name>
                <valuemin>0</valuemin>
                <valuemax>100</valuemax>
                <value>1</value>
              </parameter>
              <parameter>
                <parameterid>lead</parameterid>
                <name>Leading</name>
                <valuemin>-100</valuemin>
                <valuemax>100</valuemax>
                <value>0</value>
              </parameter>
              <parameter>
                <parameterid>aspect</parameterid>
                <name>Aspect</name>
                <valuemin>0</valuemin>
                <valuemax>4</valuemax>
                <value>1</value>
              </parameter>
              <parameter>
                <parameterid>linewidth</parameterid>
                <name>Line Width</name>
                <valuemin>0</valuemin>
                <valuemax>200</valuemax>
                <value>2</value>
              </parameter>
              <parameter>
                <parameterid>linesoft</parameterid>
                <name>Line Softness</name>
                <valuemin>0</valuemin>
                <valuemax>100</valuemax>
                <value>5</value>
              </parameter>
              <parameter>
                <parameterid>textopacity</parameterid>
                <name>Text Opacity</name>
                <valuemin>0</valuemin>
                <valuemax>100</valuemax>
                <value>100</value>
              </parameter>
              <parameter>
                <parameterid>center</parameterid>
                <name>Center</name>
                <value>
                  <horiz>0</horiz>
                  <vert>0.4703703703703703</vert>
                </value>
              </parameter>
              <parameter>
                <parameterid>textcolor</parameterid>
                <name>Text Color</name>
                <value>
                  <alpha>255</alpha>
                  <red>255</red>
                  <green>255</green>
                  <blue>255</blue>
                </value>
              </parameter>
              <parameter>
                <parameterid>supertext</parameterid>
                <name>Text Graphic</name>
              </parameter>
              <parameter>
                <parameterid>linecolor</parameterid>
                <name>Line Color</name>
                <value>
                  <alpha>255</alpha>
                  <red>0</red>
                  <green>0</green>
                  <blue>0</blue>
                </value>
              </parameter>
              <parameter>
                <parameterid>superline</parameterid>
                <name>Line Graphic</name>
              </parameter>
              <parameter>
                <parameterid>part2</parameterid>
                <name>Background Settings</name>
              </parameter>
              <parameter>
                <parameterid>xscale</parameterid>
                <name>Horizontal Size</name>
                <valuemin>0</valuemin>
                <valuemax>200</valuemax>
                <value>0</value>
              </parameter>
              <parameter>
                <parameterid>yscale</parameterid>
                <name>Vertical Size</name>
                <valuemin>0</valuemin>
                <valuemax>200</valuemax>
                <value>0</value>
              </parameter>
              <parameter>
                <parameterid>xoffset</parameterid>
                <name>Horizontal Offset</name>
                <valuemin>-100</valuemin>
                <valuemax>100</valuemax>
                <value>0</value>
              </parameter>
              <parameter>
                <parameterid>yoffset</parameterid>
                <name>Vertical Offset</name>
                <valuemin>-100</valuemin>
                <valuemax>100</valuemax>
                <value>0</value>
              </parameter>
              <parameter>
                <parameterid>backsoft</parameterid>
                <name>Back Soft</name>
                <valuemin>0</valuemin>
                <valuemax>100</valuemax>
                <value>0</value>
              </parameter>
              <parameter>
                <parameterid>backopacity</parameterid>
                <name>Back Opacity</name>
                <valuemin>0</valuemin>
                <valuemax>100</valuemax>
                <value>50</value>
              </parameter>
              <parameter>
                <parameterid>backcolor</parameterid>
                <name>Back Color</name>
                <value>
                  <alpha>255</alpha>
                  <red>255</red>
                  <green>255</green>
                  <blue>255</blue>
                </value>
              </parameter>
              <parameter>
                <parameterid>superback</parameterid>
                <name>Back Graphic</name>
              </parameter>
              <parameter>
                <parameterid>crop</parameterid>
                <name>Crop</name>
                <value>false</value>
              </parameter>
              <parameter>
                <parameterid>autokern</parameterid>
                <name>Auto Kerning</name>
                <value>true</value>
              </parameter>
            </effect>
            <sourcetrack>
              <mediatype>video</mediatype>
            </sourcetrack>
          </generatoritem>
          <generatoritem id="Outline Text1">
            <name>흡연 부스는 말이 필요 없는 강력한 닥트로</name>
            <duration>2249.7599999999998</duration>
            <rate>
              <timebase>24</timebase>
              <ntsc>false</ntsc>
            </rate>
            <start>634.3199999999999</start>
            <end>711.1199999999998</end>
            <in>634.3199999999999</in>
            <out>711.1199999999998</out>
            <enabled>true</enabled>
            <anamorphic>false</anamorphic>
            <alphatype>black</alphatype>
            <masterclipid>Outline Text1</masterclipid>
            <effect>
              <name>Outline Text</name>
              <effectid>Outline Text</effectid>
              <effectcategory>Text</effectcategory>
              <effecttype>generator</effecttype>
              <mediatype>video</mediatype>
              <parameter>
                <parameterid>part1</parameterid>
                <name>Text Settings</name>
                <value/>
              </parameter>
              <parameter>
                <parameterid>str</parameterid>
                <name>Text</name>
                <value>흡연 부스는 말이 필요 없는 강력한 닥트로</value>
              </parameter>
              <parameter>
                <parameterid>font</parameterid>
                <name>Font</name>
                <value>AppleSDGothicNeo-Regular</value>
              </parameter>
              <parameter>
                <parameterid>style</parameterid>
                <name>Style</name>
                <valuemin>1</valuemin>
                <valuemax>1</valuemax>
                <valuelist>
                  <valueentry>
                    <name>Regular</name>
                    <value>1</value>
                  </valueentry>
                </valuelist>
                <value>1</value>
              </parameter>
              <parameter>
                <parameterid>align</parameterid>
                <name>Alignment</name>
                <valuemin>1</valuemin>
                <valuemax>3</valuemax>
                <valuelist>
                  <valueentry>
                    <name>Left</name>
                    <value>1</value>
                  </valueentry>
                  <valueentry>
                    <name>Center</name>
                    <value>2</value>
                  </valueentry>
                  <valueentry>
                    <name>Right</name>
                    <value>3</value>
                  </valueentry>
                </valuelist>
                <value>2</value>
              </parameter>
              <parameter>
                <parameterid>size</parameterid>
                <name>Size</name>
                <valuemin>0</valuemin>
                <valuemax>200</valuemax>
                <value>24</value>
              </parameter>
              <parameter>
                <parameterid>track</parameterid>
                <name>Tracking</name>
                <valuemin>0</valuemin>
                <valuemax>100</valuemax>
                <value>1</value>
              </parameter>
              <parameter>
                <parameterid>lead</parameterid>
                <name>Leading</name>
                <valuemin>-100</valuemin>
                <valuemax>100</valuemax>
                <value>0</value>
              </parameter>
              <parameter>
                <parameterid>aspect</parameterid>
                <name>Aspect</name>
                <valuemin>0</valuemin>
                <valuemax>4</valuemax>
                <value>1</value>
              </parameter>
              <parameter>
                <parameterid>linewidth</parameterid>
                <name>Line Width</name>
                <valuemin>0</valuemin>
                <valuemax>200</valuemax>
                <value>2</value>
              </parameter>
              <parameter>
                <parameterid>linesoft</parameterid>
                <name>Line Softness</name>
                <valuemin>0</valuemin>
                <valuemax>100</valuemax>
                <value>5</value>
              </parameter>
              <parameter>
                <parameterid>textopacity</parameterid>
                <name>Text Opacity</name>
                <valuemin>0</valuemin>
                <valuemax>100</valuemax>
                <value>100</value>
              </parameter>
              <parameter>
                <parameterid>center</parameterid>
                <name>Center</name>
                <value>
                  <horiz>0</horiz>
                  <vert>0.4703703703703703</vert>
                </value>
              </parameter>
              <parameter>
                <parameterid>textcolor</parameterid>
                <name>Text Color</name>
                <value>
                  <alpha>255</alpha>
                  <red>255</red>
                  <green>255</green>
                  <blue>255</blue>
                </value>
              </parameter>
              <parameter>
                <parameterid>supertext</parameterid>
                <name>Text Graphic</name>
              </parameter>
              <parameter>
                <parameterid>linecolor</parameterid>
                <name>Line Color</name>
                <value>
                  <alpha>255</alpha>
                  <red>0</red>
                  <green>0</green>
                  <blue>0</blue>
                </value>
              </parameter>
              <parameter>
                <parameterid>superline</parameterid>
                <name>Line Graphic</name>
              </parameter>
              <parameter>
                <parameterid>part2</parameterid>
                <name>Background Settings</name>
              </parameter>
              <parameter>
                <parameterid>xscale</parameterid>
                <name>Horizontal Size</name>
                <valuemin>0</valuemin>
                <valuemax>200</valuemax>
                <value>0</value>
              </parameter>
              <parameter>
                <parameterid>yscale</parameterid>
                <name>Vertical Size</name>
                <valuemin>0</valuemin>
                <valuemax>200</valuemax>
                <value>0</value>
              </parameter>
              <parameter>
                <parameterid>xoffset</parameterid>
                <name>Horizontal Offset</name>
                <valuemin>-100</valuemin>
                <valuemax>100</valuemax>
                <value>0</value>
              </parameter>
              <parameter>
                <parameterid>yoffset</parameterid>
                <name>Vertical Offset</name>
                <valuemin>-100</valuemin>
                <valuemax>100</valuemax>
                <value>0</value>
              </parameter>
              <parameter>
                <parameterid>backsoft</parameterid>
                <name>Back Soft</name>
                <valuemin>0</valuemin>
                <valuemax>100</valuemax>
                <value>0</value>
              </parameter>
              <parameter>
                <parameterid>backopacity</parameterid>
                <name>Back Opacity</name>
                <valuemin>0</valuemin>
                <valuemax>100</valuemax>
                <value>50</value>
              </parameter>
              <parameter>
                <parameterid>backcolor</parameterid>
                <name>Back Color</name>
                <value>
                  <alpha>255</alpha>
                  <red>255</red>
                  <green>255</green>
                  <blue>255</blue>
                </value>
              </parameter>
              <parameter>
                <parameterid>superback</parameterid>
                <name>Back Graphic</name>
              </parameter>
              <parameter>
                <parameterid>crop</parameterid>
                <name>Crop</name>
                <value>false</value>
              </parameter>
              <parameter>
                <parameterid>autokern</parameterid>
                <name>Auto Kerning</name>
                <value>true</value>
              </parameter>
            </effect>
            <sourcetrack>
              <mediatype>video</mediatype>
            </sourcetrack>
          </generatoritem>
          <generatoritem id="Outline Text1">
            <name>매장에 담배 냄새가 1도 날 수 없게 시공을 했습니다</name>
            <duration>2249.7599999999998</duration>
            <rate>
              <timebase>24</timebase>
              <ntsc>false</ntsc>
            </rate>
            <start>711.1199999999998</start>
            <end>797.7599999999998</end>
            <in>711.1199999999998</in>
            <out>797.7599999999998</out>
            <enabled>true</enabled>
            <anamorphic>false</anamorphic>
            <alphatype>black</alphatype>
            <masterclipid>Outline Text1</masterclipid>
            <effect>
              <name>Outline Text</name>
              <effectid>Outline Text</effectid>
              <effectcategory>Text</effectcategory>
              <effecttype>generator</effecttype>
              <mediatype>video</mediatype>
              <parameter>
                <parameterid>part1</parameterid>
                <name>Text Settings</name>
                <value/>
              </parameter>
              <parameter>
                <parameterid>str</parameterid>
                <name>Text</name>
                <value>매장에 담배 냄새가 1도 날 수 없게 시공을 했습니다</value>
              </parameter>
              <parameter>
                <parameterid>font</parameterid>
                <name>Font</name>
                <value>AppleSDGothicNeo-Regular</value>
              </parameter>
              <parameter>
                <parameterid>style</parameterid>
                <name>Style</name>
                <valuemin>1</valuemin>
                <valuemax>1</valuemax>
                <valuelist>
                  <valueentry>
                    <name>Regular</name>
                    <value>1</value>
                  </valueentry>
                </valuelist>
                <value>1</value>
              </parameter>
              <parameter>
                <parameterid>align</parameterid>
                <name>Alignment</name>
                <valuemin>1</valuemin>
                <valuemax>3</valuemax>
                <valuelist>
                  <valueentry>
                    <name>Left</name>
                    <value>1</value>
                  </valueentry>
                  <valueentry>
                    <name>Center</name>
                    <value>2</value>
                  </valueentry>
                  <valueentry>
                    <name>Right</name>
                    <value>3</value>
                  </valueentry>
                </valuelist>
                <value>2</value>
              </parameter>
              <parameter>
                <parameterid>size</parameterid>
                <name>Size</name>
                <valuemin>0</valuemin>
                <valuemax>200</valuemax>
                <value>24</value>
              </parameter>
              <parameter>
                <parameterid>track</parameterid>
                <name>Tracking</name>
                <valuemin>0</valuemin>
                <valuemax>100</valuemax>
                <value>1</value>
              </parameter>
              <parameter>
                <parameterid>lead</parameterid>
                <name>Leading</name>
                <valuemin>-100</valuemin>
                <valuemax>100</valuemax>
                <value>0</value>
              </parameter>
              <parameter>
                <parameterid>aspect</parameterid>
                <name>Aspect</name>
                <valuemin>0</valuemin>
                <valuemax>4</valuemax>
                <value>1</value>
              </parameter>
              <parameter>
                <parameterid>linewidth</parameterid>
                <name>Line Width</name>
                <valuemin>0</valuemin>
                <valuemax>200</valuemax>
                <value>2</value>
              </parameter>
              <parameter>
                <parameterid>linesoft</parameterid>
                <name>Line Softness</name>
                <valuemin>0</valuemin>
                <valuemax>100</valuemax>
                <value>5</value>
              </parameter>
              <parameter>
                <parameterid>textopacity</parameterid>
                <name>Text Opacity</name>
                <valuemin>0</valuemin>
                <valuemax>100</valuemax>
                <value>100</value>
              </parameter>
              <parameter>
                <parameterid>center</parameterid>
                <name>Center</name>
                <value>
                  <horiz>0</horiz>
                  <vert>0.4703703703703703</vert>
                </value>
              </parameter>
              <parameter>
                <parameterid>textcolor</parameterid>
                <name>Text Color</name>
                <value>
                  <alpha>255</alpha>
                  <red>255</red>
                  <green>255</green>
                  <blue>255</blue>
                </value>
              </parameter>
              <parameter>
                <parameterid>supertext</parameterid>
                <name>Text Graphic</name>
              </parameter>
              <parameter>
                <parameterid>linecolor</parameterid>
                <name>Line Color</name>
                <value>
                  <alpha>255</alpha>
                  <red>0</red>
                  <green>0</green>
                  <blue>0</blue>
                </value>
              </parameter>
              <parameter>
                <parameterid>superline</parameterid>
                <name>Line Graphic</name>
              </parameter>
              <parameter>
                <parameterid>part2</parameterid>
                <name>Background Settings</name>
              </parameter>
              <parameter>
                <parameterid>xscale</parameterid>
                <name>Horizontal Size</name>
                <valuemin>0</valuemin>
                <valuemax>200</valuemax>
                <value>0</value>
              </parameter>
              <parameter>
                <parameterid>yscale</parameterid>
                <name>Vertical Size</name>
                <valuemin>0</valuemin>
                <valuemax>200</valuemax>
                <value>0</value>
              </parameter>
              <parameter>
                <parameterid>xoffset</parameterid>
                <name>Horizontal Offset</name>
                <valuemin>-100</valuemin>
                <valuemax>100</valuemax>
                <value>0</value>
              </parameter>
              <parameter>
                <parameterid>yoffset</parameterid>
                <name>Vertical Offset</name>
                <valuemin>-100</valuemin>
                <valuemax>100</valuemax>
                <value>0</value>
              </parameter>
              <parameter>
                <parameterid>backsoft</parameterid>
                <name>Back Soft</name>
                <valuemin>0</valuemin>
                <valuemax>100</valuemax>
                <value>0</value>
              </parameter>
              <parameter>
                <parameterid>backopacity</parameterid>
                <name>Back Opacity</name>
                <valuemin>0</valuemin>
                <valuemax>100</valuemax>
                <value>50</value>
              </parameter>
              <parameter>
                <parameterid>backcolor</parameterid>
                <name>Back Color</name>
                <value>
                  <alpha>255</alpha>
                  <red>255</red>
                  <green>255</green>
                  <blue>255</blue>
                </value>
              </parameter>
              <parameter>
                <parameterid>superback</parameterid>
                <name>Back Graphic</name>
              </parameter>
              <parameter>
                <parameterid>crop</parameterid>
                <name>Crop</name>
                <value>false</value>
              </parameter>
              <parameter>
                <parameterid>autokern</parameterid>
                <name>Auto Kerning</name>
                <value>true</value>
              </parameter>
            </effect>
            <sourcetrack>
              <mediatype>video</mediatype>
            </sourcetrack>
          </generatoritem>
          <generatoritem id="Outline Text1">
            <name>시트는 볼라드로 시공을 했고요</name>
            <duration>2249.7599999999998</duration>
            <rate>
              <timebase>24</timebase>
              <ntsc>false</ntsc>
            </rate>
            <start>797.7599999999998</start>
            <end>851.7599999999998</end>
            <in>797.7599999999998</in>
            <out>851.7599999999998</out>
            <enabled>true</enabled>
            <anamorphic>false</anamorphic>
            <alphatype>black</alphatype>
            <masterclipid>Outline Text1</masterclipid>
            <effect>
              <name>Outline Text</name>
              <effectid>Outline Text</effectid>
              <effectcategory>Text</effectcategory>
              <effecttype>generator</effecttype>
              <mediatype>video</mediatype>
              <parameter>
                <parameterid>part1</parameterid>
                <name>Text Settings</name>
                <value/>
              </parameter>
              <parameter>
                <parameterid>str</parameterid>
                <name>Text</name>
                <value>시트는 볼라드로 시공을 했고요</value>
              </parameter>
              <parameter>
                <parameterid>font</parameterid>
                <name>Font</name>
                <value>AppleSDGothicNeo-Regular</value>
              </parameter>
              <parameter>
                <parameterid>style</parameterid>
                <name>Style</name>
                <valuemin>1</valuemin>
                <valuemax>1</valuemax>
                <valuelist>
                  <valueentry>
                    <name>Regular</name>
                    <value>1</value>
                  </valueentry>
                </valuelist>
                <value>1</value>
              </parameter>
              <parameter>
                <parameterid>align</parameterid>
                <name>Alignment</name>
                <valuemin>1</valuemin>
                <valuemax>3</valuemax>
                <valuelist>
                  <valueentry>
                    <name>Left</name>
                    <value>1</value>
                  </valueentry>
                  <valueentry>
                    <name>Center</name>
                    <value>2</value>
                  </valueentry>
                  <valueentry>
                    <name>Right</name>
                    <value>3</value>
                  </valueentry>
                </valuelist>
                <value>2</value>
              </parameter>
              <parameter>
                <parameterid>size</parameterid>
                <name>Size</name>
                <valuemin>0</valuemin>
                <valuemax>200</valuemax>
                <value>24</value>
              </parameter>
              <parameter>
                <parameterid>track</parameterid>
                <name>Tracking</name>
                <valuemin>0</valuemin>
                <valuemax>100</valuemax>
                <value>1</value>
              </parameter>
              <parameter>
                <parameterid>lead</parameterid>
                <name>Leading</name>
                <valuemin>-100</valuemin>
                <valuemax>100</valuemax>
                <value>0</value>
              </parameter>
              <parameter>
                <parameterid>aspect</parameterid>
                <name>Aspect</name>
                <valuemin>0</valuemin>
                <valuemax>4</valuemax>
                <value>1</value>
              </parameter>
              <parameter>
                <parameterid>linewidth</parameterid>
                <name>Line Width</name>
                <valuemin>0</valuemin>
                <valuemax>200</valuemax>
                <value>2</value>
              </parameter>
              <parameter>
                <parameterid>linesoft</parameterid>
                <name>Line Softness</name>
                <valuemin>0</valuemin>
                <valuemax>100</valuemax>
                <value>5</value>
              </parameter>
              <parameter>
                <parameterid>textopacity</parameterid>
                <name>Text Opacity</name>
                <valuemin>0</valuemin>
                <valuemax>100</valuemax>
                <value>100</value>
              </parameter>
              <parameter>
                <parameterid>center</parameterid>
                <name>Center</name>
                <value>
                  <horiz>0</horiz>
                  <vert>0.4703703703703703</vert>
                </value>
              </parameter>
              <parameter>
                <parameterid>textcolor</parameterid>
                <name>Text Color</name>
                <value>
                  <alpha>255</alpha>
                  <red>255</red>
                  <green>255</green>
                  <blue>255</blue>
                </value>
              </parameter>
              <parameter>
                <parameterid>supertext</parameterid>
                <name>Text Graphic</name>
              </parameter>
              <parameter>
                <parameterid>linecolor</parameterid>
                <name>Line Color</name>
                <value>
                  <alpha>255</alpha>
                  <red>0</red>
                  <green>0</green>
                  <blue>0</blue>
                </value>
              </parameter>
              <parameter>
                <parameterid>superline</parameterid>
                <name>Line Graphic</name>
              </parameter>
              <parameter>
                <parameterid>part2</parameterid>
                <name>Background Settings</name>
              </parameter>
              <parameter>
                <parameterid>xscale</parameterid>
                <name>Horizontal Size</name>
                <valuemin>0</valuemin>
                <valuemax>200</valuemax>
                <value>0</value>
              </parameter>
              <parameter>
                <parameterid>yscale</parameterid>
                <name>Vertical Size</name>
                <valuemin>0</valuemin>
                <valuemax>200</valuemax>
                <value>0</value>
              </parameter>
              <parameter>
                <parameterid>xoffset</parameterid>
                <name>Horizontal Offset</name>
                <valuemin>-100</valuemin>
                <valuemax>100</valuemax>
                <value>0</value>
              </parameter>
              <parameter>
                <parameterid>yoffset</parameterid>
                <name>Vertical Offset</name>
                <valuemin>-100</valuemin>
                <valuemax>100</valuemax>
                <value>0</value>
              </parameter>
              <parameter>
                <parameterid>backsoft</parameterid>
                <name>Back Soft</name>
                <valuemin>0</valuemin>
                <valuemax>100</valuemax>
                <value>0</value>
              </parameter>
              <parameter>
                <parameterid>backopacity</parameterid>
                <name>Back Opacity</name>
                <valuemin>0</valuemin>
                <valuemax>100</valuemax>
                <value>50</value>
              </parameter>
              <parameter>
                <parameterid>backcolor</parameterid>
                <name>Back Color</name>
                <value>
                  <alpha>255</alpha>
                  <red>255</red>
                  <green>255</green>
                  <blue>255</blue>
                </value>
              </parameter>
              <parameter>
                <parameterid>superback</parameterid>
                <name>Back Graphic</name>
              </parameter>
              <parameter>
                <parameterid>crop</parameterid>
                <name>Crop</name>
                <value>false</value>
              </parameter>
              <parameter>
                <parameterid>autokern</parameterid>
                <name>Auto Kerning</name>
                <value>true</value>
              </parameter>
            </effect>
            <sourcetrack>
              <mediatype>video</mediatype>
            </sourcetrack>
          </generatoritem>
          <generatoritem id="Outline Text1">
            <name>레자 시트로 시공하면 담배빵이 생기기 때문입니다</name>
            <duration>2249.7599999999998</duration>
            <rate>
              <timebase>24</timebase>
              <ntsc>false</ntsc>
            </rate>
            <start>851.7599999999998</start>
            <end>937.6799999999996</end>
            <in>851.7599999999998</in>
            <out>937.6799999999996</out>
            <enabled>true</enabled>
            <anamorphic>false</anamorphic>
            <alphatype>black</alphatype>
            <masterclipid>Outline Text1</masterclipid>
            <effect>
              <name>Outline Text</name>
              <effectid>Outline Text</effectid>
              <effectcategory>Text</effectcategory>
              <effecttype>generator</effecttype>
              <mediatype>video</mediatype>
              <parameter>
                <parameterid>part1</parameterid>
                <name>Text Settings</name>
                <value/>
              </parameter>
              <parameter>
                <parameterid>str</parameterid>
                <name>Text</name>
                <value>레자 시트로 시공하면 담배빵이 생기기 때문입니다</value>
              </parameter>
              <parameter>
                <parameterid>font</parameterid>
                <name>Font</name>
                <value>AppleSDGothicNeo-Regular</value>
              </parameter>
              <parameter>
                <parameterid>style</parameterid>
                <name>Style</name>
                <valuemin>1</valuemin>
                <valuemax>1</valuemax>
                <valuelist>
                  <valueentry>
                    <name>Regular</name>
                    <value>1</value>
                  </valueentry>
                </valuelist>
                <value>1</value>
              </parameter>
              <parameter>
                <parameterid>align</parameterid>
                <name>Alignment</name>
                <valuemin>1</valuemin>
                <valuemax>3</valuemax>
                <valuelist>
                  <valueentry>
                    <name>Left</name>
                    <value>1</value>
                  </valueentry>
                  <valueentry>
                    <name>Center</name>
                    <value>2</value>
                  </valueentry>
                  <valueentry>
                    <name>Right</name>
                    <value>3</value>
                  </valueentry>
                </valuelist>
                <value>2</value>
              </parameter>
              <parameter>
                <parameterid>size</parameterid>
                <name>Size</name>
                <valuemin>0</valuemin>
                <valuemax>200</valuemax>
                <value>24</value>
              </parameter>
              <parameter>
                <parameterid>track</parameterid>
                <name>Tracking</name>
                <valuemin>0</valuemin>
                <valuemax>100</valuemax>
                <value>1</value>
              </parameter>
              <parameter>
                <parameterid>lead</parameterid>
                <name>Leading</name>
                <valuemin>-100</valuemin>
                <valuemax>100</valuemax>
                <value>0</value>
              </parameter>
              <parameter>
                <parameterid>aspect</parameterid>
                <name>Aspect</name>
                <valuemin>0</valuemin>
                <valuemax>4</valuemax>
                <value>1</value>
              </parameter>
              <parameter>
                <parameterid>linewidth</parameterid>
                <name>Line Width</name>
                <valuemin>0</valuemin>
                <valuemax>200</valuemax>
                <value>2</value>
              </parameter>
              <parameter>
                <parameterid>linesoft</parameterid>
                <name>Line Softness</name>
                <valuemin>0</valuemin>
                <valuemax>100</valuemax>
                <value>5</value>
              </parameter>
              <parameter>
                <parameterid>textopacity</parameterid>
                <name>Text Opacity</name>
                <valuemin>0</valuemin>
                <valuemax>100</valuemax>
                <value>100</value>
              </parameter>
              <parameter>
                <parameterid>center</parameterid>
                <name>Center</name>
                <value>
                  <horiz>0</horiz>
                  <vert>0.4703703703703703</vert>
                </value>
              </parameter>
              <parameter>
                <parameterid>textcolor</parameterid>
                <name>Text Color</name>
                <value>
                  <alpha>255</alpha>
                  <red>255</red>
                  <green>255</green>
                  <blue>255</blue>
                </value>
              </parameter>
              <parameter>
                <parameterid>supertext</parameterid>
                <name>Text Graphic</name>
              </parameter>
              <parameter>
                <parameterid>linecolor</parameterid>
                <name>Line Color</name>
                <value>
                  <alpha>255</alpha>
                  <red>0</red>
                  <green>0</green>
                  <blue>0</blue>
                </value>
              </parameter>
              <parameter>
                <parameterid>superline</parameterid>
                <name>Line Graphic</name>
              </parameter>
              <parameter>
                <parameterid>part2</parameterid>
                <name>Background Settings</name>
              </parameter>
              <parameter>
                <parameterid>xscale</parameterid>
                <name>Horizontal Size</name>
                <valuemin>0</valuemin>
                <valuemax>200</valuemax>
                <value>0</value>
              </parameter>
              <parameter>
                <parameterid>yscale</parameterid>
                <name>Vertical Size</name>
                <valuemin>0</valuemin>
                <valuemax>200</valuemax>
                <value>0</value>
              </parameter>
              <parameter>
                <parameterid>xoffset</parameterid>
                <name>Horizontal Offset</name>
                <valuemin>-100</valuemin>
                <valuemax>100</valuemax>
                <value>0</value>
              </parameter>
              <parameter>
                <parameterid>yoffset</parameterid>
                <name>Vertical Offset</name>
                <valuemin>-100</valuemin>
                <valuemax>100</valuemax>
                <value>0</value>
              </parameter>
              <parameter>
                <parameterid>backsoft</parameterid>
                <name>Back Soft</name>
                <valuemin>0</valuemin>
                <valuemax>100</valuemax>
                <value>0</value>
              </parameter>
              <parameter>
                <parameterid>backopacity</parameterid>
                <name>Back Opacity</name>
                <valuemin>0</valuemin>
                <valuemax>100</valuemax>
                <value>50</value>
              </parameter>
              <parameter>
                <parameterid>backcolor</parameterid>
                <name>Back Color</name>
                <value>
                  <alpha>255</alpha>
                  <red>255</red>
                  <green>255</green>
                  <blue>255</blue>
                </value>
              </parameter>
              <parameter>
                <parameterid>superback</parameterid>
                <name>Back Graphic</name>
              </parameter>
              <parameter>
                <parameterid>crop</parameterid>
                <name>Crop</name>
                <value>false</value>
              </parameter>
              <parameter>
                <parameterid>autokern</parameterid>
                <name>Auto Kerning</name>
                <value>true</value>
              </parameter>
            </effect>
            <sourcetrack>
              <mediatype>video</mediatype>
            </sourcetrack>
          </generatoritem>
          <generatoritem id="Outline Text1">
            <name>카운터랑 주방은 상판은 인조대리석으로 시공하고</name>
            <duration>2249.7599999999998</duration>
            <rate>
              <timebase>24</timebase>
              <ntsc>false</ntsc>
            </rate>
            <start>937.6799999999996</start>
            <end>1015.6799999999995</end>
            <in>937.6799999999996</in>
            <out>1015.6799999999995</out>
            <enabled>true</enabled>
            <anamorphic>false</anamorphic>
            <alphatype>black</alphatype>
            <masterclipid>Outline Text1</masterclipid>
            <effect>
              <name>Outline Text</name>
              <effectid>Outline Text</effectid>
              <effectcategory>Text</effectcategory>
              <effecttype>generator</effecttype>
              <mediatype>video</mediatype>
              <parameter>
                <parameterid>part1</parameterid>
                <name>Text Settings</name>
                <value/>
              </parameter>
              <parameter>
                <parameterid>str</parameterid>
                <name>Text</name>
                <value>카운터랑 주방은 상판은 인조대리석으로 시공하고</value>
              </parameter>
              <parameter>
                <parameterid>font</parameterid>
                <name>Font</name>
                <value>AppleSDGothicNeo-Regular</value>
              </parameter>
              <parameter>
                <parameterid>style</parameterid>
                <name>Style</name>
                <valuemin>1</valuemin>
                <valuemax>1</valuemax>
                <valuelist>
                  <valueentry>
                    <name>Regular</name>
                    <value>1</value>
                  </valueentry>
                </valuelist>
                <value>1</value>
              </parameter>
              <parameter>
                <parameterid>align</parameterid>
                <name>Alignment</name>
                <valuemin>1</valuemin>
                <valuemax>3</valuemax>
                <valuelist>
                  <valueentry>
                    <name>Left</name>
                    <value>1</value>
                  </valueentry>
                  <valueentry>
                    <name>Center</name>
                    <value>2</value>
                  </valueentry>
                  <valueentry>
                    <name>Right</name>
                    <value>3</value>
                  </valueentry>
                </valuelist>
                <value>2</value>
              </parameter>
              <parameter>
                <parameterid>size</parameterid>
                <name>Size</name>
                <valuemin>0</valuemin>
                <valuemax>200</valuemax>
                <value>24</value>
              </parameter>
              <parameter>
                <parameterid>track</parameterid>
                <name>Tracking</name>
                <valuemin>0</valuemin>
                <valuemax>100</valuemax>
                <value>1</value>
              </parameter>
              <parameter>
                <parameterid>lead</parameterid>
                <name>Leading</name>
                <valuemin>-100</valuemin>
                <valuemax>100</valuemax>
                <value>0</value>
              </parameter>
              <parameter>
                <parameterid>aspect</parameterid>
                <name>Aspect</name>
                <valuemin>0</valuemin>
                <valuemax>4</valuemax>
                <value>1</value>
              </parameter>
              <parameter>
                <parameterid>linewidth</parameterid>
                <name>Line Width</name>
                <valuemin>0</valuemin>
                <valuemax>200</valuemax>
                <value>2</value>
              </parameter>
              <parameter>
                <parameterid>linesoft</parameterid>
                <name>Line Softness</name>
                <valuemin>0</valuemin>
                <valuemax>100</valuemax>
                <value>5</value>
              </parameter>
              <parameter>
                <parameterid>textopacity</parameterid>
                <name>Text Opacity</name>
                <valuemin>0</valuemin>
                <valuemax>100</valuemax>
                <value>100</value>
              </parameter>
              <parameter>
                <parameterid>center</parameterid>
                <name>Center</name>
                <value>
                  <horiz>0</horiz>
                  <vert>0.4703703703703703</vert>
                </value>
              </parameter>
              <parameter>
                <parameterid>textcolor</parameterid>
                <name>Text Color</name>
                <value>
                  <alpha>255</alpha>
                  <red>255</red>
                  <green>255</green>
                  <blue>255</blue>
                </value>
              </parameter>
              <parameter>
                <parameterid>supertext</parameterid>
                <name>Text Graphic</name>
              </parameter>
              <parameter>
                <parameterid>linecolor</parameterid>
                <name>Line Color</name>
                <value>
                  <alpha>255</alpha>
                  <red>0</red>
                  <green>0</green>
                  <blue>0</blue>
                </value>
              </parameter>
              <parameter>
                <parameterid>superline</parameterid>
                <name>Line Graphic</name>
              </parameter>
              <parameter>
                <parameterid>part2</parameterid>
                <name>Background Settings</name>
              </parameter>
              <parameter>
                <parameterid>xscale</parameterid>
                <name>Horizontal Size</name>
                <valuemin>0</valuemin>
                <valuemax>200</valuemax>
                <value>0</value>
              </parameter>
              <parameter>
                <parameterid>yscale</parameterid>
                <name>Vertical Size</name>
                <valuemin>0</valuemin>
                <valuemax>200</valuemax>
                <value>0</value>
              </parameter>
              <parameter>
                <parameterid>xoffset</parameterid>
                <name>Horizontal Offset</name>
                <valuemin>-100</valuemin>
                <valuemax>100</valuemax>
                <value>0</value>
              </parameter>
              <parameter>
                <parameterid>yoffset</parameterid>
                <name>Vertical Offset</name>
                <valuemin>-100</valuemin>
                <valuemax>100</valuemax>
                <value>0</value>
              </parameter>
              <parameter>
                <parameterid>backsoft</parameterid>
                <name>Back Soft</name>
                <valuemin>0</valuemin>
                <valuemax>100</valuemax>
                <value>0</value>
              </parameter>
              <parameter>
                <parameterid>backopacity</parameterid>
                <name>Back Opacity</name>
                <valuemin>0</valuemin>
                <valuemax>100</valuemax>
                <value>50</value>
              </parameter>
              <parameter>
                <parameterid>backcolor</parameterid>
                <name>Back Color</name>
                <value>
                  <alpha>255</alpha>
                  <red>255</red>
                  <green>255</green>
                  <blue>255</blue>
                </value>
              </parameter>
              <parameter>
                <parameterid>superback</parameterid>
                <name>Back Graphic</name>
              </parameter>
              <parameter>
                <parameterid>crop</parameterid>
                <name>Crop</name>
                <value>false</value>
              </parameter>
              <parameter>
                <parameterid>autokern</parameterid>
                <name>Auto Kerning</name>
                <value>true</value>
              </parameter>
            </effect>
            <sourcetrack>
              <mediatype>video</mediatype>
            </sourcetrack>
          </generatoritem>
          <generatoritem id="Outline Text1">
            <name>하이그로시로 물을 먹어도 전혀 상관없게끔 했습니다</name>
            <duration>2249.7599999999998</duration>
            <rate>
              <timebase>24</timebase>
              <ntsc>false</ntsc>
            </rate>
            <start>1015.6799999999995</start>
            <end>1099.1999999999994</end>
            <in>1015.6799999999995</in>
            <out>1099.1999999999994</out>
            <enabled>true</enabled>
            <anamorphic>false</anamorphic>
            <alphatype>black</alphatype>
            <masterclipid>Outline Text1</masterclipid>
            <effect>
              <name>Outline Text</name>
              <effectid>Outline Text</effectid>
              <effectcategory>Text</effectcategory>
              <effecttype>generator</effecttype>
              <mediatype>video</mediatype>
              <parameter>
                <parameterid>part1</parameterid>
                <name>Text Settings</name>
                <value/>
              </parameter>
              <parameter>
                <parameterid>str</parameterid>
                <name>Text</name>
                <value>하이그로시로 물을 먹어도 전혀 상관없게끔 했습니다</value>
              </parameter>
              <parameter>
                <parameterid>font</parameterid>
                <name>Font</name>
                <value>AppleSDGothicNeo-Regular</value>
              </parameter>
              <parameter>
                <parameterid>style</parameterid>
                <name>Style</name>
                <valuemin>1</valuemin>
                <valuemax>1</valuemax>
                <valuelist>
                  <valueentry>
                    <name>Regular</name>
                    <value>1</value>
                  </valueentry>
                </valuelist>
                <value>1</value>
              </parameter>
              <parameter>
                <parameterid>align</parameterid>
                <name>Alignment</name>
                <valuemin>1</valuemin>
                <valuemax>3</valuemax>
                <valuelist>
                  <valueentry>
                    <name>Left</name>
                    <value>1</value>
                  </valueentry>
                  <valueentry>
                    <name>Center</name>
                    <value>2</value>
                  </valueentry>
                  <valueentry>
                    <name>Right</name>
                    <value>3</value>
                  </valueentry>
                </valuelist>
                <value>2</value>
              </parameter>
              <parameter>
                <parameterid>size</parameterid>
                <name>Size</name>
                <valuemin>0</valuemin>
                <valuemax>200</valuemax>
                <value>24</value>
              </parameter>
              <parameter>
                <parameterid>track</parameterid>
                <name>Tracking</name>
                <valuemin>0</valuemin>
                <valuemax>100</valuemax>
                <value>1</value>
              </parameter>
              <parameter>
                <parameterid>lead</parameterid>
                <name>Leading</name>
                <valuemin>-100</valuemin>
                <valuemax>100</valuemax>
                <value>0</value>
              </parameter>
              <parameter>
                <parameterid>aspect</parameterid>
                <name>Aspect</name>
                <valuemin>0</valuemin>
                <valuemax>4</valuemax>
                <value>1</value>
              </parameter>
              <parameter>
                <parameterid>linewidth</parameterid>
                <name>Line Width</name>
                <valuemin>0</valuemin>
                <valuemax>200</valuemax>
                <value>2</value>
              </parameter>
              <parameter>
                <parameterid>linesoft</parameterid>
                <name>Line Softness</name>
                <valuemin>0</valuemin>
                <valuemax>100</valuemax>
                <value>5</value>
              </parameter>
              <parameter>
                <parameterid>textopacity</parameterid>
                <name>Text Opacity</name>
                <valuemin>0</valuemin>
                <valuemax>100</valuemax>
                <value>100</value>
              </parameter>
              <parameter>
                <parameterid>center</parameterid>
                <name>Center</name>
                <value>
                  <horiz>0</horiz>
                  <vert>0.4703703703703703</vert>
                </value>
              </parameter>
              <parameter>
                <parameterid>textcolor</parameterid>
                <name>Text Color</name>
                <value>
                  <alpha>255</alpha>
                  <red>255</red>
                  <green>255</green>
                  <blue>255</blue>
                </value>
              </parameter>
              <parameter>
                <parameterid>supertext</parameterid>
                <name>Text Graphic</name>
              </parameter>
              <parameter>
                <parameterid>linecolor</parameterid>
                <name>Line Color</name>
                <value>
                  <alpha>255</alpha>
                  <red>0</red>
                  <green>0</green>
                  <blue>0</blue>
                </value>
              </parameter>
              <parameter>
                <parameterid>superline</parameterid>
                <name>Line Graphic</name>
              </parameter>
              <parameter>
                <parameterid>part2</parameterid>
                <name>Background Settings</name>
              </parameter>
              <parameter>
                <parameterid>xscale</parameterid>
                <name>Horizontal Size</name>
                <valuemin>0</valuemin>
                <valuemax>200</valuemax>
                <value>0</value>
              </parameter>
              <parameter>
                <parameterid>yscale</parameterid>
                <name>Vertical Size</name>
                <valuemin>0</valuemin>
                <valuemax>200</valuemax>
                <value>0</value>
              </parameter>
              <parameter>
                <parameterid>xoffset</parameterid>
                <name>Horizontal Offset</name>
                <valuemin>-100</valuemin>
                <valuemax>100</valuemax>
                <value>0</value>
              </parameter>
              <parameter>
                <parameterid>yoffset</parameterid>
                <name>Vertical Offset</name>
                <valuemin>-100</valuemin>
                <valuemax>100</valuemax>
                <value>0</value>
              </parameter>
              <parameter>
                <parameterid>backsoft</parameterid>
                <name>Back Soft</name>
                <valuemin>0</valuemin>
                <valuemax>100</valuemax>
                <value>0</value>
              </parameter>
              <parameter>
                <parameterid>backopacity</parameterid>
                <name>Back Opacity</name>
                <valuemin>0</valuemin>
                <valuemax>100</valuemax>
                <value>50</value>
              </parameter>
              <parameter>
                <parameterid>backcolor</parameterid>
                <name>Back Color</name>
                <value>
                  <alpha>255</alpha>
                  <red>255</red>
                  <green>255</green>
                  <blue>255</blue>
                </value>
              </parameter>
              <parameter>
                <parameterid>superback</parameterid>
                <name>Back Graphic</name>
              </parameter>
              <parameter>
                <parameterid>crop</parameterid>
                <name>Crop</name>
                <value>false</value>
              </parameter>
              <parameter>
                <parameterid>autokern</parameterid>
                <name>Auto Kerning</name>
                <value>true</value>
              </parameter>
            </effect>
            <sourcetrack>
              <mediatype>video</mediatype>
            </sourcetrack>
          </generatoritem>
          <generatoritem id="Outline Text1">
            <name>몇몇 PC방들은 MDF 합판 같은 걸로 시공을 하다 보니까</name>
            <duration>2249.7599999999998</duration>
            <rate>
              <timebase>24</timebase>
              <ntsc>false</ntsc>
            </rate>
            <start>1099.1999999999994</start>
            <end>1191.1199999999994</end>
            <in>1099.1999999999994</in>
            <out>1191.1199999999994</out>
            <enabled>true</enabled>
            <anamorphic>false</anamorphic>
            <alphatype>black</alphatype>
            <masterclipid>Outline Text1</masterclipid>
            <effect>
              <name>Outline Text</name>
              <effectid>Outline Text</effectid>
              <effectcategory>Text</effectcategory>
              <effecttype>generator</effecttype>
              <mediatype>video</mediatype>
              <parameter>
                <parameterid>part1</parameterid>
                <name>Text Settings</name>
                <value/>
              </parameter>
              <parameter>
                <parameterid>str</parameterid>
                <name>Text</name>
                <value>몇몇 PC방들은 MDF 합판 같은 걸로 시공을 하다 보니까</value>
              </parameter>
              <parameter>
                <parameterid>font</parameterid>
                <name>Font</name>
                <value>AppleSDGothicNeo-Regular</value>
              </parameter>
              <parameter>
                <parameterid>style</parameterid>
                <name>Style</name>
                <valuemin>1</valuemin>
                <valuemax>1</valuemax>
                <valuelist>
                  <valueentry>
                    <name>Regular</name>
                    <value>1</value>
                  </valueentry>
                </valuelist>
                <value>1</value>
              </parameter>
              <parameter>
                <parameterid>align</parameterid>
                <name>Alignment</name>
                <valuemin>1</valuemin>
                <valuemax>3</valuemax>
                <valuelist>
                  <valueentry>
                    <name>Left</name>
                    <value>1</value>
                  </valueentry>
                  <valueentry>
                    <name>Center</name>
                    <value>2</value>
                  </valueentry>
                  <valueentry>
                    <name>Right</name>
                    <value>3</value>
                  </valueentry>
                </valuelist>
                <value>2</value>
              </parameter>
              <parameter>
                <parameterid>size</parameterid>
                <name>Size</name>
                <valuemin>0</valuemin>
                <valuemax>200</valuemax>
                <value>24</value>
              </parameter>
              <parameter>
                <parameterid>track</parameterid>
                <name>Tracking</name>
                <valuemin>0</valuemin>
                <valuemax>100</valuemax>
                <value>1</value>
              </parameter>
              <parameter>
                <parameterid>lead</parameterid>
                <name>Leading</name>
                <valuemin>-100</valuemin>
                <valuemax>100</valuemax>
                <value>0</value>
              </parameter>
              <parameter>
                <parameterid>aspect</parameterid>
                <name>Aspect</name>
                <valuemin>0</valuemin>
                <valuemax>4</valuemax>
                <value>1</value>
              </parameter>
              <parameter>
                <parameterid>linewidth</parameterid>
                <name>Line Width</name>
                <valuemin>0</valuemin>
                <valuemax>200</valuemax>
                <value>2</value>
              </parameter>
              <parameter>
                <parameterid>linesoft</parameterid>
                <name>Line Softness</name>
                <valuemin>0</valuemin>
                <valuemax>100</valuemax>
                <value>5</value>
              </parameter>
              <parameter>
                <parameterid>textopacity</parameterid>
                <name>Text Opacity</name>
                <valuemin>0</valuemin>
                <valuemax>100</valuemax>
                <value>100</value>
              </parameter>
              <parameter>
                <parameterid>center</parameterid>
                <name>Center</name>
                <value>
                  <horiz>0</horiz>
                  <vert>0.4703703703703703</vert>
                </value>
              </parameter>
              <parameter>
                <parameterid>textcolor</parameterid>
                <name>Text Color</name>
                <value>
                  <alpha>255</alpha>
                  <red>255</red>
                  <green>255</green>
                  <blue>255</blue>
                </value>
              </parameter>
              <parameter>
                <parameterid>supertext</parameterid>
                <name>Text Graphic</name>
              </parameter>
              <parameter>
                <parameterid>linecolor</parameterid>
                <name>Line Color</name>
                <value>
                  <alpha>255</alpha>
                  <red>0</red>
                  <green>0</green>
                  <blue>0</blue>
                </value>
              </parameter>
              <parameter>
                <parameterid>superline</parameterid>
                <name>Line Graphic</name>
              </parameter>
              <parameter>
                <parameterid>part2</parameterid>
                <name>Background Settings</name>
              </parameter>
              <parameter>
                <parameterid>xscale</parameterid>
                <name>Horizontal Size</name>
                <valuemin>0</valuemin>
                <valuemax>200</valuemax>
                <value>0</value>
              </parameter>
              <parameter>
                <parameterid>yscale</parameterid>
                <name>Vertical Size</name>
                <valuemin>0</valuemin>
                <valuemax>200</valuemax>
                <value>0</value>
              </parameter>
              <parameter>
                <parameterid>xoffset</parameterid>
                <name>Horizontal Offset</name>
                <valuemin>-100</valuemin>
                <valuemax>100</valuemax>
                <value>0</value>
              </parameter>
              <parameter>
                <parameterid>yoffset</parameterid>
                <name>Vertical Offset</name>
                <valuemin>-100</valuemin>
                <valuemax>100</valuemax>
                <value>0</value>
              </parameter>
              <parameter>
                <parameterid>backsoft</parameterid>
                <name>Back Soft</name>
                <valuemin>0</valuemin>
                <valuemax>100</valuemax>
                <value>0</value>
              </parameter>
              <parameter>
                <parameterid>backopacity</parameterid>
                <name>Back Opacity</name>
                <valuemin>0</valuemin>
                <valuemax>100</valuemax>
                <value>50</value>
              </parameter>
              <parameter>
                <parameterid>backcolor</parameterid>
                <name>Back Color</name>
                <value>
                  <alpha>255</alpha>
                  <red>255</red>
                  <green>255</green>
                  <blue>255</blue>
                </value>
              </parameter>
              <parameter>
                <parameterid>superback</parameterid>
                <name>Back Graphic</name>
              </parameter>
              <parameter>
                <parameterid>crop</parameterid>
                <name>Crop</name>
                <value>false</value>
              </parameter>
              <parameter>
                <parameterid>autokern</parameterid>
                <name>Auto Kerning</name>
                <value>true</value>
              </parameter>
            </effect>
            <sourcetrack>
              <mediatype>video</mediatype>
            </sourcetrack>
          </generatoritem>
          <generatoritem id="Outline Text1">
            <name>내구성이 약해서 쉽게 고장이 나고</name>
            <duration>2249.7599999999998</duration>
            <rate>
              <timebase>24</timebase>
              <ntsc>false</ntsc>
            </rate>
            <start>1191.1199999999994</start>
            <end>1251.1199999999994</end>
            <in>1191.1199999999994</in>
            <out>1251.1199999999994</out>
            <enabled>true</enabled>
            <anamorphic>false</anamorphic>
            <alphatype>black</alphatype>
            <masterclipid>Outline Text1</masterclipid>
            <effect>
              <name>Outline Text</name>
              <effectid>Outline Text</effectid>
              <effectcategory>Text</effectcategory>
              <effecttype>generator</effecttype>
              <mediatype>video</mediatype>
              <parameter>
                <parameterid>part1</parameterid>
                <name>Text Settings</name>
                <value/>
              </parameter>
              <parameter>
                <parameterid>str</parameterid>
                <name>Text</name>
                <value>내구성이 약해서 쉽게 고장이 나고</value>
              </parameter>
              <parameter>
                <parameterid>font</parameterid>
                <name>Font</name>
                <value>AppleSDGothicNeo-Regular</value>
              </parameter>
              <parameter>
                <parameterid>style</parameterid>
                <name>Style</name>
                <valuemin>1</valuemin>
                <valuemax>1</valuemax>
                <valuelist>
                  <valueentry>
                    <name>Regular</name>
                    <value>1</value>
                  </valueentry>
                </valuelist>
                <value>1</value>
              </parameter>
              <parameter>
                <parameterid>align</parameterid>
                <name>Alignment</name>
                <valuemin>1</valuemin>
                <valuemax>3</valuemax>
                <valuelist>
                  <valueentry>
                    <name>Left</name>
                    <value>1</value>
                  </valueentry>
                  <valueentry>
                    <name>Center</name>
                    <value>2</value>
                  </valueentry>
                  <valueentry>
                    <name>Right</name>
                    <value>3</value>
                  </valueentry>
                </valuelist>
                <value>2</value>
              </parameter>
              <parameter>
                <parameterid>size</parameterid>
                <name>Size</name>
                <valuemin>0</valuemin>
                <valuemax>200</valuemax>
                <value>24</value>
              </parameter>
              <parameter>
                <parameterid>track</parameterid>
                <name>Tracking</name>
                <valuemin>0</valuemin>
                <valuemax>100</valuemax>
                <value>1</value>
              </parameter>
              <parameter>
                <parameterid>lead</parameterid>
                <name>Leading</name>
                <valuemin>-100</valuemin>
                <valuemax>100</valuemax>
                <value>0</value>
              </parameter>
              <parameter>
                <parameterid>aspect</parameterid>
                <name>Aspect</name>
                <valuemin>0</valuemin>
                <valuemax>4</valuemax>
                <value>1</value>
              </parameter>
              <parameter>
                <parameterid>linewidth</parameterid>
                <name>Line Width</name>
                <valuemin>0</valuemin>
                <valuemax>200</valuemax>
                <value>2</value>
              </parameter>
              <parameter>
                <parameterid>linesoft</parameterid>
                <name>Line Softness</name>
                <valuemin>0</valuemin>
                <valuemax>100</valuemax>
                <value>5</value>
              </parameter>
              <parameter>
                <parameterid>textopacity</parameterid>
                <name>Text Opacity</name>
                <valuemin>0</valuemin>
                <valuemax>100</valuemax>
                <value>100</value>
              </parameter>
              <parameter>
                <parameterid>center</parameterid>
                <name>Center</name>
                <value>
                  <horiz>0</horiz>
                  <vert>0.4703703703703703</vert>
                </value>
              </parameter>
              <parameter>
                <parameterid>textcolor</parameterid>
                <name>Text Color</name>
                <value>
                  <alpha>255</alpha>
                  <red>255</red>
                  <green>255</green>
                  <blue>255</blue>
                </value>
              </parameter>
              <parameter>
                <parameterid>supertext</parameterid>
                <name>Text Graphic</name>
              </parameter>
              <parameter>
                <parameterid>linecolor</parameterid>
                <name>Line Color</name>
                <value>
                  <alpha>255</alpha>
                  <red>0</red>
                  <green>0</green>
                  <blue>0</blue>
                </value>
              </parameter>
              <parameter>
                <parameterid>superline</parameterid>
                <name>Line Graphic</name>
              </parameter>
              <parameter>
                <parameterid>part2</parameterid>
                <name>Background Settings</name>
              </parameter>
              <parameter>
                <parameterid>xscale</parameterid>
                <name>Horizontal Size</name>
                <valuemin>0</valuemin>
                <valuemax>200</valuemax>
                <value>0</value>
              </parameter>
              <parameter>
                <parameterid>yscale</parameterid>
                <name>Vertical Size</name>
                <valuemin>0</valuemin>
                <valuemax>200</valuemax>
                <value>0</value>
              </parameter>
              <parameter>
                <parameterid>xoffset</parameterid>
                <name>Horizontal Offset</name>
                <valuemin>-100</valuemin>
                <valuemax>100</valuemax>
                <value>0</value>
              </parameter>
              <parameter>
                <parameterid>yoffset</parameterid>
                <name>Vertical Offset</name>
                <valuemin>-100</valuemin>
                <valuemax>100</valuemax>
                <value>0</value>
              </parameter>
              <parameter>
                <parameterid>backsoft</parameterid>
                <name>Back Soft</name>
                <valuemin>0</valuemin>
                <valuemax>100</valuemax>
                <value>0</value>
              </parameter>
              <parameter>
                <parameterid>backopacity</parameterid>
                <name>Back Opacity</name>
                <valuemin>0</valuemin>
                <valuemax>100</valuemax>
                <value>50</value>
              </parameter>
              <parameter>
                <parameterid>backcolor</parameterid>
                <name>Back Color</name>
                <value>
                  <alpha>255</alpha>
                  <red>255</red>
                  <green>255</green>
                  <blue>255</blue>
                </value>
              </parameter>
              <parameter>
                <parameterid>superback</parameterid>
                <name>Back Graphic</name>
              </parameter>
              <parameter>
                <parameterid>crop</parameterid>
                <name>Crop</name>
                <value>false</value>
              </parameter>
              <parameter>
                <parameterid>autokern</parameterid>
                <name>Auto Kerning</name>
                <value>true</value>
              </parameter>
            </effect>
            <sourcetrack>
              <mediatype>video</mediatype>
            </sourcetrack>
          </generatoritem>
          <generatoritem id="Outline Text1">
            <name>물을 먹으면 불어버리곤 했는데</name>
            <duration>2249.7599999999998</duration>
            <rate>
              <timebase>24</timebase>
              <ntsc>false</ntsc>
            </rate>
            <start>1251.1199999999994</start>
            <end>1306.3199999999993</end>
            <in>1251.1199999999994</in>
            <out>1306.3199999999993</out>
            <enabled>true</enabled>
            <anamorphic>false</anamorphic>
            <alphatype>black</alphatype>
            <masterclipid>Outline Text1</masterclipid>
            <effect>
              <name>Outline Text</name>
              <effectid>Outline Text</effectid>
              <effectcategory>Text</effectcategory>
              <effecttype>generator</effecttype>
              <mediatype>video</mediatype>
              <parameter>
                <parameterid>part1</parameterid>
                <name>Text Settings</name>
                <value/>
              </parameter>
              <parameter>
                <parameterid>str</parameterid>
                <name>Text</name>
                <value>물을 먹으면 불어버리곤 했는데</value>
              </parameter>
              <parameter>
                <parameterid>font</parameterid>
                <name>Font</name>
                <value>AppleSDGothicNeo-Regular</value>
              </parameter>
              <parameter>
                <parameterid>style</parameterid>
                <name>Style</name>
                <valuemin>1</valuemin>
                <valuemax>1</valuemax>
                <valuelist>
                  <valueentry>
                    <name>Regular</name>
                    <value>1</value>
                  </valueentry>
                </valuelist>
                <value>1</value>
              </parameter>
              <parameter>
                <parameterid>align</parameterid>
                <name>Alignment</name>
                <valuemin>1</valuemin>
                <valuemax>3</valuemax>
                <valuelist>
                  <valueentry>
                    <name>Left</name>
                    <value>1</value>
                  </valueentry>
                  <valueentry>
                    <name>Center</name>
                    <value>2</value>
                  </valueentry>
                  <valueentry>
                    <name>Right</name>
                    <value>3</value>
                  </valueentry>
                </valuelist>
                <value>2</value>
              </parameter>
              <parameter>
                <parameterid>size</parameterid>
                <name>Size</name>
                <valuemin>0</valuemin>
                <valuemax>200</valuemax>
                <value>24</value>
              </parameter>
              <parameter>
                <parameterid>track</parameterid>
                <name>Tracking</name>
                <valuemin>0</valuemin>
                <valuemax>100</valuemax>
                <value>1</value>
              </parameter>
              <parameter>
                <parameterid>lead</parameterid>
                <name>Leading</name>
                <valuemin>-100</valuemin>
                <valuemax>100</valuemax>
                <value>0</value>
              </parameter>
              <parameter>
                <parameterid>aspect</parameterid>
                <name>Aspect</name>
                <valuemin>0</valuemin>
                <valuemax>4</valuemax>
                <value>1</value>
              </parameter>
              <parameter>
                <parameterid>linewidth</parameterid>
                <name>Line Width</name>
                <valuemin>0</valuemin>
                <valuemax>200</valuemax>
                <value>2</value>
              </parameter>
              <parameter>
                <parameterid>linesoft</parameterid>
                <name>Line Softness</name>
                <valuemin>0</valuemin>
                <valuemax>100</valuemax>
                <value>5</value>
              </parameter>
              <parameter>
                <parameterid>textopacity</parameterid>
                <name>Text Opacity</name>
                <valuemin>0</valuemin>
                <valuemax>100</valuemax>
                <value>100</value>
              </parameter>
              <parameter>
                <parameterid>center</parameterid>
                <name>Center</name>
                <value>
                  <horiz>0</horiz>
                  <vert>0.4703703703703703</vert>
                </value>
              </parameter>
              <parameter>
                <parameterid>textcolor</parameterid>
                <name>Text Color</name>
                <value>
                  <alpha>255</alpha>
                  <red>255</red>
                  <green>255</green>
                  <blue>255</blue>
                </value>
              </parameter>
              <parameter>
                <parameterid>supertext</parameterid>
                <name>Text Graphic</name>
              </parameter>
              <parameter>
                <parameterid>linecolor</parameterid>
                <name>Line Color</name>
                <value>
                  <alpha>255</alpha>
                  <red>0</red>
                  <green>0</green>
                  <blue>0</blue>
                </value>
              </parameter>
              <parameter>
                <parameterid>superline</parameterid>
                <name>Line Graphic</name>
              </parameter>
              <parameter>
                <parameterid>part2</parameterid>
                <name>Background Settings</name>
              </parameter>
              <parameter>
                <parameterid>xscale</parameterid>
                <name>Horizontal Size</name>
                <valuemin>0</valuemin>
                <valuemax>200</valuemax>
                <value>0</value>
              </parameter>
              <parameter>
                <parameterid>yscale</parameterid>
                <name>Vertical Size</name>
                <valuemin>0</valuemin>
                <valuemax>200</valuemax>
                <value>0</value>
              </parameter>
              <parameter>
                <parameterid>xoffset</parameterid>
                <name>Horizontal Offset</name>
                <valuemin>-100</valuemin>
                <valuemax>100</valuemax>
                <value>0</value>
              </parameter>
              <parameter>
                <parameterid>yoffset</parameterid>
                <name>Vertical Offset</name>
                <valuemin>-100</valuemin>
                <valuemax>100</valuemax>
                <value>0</value>
              </parameter>
              <parameter>
                <parameterid>backsoft</parameterid>
                <name>Back Soft</name>
                <valuemin>0</valuemin>
                <valuemax>100</valuemax>
                <value>0</value>
              </parameter>
              <parameter>
                <parameterid>backopacity</parameterid>
                <name>Back Opacity</name>
                <valuemin>0</valuemin>
                <valuemax>100</valuemax>
                <value>50</value>
              </parameter>
              <parameter>
                <parameterid>backcolor</parameterid>
                <name>Back Color</name>
                <value>
                  <alpha>255</alpha>
                  <red>255</red>
                  <green>255</green>
                  <blue>255</blue>
                </value>
              </parameter>
              <parameter>
                <parameterid>superback</parameterid>
                <name>Back Graphic</name>
              </parameter>
              <parameter>
                <parameterid>crop</parameterid>
                <name>Crop</name>
                <value>false</value>
              </parameter>
              <parameter>
                <parameterid>autokern</parameterid>
                <name>Auto Kerning</name>
                <value>true</value>
              </parameter>
            </effect>
            <sourcetrack>
              <mediatype>video</mediatype>
            </sourcetrack>
          </generatoritem>
          <generatoritem id="Outline Text1">
            <name>인조대리석에 하이그로시로 시공을 하면</name>
            <duration>2249.7599999999998</duration>
            <rate>
              <timebase>24</timebase>
              <ntsc>false</ntsc>
            </rate>
            <start>1306.3199999999993</start>
            <end>1366.3199999999993</end>
            <in>1306.3199999999993</in>
            <out>1366.3199999999993</out>
            <enabled>true</enabled>
            <anamorphic>false</anamorphic>
            <alphatype>black</alphatype>
            <masterclipid>Outline Text1</masterclipid>
            <effect>
              <name>Outline Text</name>
              <effectid>Outline Text</effectid>
              <effectcategory>Text</effectcategory>
              <effecttype>generator</effecttype>
              <mediatype>video</mediatype>
              <parameter>
                <parameterid>part1</parameterid>
                <name>Text Settings</name>
                <value/>
              </parameter>
              <parameter>
                <parameterid>str</parameterid>
                <name>Text</name>
                <value>인조대리석에 하이그로시로 시공을 하면</value>
              </parameter>
              <parameter>
                <parameterid>font</parameterid>
                <name>Font</name>
                <value>AppleSDGothicNeo-Regular</value>
              </parameter>
              <parameter>
                <parameterid>style</parameterid>
                <name>Style</name>
                <valuemin>1</valuemin>
                <valuemax>1</valuemax>
                <valuelist>
                  <valueentry>
                    <name>Regular</name>
                    <value>1</value>
                  </valueentry>
                </valuelist>
                <value>1</value>
              </parameter>
              <parameter>
                <parameterid>align</parameterid>
                <name>Alignment</name>
                <valuemin>1</valuemin>
                <valuemax>3</valuemax>
                <valuelist>
                  <valueentry>
                    <name>Left</name>
                    <value>1</value>
                  </valueentry>
                  <valueentry>
                    <name>Center</name>
                    <value>2</value>
                  </valueentry>
                  <valueentry>
                    <name>Right</name>
                    <value>3</value>
                  </valueentry>
                </valuelist>
                <value>2</value>
              </parameter>
              <parameter>
                <parameterid>size</parameterid>
                <name>Size</name>
                <valuemin>0</valuemin>
                <valuemax>200</valuemax>
                <value>24</value>
              </parameter>
              <parameter>
                <parameterid>track</parameterid>
                <name>Tracking</name>
                <valuemin>0</valuemin>
                <valuemax>100</valuemax>
                <value>1</value>
              </parameter>
              <parameter>
                <parameterid>lead</parameterid>
                <name>Leading</name>
                <valuemin>-100</valuemin>
                <valuemax>100</valuemax>
                <value>0</value>
              </parameter>
              <parameter>
                <parameterid>aspect</parameterid>
                <name>Aspect</name>
                <valuemin>0</valuemin>
                <valuemax>4</valuemax>
                <value>1</value>
              </parameter>
              <parameter>
                <parameterid>linewidth</parameterid>
                <name>Line Width</name>
                <valuemin>0</valuemin>
                <valuemax>200</valuemax>
                <value>2</value>
              </parameter>
              <parameter>
                <parameterid>linesoft</parameterid>
                <name>Line Softness</name>
                <valuemin>0</valuemin>
                <valuemax>100</valuemax>
                <value>5</value>
              </parameter>
              <parameter>
                <parameterid>textopacity</parameterid>
                <name>Text Opacity</name>
                <valuemin>0</valuemin>
                <valuemax>100</valuemax>
                <value>100</value>
              </parameter>
              <parameter>
                <parameterid>center</parameterid>
                <name>Center</name>
                <value>
                  <horiz>0</horiz>
                  <vert>0.4703703703703703</vert>
                </value>
              </parameter>
              <parameter>
                <parameterid>textcolor</parameterid>
                <name>Text Color</name>
                <value>
                  <alpha>255</alpha>
                  <red>255</red>
                  <green>255</green>
                  <blue>255</blue>
                </value>
              </parameter>
              <parameter>
                <parameterid>supertext</parameterid>
                <name>Text Graphic</name>
              </parameter>
              <parameter>
                <parameterid>linecolor</parameterid>
                <name>Line Color</name>
                <value>
                  <alpha>255</alpha>
                  <red>0</red>
                  <green>0</green>
                  <blue>0</blue>
                </value>
              </parameter>
              <parameter>
                <parameterid>superline</parameterid>
                <name>Line Graphic</name>
              </parameter>
              <parameter>
                <parameterid>part2</parameterid>
                <name>Background Settings</name>
              </parameter>
              <parameter>
                <parameterid>xscale</parameterid>
                <name>Horizontal Size</name>
                <valuemin>0</valuemin>
                <valuemax>200</valuemax>
                <value>0</value>
              </parameter>
              <parameter>
                <parameterid>yscale</parameterid>
                <name>Vertical Size</name>
                <valuemin>0</valuemin>
                <valuemax>200</valuemax>
                <value>0</value>
              </parameter>
              <parameter>
                <parameterid>xoffset</parameterid>
                <name>Horizontal Offset</name>
                <valuemin>-100</valuemin>
                <valuemax>100</valuemax>
                <value>0</value>
              </parameter>
              <parameter>
                <parameterid>yoffset</parameterid>
                <name>Vertical Offset</name>
                <valuemin>-100</valuemin>
                <valuemax>100</valuemax>
                <value>0</value>
              </parameter>
              <parameter>
                <parameterid>backsoft</parameterid>
                <name>Back Soft</name>
                <valuemin>0</valuemin>
                <valuemax>100</valuemax>
                <value>0</value>
              </parameter>
              <parameter>
                <parameterid>backopacity</parameterid>
                <name>Back Opacity</name>
                <valuemin>0</valuemin>
                <valuemax>100</valuemax>
                <value>50</value>
              </parameter>
              <parameter>
                <parameterid>backcolor</parameterid>
                <name>Back Color</name>
                <value>
                  <alpha>255</alpha>
                  <red>255</red>
                  <green>255</green>
                  <blue>255</blue>
                </value>
              </parameter>
              <parameter>
                <parameterid>superback</parameterid>
                <name>Back Graphic</name>
              </parameter>
              <parameter>
                <parameterid>crop</parameterid>
                <name>Crop</name>
                <value>false</value>
              </parameter>
              <parameter>
                <parameterid>autokern</parameterid>
                <name>Auto Kerning</name>
                <value>true</value>
              </parameter>
            </effect>
            <sourcetrack>
              <mediatype>video</mediatype>
            </sourcetrack>
          </generatoritem>
          <generatoritem id="Outline Text1">
            <name>물이 아무리 묻어도 전혀 상관이 없거든요</name>
            <duration>2249.7599999999998</duration>
            <rate>
              <timebase>24</timebase>
              <ntsc>false</ntsc>
            </rate>
            <start>1366.3199999999993</start>
            <end>1441.9199999999992</end>
            <in>1366.3199999999993</in>
            <out>1441.9199999999992</out>
            <enabled>true</enabled>
            <anamorphic>false</anamorphic>
            <alphatype>black</alphatype>
            <masterclipid>Outline Text1</masterclipid>
            <effect>
              <name>Outline Text</name>
              <effectid>Outline Text</effectid>
              <effectcategory>Text</effectcategory>
              <effecttype>generator</effecttype>
              <mediatype>video</mediatype>
              <parameter>
                <parameterid>part1</parameterid>
                <name>Text Settings</name>
                <value/>
              </parameter>
              <parameter>
                <parameterid>str</parameterid>
                <name>Text</name>
                <value>물이 아무리 묻어도 전혀 상관이 없거든요</value>
              </parameter>
              <parameter>
                <parameterid>font</parameterid>
                <name>Font</name>
                <value>AppleSDGothicNeo-Regular</value>
              </parameter>
              <parameter>
                <parameterid>style</parameterid>
                <name>Style</name>
                <valuemin>1</valuemin>
                <valuemax>1</valuemax>
                <valuelist>
                  <valueentry>
                    <name>Regular</name>
                    <value>1</value>
                  </valueentry>
                </valuelist>
                <value>1</value>
              </parameter>
              <parameter>
                <parameterid>align</parameterid>
                <name>Alignment</name>
                <valuemin>1</valuemin>
                <valuemax>3</valuemax>
                <valuelist>
                  <valueentry>
                    <name>Left</name>
                    <value>1</value>
                  </valueentry>
                  <valueentry>
                    <name>Center</name>
                    <value>2</value>
                  </valueentry>
                  <valueentry>
                    <name>Right</name>
                    <value>3</value>
                  </valueentry>
                </valuelist>
                <value>2</value>
              </parameter>
              <parameter>
                <parameterid>size</parameterid>
                <name>Size</name>
                <valuemin>0</valuemin>
                <valuemax>200</valuemax>
                <value>24</value>
              </parameter>
              <parameter>
                <parameterid>track</parameterid>
                <name>Tracking</name>
                <valuemin>0</valuemin>
                <valuemax>100</valuemax>
                <value>1</value>
              </parameter>
              <parameter>
                <parameterid>lead</parameterid>
                <name>Leading</name>
                <valuemin>-100</valuemin>
                <valuemax>100</valuemax>
                <value>0</value>
              </parameter>
              <parameter>
                <parameterid>aspect</parameterid>
                <name>Aspect</name>
                <valuemin>0</valuemin>
                <valuemax>4</valuemax>
                <value>1</value>
              </parameter>
              <parameter>
                <parameterid>linewidth</parameterid>
                <name>Line Width</name>
                <valuemin>0</valuemin>
                <valuemax>200</valuemax>
                <value>2</value>
              </parameter>
              <parameter>
                <parameterid>linesoft</parameterid>
                <name>Line Softness</name>
                <valuemin>0</valuemin>
                <valuemax>100</valuemax>
                <value>5</value>
              </parameter>
              <parameter>
                <parameterid>textopacity</parameterid>
                <name>Text Opacity</name>
                <valuemin>0</valuemin>
                <valuemax>100</valuemax>
                <value>100</value>
              </parameter>
              <parameter>
                <parameterid>center</parameterid>
                <name>Center</name>
                <value>
                  <horiz>0</horiz>
                  <vert>0.4703703703703703</vert>
                </value>
              </parameter>
              <parameter>
                <parameterid>textcolor</parameterid>
                <name>Text Color</name>
                <value>
                  <alpha>255</alpha>
                  <red>255</red>
                  <green>255</green>
                  <blue>255</blue>
                </value>
              </parameter>
              <parameter>
                <parameterid>supertext</parameterid>
                <name>Text Graphic</name>
              </parameter>
              <parameter>
                <parameterid>linecolor</parameterid>
                <name>Line Color</name>
                <value>
                  <alpha>255</alpha>
                  <red>0</red>
                  <green>0</green>
                  <blue>0</blue>
                </value>
              </parameter>
              <parameter>
                <parameterid>superline</parameterid>
                <name>Line Graphic</name>
              </parameter>
              <parameter>
                <parameterid>part2</parameterid>
                <name>Background Settings</name>
              </parameter>
              <parameter>
                <parameterid>xscale</parameterid>
                <name>Horizontal Size</name>
                <valuemin>0</valuemin>
                <valuemax>200</valuemax>
                <value>0</value>
              </parameter>
              <parameter>
                <parameterid>yscale</parameterid>
                <name>Vertical Size</name>
                <valuemin>0</valuemin>
                <valuemax>200</valuemax>
                <value>0</value>
              </parameter>
              <parameter>
                <parameterid>xoffset</parameterid>
                <name>Horizontal Offset</name>
                <valuemin>-100</valuemin>
                <valuemax>100</valuemax>
                <value>0</value>
              </parameter>
              <parameter>
                <parameterid>yoffset</parameterid>
                <name>Vertical Offset</name>
                <valuemin>-100</valuemin>
                <valuemax>100</valuemax>
                <value>0</value>
              </parameter>
              <parameter>
                <parameterid>backsoft</parameterid>
                <name>Back Soft</name>
                <valuemin>0</valuemin>
                <valuemax>100</valuemax>
                <value>0</value>
              </parameter>
              <parameter>
                <parameterid>backopacity</parameterid>
                <name>Back Opacity</name>
                <valuemin>0</valuemin>
                <valuemax>100</valuemax>
                <value>50</value>
              </parameter>
              <parameter>
                <parameterid>backcolor</parameterid>
                <name>Back Color</name>
                <value>
                  <alpha>255</alpha>
                  <red>255</red>
                  <green>255</green>
                  <blue>255</blue>
                </value>
              </parameter>
              <parameter>
                <parameterid>superback</parameterid>
                <name>Back Graphic</name>
              </parameter>
              <parameter>
                <parameterid>crop</parameterid>
                <name>Crop</name>
                <value>false</value>
              </parameter>
              <parameter>
                <parameterid>autokern</parameterid>
                <name>Auto Kerning</name>
                <value>true</value>
              </parameter>
            </effect>
            <sourcetrack>
              <mediatype>video</mediatype>
            </sourcetrack>
          </generatoritem>
          <generatoritem id="Outline Text1">
            <name>주방에도 흡연 부스와 같은 강력한 모터를 사용했습니다</name>
            <duration>2249.7599999999998</duration>
            <rate>
              <timebase>24</timebase>
              <ntsc>false</ntsc>
            </rate>
            <start>1441.9199999999992</start>
            <end>1532.399999999999</end>
            <in>1441.9199999999992</in>
            <out>1532.399999999999</out>
            <enabled>true</enabled>
            <anamorphic>false</anamorphic>
            <alphatype>black</alphatype>
            <masterclipid>Outline Text1</masterclipid>
            <effect>
              <name>Outline Text</name>
              <effectid>Outline Text</effectid>
              <effectcategory>Text</effectcategory>
              <effecttype>generator</effecttype>
              <mediatype>video</mediatype>
              <parameter>
                <parameterid>part1</parameterid>
                <name>Text Settings</name>
                <value/>
              </parameter>
              <parameter>
                <parameterid>str</parameterid>
                <name>Text</name>
                <value>주방에도 흡연 부스와 같은 강력한 모터를 사용했습니다</value>
              </parameter>
              <parameter>
                <parameterid>font</parameterid>
                <name>Font</name>
                <value>AppleSDGothicNeo-Regular</value>
              </parameter>
              <parameter>
                <parameterid>style</parameterid>
                <name>Style</name>
                <valuemin>1</valuemin>
                <valuemax>1</valuemax>
                <valuelist>
                  <valueentry>
                    <name>Regular</name>
                    <value>1</value>
                  </valueentry>
                </valuelist>
                <value>1</value>
              </parameter>
              <parameter>
                <parameterid>align</parameterid>
                <name>Alignment</name>
                <valuemin>1</valuemin>
                <valuemax>3</valuemax>
                <valuelist>
                  <valueentry>
                    <name>Left</name>
                    <value>1</value>
                  </valueentry>
                  <valueentry>
                    <name>Center</name>
                    <value>2</value>
                  </valueentry>
                  <valueentry>
                    <name>Right</name>
                    <value>3</value>
                  </valueentry>
                </valuelist>
                <value>2</value>
              </parameter>
              <parameter>
                <parameterid>size</parameterid>
                <name>Size</name>
                <valuemin>0</valuemin>
                <valuemax>200</valuemax>
                <value>24</value>
              </parameter>
              <parameter>
                <parameterid>track</parameterid>
                <name>Tracking</name>
                <valuemin>0</valuemin>
                <valuemax>100</valuemax>
                <value>1</value>
              </parameter>
              <parameter>
                <parameterid>lead</parameterid>
                <name>Leading</name>
                <valuemin>-100</valuemin>
                <valuemax>100</valuemax>
                <value>0</value>
              </parameter>
              <parameter>
                <parameterid>aspect</parameterid>
                <name>Aspect</name>
                <valuemin>0</valuemin>
                <valuemax>4</valuemax>
                <value>1</value>
              </parameter>
              <parameter>
                <parameterid>linewidth</parameterid>
                <name>Line Width</name>
                <valuemin>0</valuemin>
                <valuemax>200</valuemax>
                <value>2</value>
              </parameter>
              <parameter>
                <parameterid>linesoft</parameterid>
                <name>Line Softness</name>
                <valuemin>0</valuemin>
                <valuemax>100</valuemax>
                <value>5</value>
              </parameter>
              <parameter>
                <parameterid>textopacity</parameterid>
                <name>Text Opacity</name>
                <valuemin>0</valuemin>
                <valuemax>100</valuemax>
                <value>100</value>
              </parameter>
              <parameter>
                <parameterid>center</parameterid>
                <name>Center</name>
                <value>
                  <horiz>0</horiz>
                  <vert>0.4703703703703703</vert>
                </value>
              </parameter>
              <parameter>
                <parameterid>textcolor</parameterid>
                <name>Text Color</name>
                <value>
                  <alpha>255</alpha>
                  <red>255</red>
                  <green>255</green>
                  <blue>255</blue>
                </value>
              </parameter>
              <parameter>
                <parameterid>supertext</parameterid>
                <name>Text Graphic</name>
              </parameter>
              <parameter>
                <parameterid>linecolor</parameterid>
                <name>Line Color</name>
                <value>
                  <alpha>255</alpha>
                  <red>0</red>
                  <green>0</green>
                  <blue>0</blue>
                </value>
              </parameter>
              <parameter>
                <parameterid>superline</parameterid>
                <name>Line Graphic</name>
              </parameter>
              <parameter>
                <parameterid>part2</parameterid>
                <name>Background Settings</name>
              </parameter>
              <parameter>
                <parameterid>xscale</parameterid>
                <name>Horizontal Size</name>
                <valuemin>0</valuemin>
                <valuemax>200</valuemax>
                <value>0</value>
              </parameter>
              <parameter>
                <parameterid>yscale</parameterid>
                <name>Vertical Size</name>
                <valuemin>0</valuemin>
                <valuemax>200</valuemax>
                <value>0</value>
              </parameter>
              <parameter>
                <parameterid>xoffset</parameterid>
                <name>Horizontal Offset</name>
                <valuemin>-100</valuemin>
                <valuemax>100</valuemax>
                <value>0</value>
              </parameter>
              <parameter>
                <parameterid>yoffset</parameterid>
                <name>Vertical Offset</name>
                <valuemin>-100</valuemin>
                <valuemax>100</valuemax>
                <value>0</value>
              </parameter>
              <parameter>
                <parameterid>backsoft</parameterid>
                <name>Back Soft</name>
                <valuemin>0</valuemin>
                <valuemax>100</valuemax>
                <value>0</value>
              </parameter>
              <parameter>
                <parameterid>backopacity</parameterid>
                <name>Back Opacity</name>
                <valuemin>0</valuemin>
                <valuemax>100</valuemax>
                <value>50</value>
              </parameter>
              <parameter>
                <parameterid>backcolor</parameterid>
                <name>Back Color</name>
                <value>
                  <alpha>255</alpha>
                  <red>255</red>
                  <green>255</green>
                  <blue>255</blue>
                </value>
              </parameter>
              <parameter>
                <parameterid>superback</parameterid>
                <name>Back Graphic</name>
              </parameter>
              <parameter>
                <parameterid>crop</parameterid>
                <name>Crop</name>
                <value>false</value>
              </parameter>
              <parameter>
                <parameterid>autokern</parameterid>
                <name>Auto Kerning</name>
                <value>true</value>
              </parameter>
            </effect>
            <sourcetrack>
              <mediatype>video</mediatype>
            </sourcetrack>
          </generatoritem>
          <generatoritem id="Outline Text1">
            <name>그래야 음식 냄새가 전혀 안 나니까요</name>
            <duration>2249.7599999999998</duration>
            <rate>
              <timebase>24</timebase>
              <ntsc>false</ntsc>
            </rate>
            <start>1532.399999999999</start>
            <end>1591.6799999999992</end>
            <in>1532.399999999999</in>
            <out>1591.6799999999992</out>
            <enabled>true</enabled>
            <anamorphic>false</anamorphic>
            <alphatype>black</alphatype>
            <masterclipid>Outline Text1</masterclipid>
            <effect>
              <name>Outline Text</name>
              <effectid>Outline Text</effectid>
              <effectcategory>Text</effectcategory>
              <effecttype>generator</effecttype>
              <mediatype>video</mediatype>
              <parameter>
                <parameterid>part1</parameterid>
                <name>Text Settings</name>
                <value/>
              </parameter>
              <parameter>
                <parameterid>str</parameterid>
                <name>Text</name>
                <value>그래야 음식 냄새가 전혀 안 나니까요</value>
              </parameter>
              <parameter>
                <parameterid>font</parameterid>
                <name>Font</name>
                <value>AppleSDGothicNeo-Regular</value>
              </parameter>
              <parameter>
                <parameterid>style</parameterid>
                <name>Style</name>
                <valuemin>1</valuemin>
                <valuemax>1</valuemax>
                <valuelist>
                  <valueentry>
                    <name>Regular</name>
                    <value>1</value>
                  </valueentry>
                </valuelist>
                <value>1</value>
              </parameter>
              <parameter>
                <parameterid>align</parameterid>
                <name>Alignment</name>
                <valuemin>1</valuemin>
                <valuemax>3</valuemax>
                <valuelist>
                  <valueentry>
                    <name>Left</name>
                    <value>1</value>
                  </valueentry>
                  <valueentry>
                    <name>Center</name>
                    <value>2</value>
                  </valueentry>
                  <valueentry>
                    <name>Right</name>
                    <value>3</value>
                  </valueentry>
                </valuelist>
                <value>2</value>
              </parameter>
              <parameter>
                <parameterid>size</parameterid>
                <name>Size</name>
                <valuemin>0</valuemin>
                <valuemax>200</valuemax>
                <value>24</value>
              </parameter>
              <parameter>
                <parameterid>track</parameterid>
                <name>Tracking</name>
                <valuemin>0</valuemin>
                <valuemax>100</valuemax>
                <value>1</value>
              </parameter>
              <parameter>
                <parameterid>lead</parameterid>
                <name>Leading</name>
                <valuemin>-100</valuemin>
                <valuemax>100</valuemax>
                <value>0</value>
              </parameter>
              <parameter>
                <parameterid>aspect</parameterid>
                <name>Aspect</name>
                <valuemin>0</valuemin>
                <valuemax>4</valuemax>
                <value>1</value>
              </parameter>
              <parameter>
                <parameterid>linewidth</parameterid>
                <name>Line Width</name>
                <valuemin>0</valuemin>
                <valuemax>200</valuemax>
                <value>2</value>
              </parameter>
              <parameter>
                <parameterid>linesoft</parameterid>
                <name>Line Softness</name>
                <valuemin>0</valuemin>
                <valuemax>100</valuemax>
                <value>5</value>
              </parameter>
              <parameter>
                <parameterid>textopacity</parameterid>
                <name>Text Opacity</name>
                <valuemin>0</valuemin>
                <valuemax>100</valuemax>
                <value>100</value>
              </parameter>
              <parameter>
                <parameterid>center</parameterid>
                <name>Center</name>
                <value>
                  <horiz>0</horiz>
                  <vert>0.4703703703703703</vert>
                </value>
              </parameter>
              <parameter>
                <parameterid>textcolor</parameterid>
                <name>Text Color</name>
                <value>
                  <alpha>255</alpha>
                  <red>255</red>
                  <green>255</green>
                  <blue>255</blue>
                </value>
              </parameter>
              <parameter>
                <parameterid>supertext</parameterid>
                <name>Text Graphic</name>
              </parameter>
              <parameter>
                <parameterid>linecolor</parameterid>
                <name>Line Color</name>
                <value>
                  <alpha>255</alpha>
                  <red>0</red>
                  <green>0</green>
                  <blue>0</blue>
                </value>
              </parameter>
              <parameter>
                <parameterid>superline</parameterid>
                <name>Line Graphic</name>
              </parameter>
              <parameter>
                <parameterid>part2</parameterid>
                <name>Background Settings</name>
              </parameter>
              <parameter>
                <parameterid>xscale</parameterid>
                <name>Horizontal Size</name>
                <valuemin>0</valuemin>
                <valuemax>200</valuemax>
                <value>0</value>
              </parameter>
              <parameter>
                <parameterid>yscale</parameterid>
                <name>Vertical Size</name>
                <valuemin>0</valuemin>
                <valuemax>200</valuemax>
                <value>0</value>
              </parameter>
              <parameter>
                <parameterid>xoffset</parameterid>
                <name>Horizontal Offset</name>
                <valuemin>-100</valuemin>
                <valuemax>100</valuemax>
                <value>0</value>
              </parameter>
              <parameter>
                <parameterid>yoffset</parameterid>
                <name>Vertical Offset</name>
                <valuemin>-100</valuemin>
                <valuemax>100</valuemax>
                <value>0</value>
              </parameter>
              <parameter>
                <parameterid>backsoft</parameterid>
                <name>Back Soft</name>
                <valuemin>0</valuemin>
                <valuemax>100</valuemax>
                <value>0</value>
              </parameter>
              <parameter>
                <parameterid>backopacity</parameterid>
                <name>Back Opacity</name>
                <valuemin>0</valuemin>
                <valuemax>100</valuemax>
                <value>50</value>
              </parameter>
              <parameter>
                <parameterid>backcolor</parameterid>
                <name>Back Color</name>
                <value>
                  <alpha>255</alpha>
                  <red>255</red>
                  <green>255</green>
                  <blue>255</blue>
                </value>
              </parameter>
              <parameter>
                <parameterid>superback</parameterid>
                <name>Back Graphic</name>
              </parameter>
              <parameter>
                <parameterid>crop</parameterid>
                <name>Crop</name>
                <value>false</value>
              </parameter>
              <parameter>
                <parameterid>autokern</parameterid>
                <name>Auto Kerning</name>
                <value>true</value>
              </parameter>
            </effect>
            <sourcetrack>
              <mediatype>video</mediatype>
            </sourcetrack>
          </generatoritem>
          <generatoritem id="Outline Text1">
            <name>튀김기 같은 냄새가 많이 나는 음식 제조는</name>
            <duration>2249.7599999999998</duration>
            <rate>
              <timebase>24</timebase>
              <ntsc>false</ntsc>
            </rate>
            <start>1591.6799999999992</start>
            <end>1666.7999999999988</end>
            <in>1591.6799999999992</in>
            <out>1666.7999999999988</out>
            <enabled>true</enabled>
            <anamorphic>false</anamorphic>
            <alphatype>black</alphatype>
            <masterclipid>Outline Text1</masterclipid>
            <effect>
              <name>Outline Text</name>
              <effectid>Outline Text</effectid>
              <effectcategory>Text</effectcategory>
              <effecttype>generator</effecttype>
              <mediatype>video</mediatype>
              <parameter>
                <parameterid>part1</parameterid>
                <name>Text Settings</name>
                <value/>
              </parameter>
              <parameter>
                <parameterid>str</parameterid>
                <name>Text</name>
                <value>튀김기 같은 냄새가 많이 나는 음식 제조는</value>
              </parameter>
              <parameter>
                <parameterid>font</parameterid>
                <name>Font</name>
                <value>AppleSDGothicNeo-Regular</value>
              </parameter>
              <parameter>
                <parameterid>style</parameterid>
                <name>Style</name>
                <valuemin>1</valuemin>
                <valuemax>1</valuemax>
                <valuelist>
                  <valueentry>
                    <name>Regular</name>
                    <value>1</value>
                  </valueentry>
                </valuelist>
                <value>1</value>
              </parameter>
              <parameter>
                <parameterid>align</parameterid>
                <name>Alignment</name>
                <valuemin>1</valuemin>
                <valuemax>3</valuemax>
                <valuelist>
                  <valueentry>
                    <name>Left</name>
                    <value>1</value>
                  </valueentry>
                  <valueentry>
                    <name>Center</name>
                    <value>2</value>
                  </valueentry>
                  <valueentry>
                    <name>Right</name>
                    <value>3</value>
                  </valueentry>
                </valuelist>
                <value>2</value>
              </parameter>
              <parameter>
                <parameterid>size</parameterid>
                <name>Size</name>
                <valuemin>0</valuemin>
                <valuemax>200</valuemax>
                <value>24</value>
              </parameter>
              <parameter>
                <parameterid>track</parameterid>
                <name>Tracking</name>
                <valuemin>0</valuemin>
                <valuemax>100</valuemax>
                <value>1</value>
              </parameter>
              <parameter>
                <parameterid>lead</parameterid>
                <name>Leading</name>
                <valuemin>-100</valuemin>
                <valuemax>100</valuemax>
                <value>0</value>
              </parameter>
              <parameter>
                <parameterid>aspect</parameterid>
                <name>Aspect</name>
                <valuemin>0</valuemin>
                <valuemax>4</valuemax>
                <value>1</value>
              </parameter>
              <parameter>
                <parameterid>linewidth</parameterid>
                <name>Line Width</name>
                <valuemin>0</valuemin>
                <valuemax>200</valuemax>
                <value>2</value>
              </parameter>
              <parameter>
                <parameterid>linesoft</parameterid>
                <name>Line Softness</name>
                <valuemin>0</valuemin>
                <valuemax>100</valuemax>
                <value>5</value>
              </parameter>
              <parameter>
                <parameterid>textopacity</parameterid>
                <name>Text Opacity</name>
                <valuemin>0</valuemin>
                <valuemax>100</valuemax>
                <value>100</value>
              </parameter>
              <parameter>
                <parameterid>center</parameterid>
                <name>Center</name>
                <value>
                  <horiz>0</horiz>
                  <vert>0.4703703703703703</vert>
                </value>
              </parameter>
              <parameter>
                <parameterid>textcolor</parameterid>
                <name>Text Color</name>
                <value>
                  <alpha>255</alpha>
                  <red>255</red>
                  <green>255</green>
                  <blue>255</blue>
                </value>
              </parameter>
              <parameter>
                <parameterid>supertext</parameterid>
                <name>Text Graphic</name>
              </parameter>
              <parameter>
                <parameterid>linecolor</parameterid>
                <name>Line Color</name>
                <value>
                  <alpha>255</alpha>
                  <red>0</red>
                  <green>0</green>
                  <blue>0</blue>
                </value>
              </parameter>
              <parameter>
                <parameterid>superline</parameterid>
                <name>Line Graphic</name>
              </parameter>
              <parameter>
                <parameterid>part2</parameterid>
                <name>Background Settings</name>
              </parameter>
              <parameter>
                <parameterid>xscale</parameterid>
                <name>Horizontal Size</name>
                <valuemin>0</valuemin>
                <valuemax>200</valuemax>
                <value>0</value>
              </parameter>
              <parameter>
                <parameterid>yscale</parameterid>
                <name>Vertical Size</name>
                <valuemin>0</valuemin>
                <valuemax>200</valuemax>
                <value>0</value>
              </parameter>
              <parameter>
                <parameterid>xoffset</parameterid>
                <name>Horizontal Offset</name>
                <valuemin>-100</valuemin>
                <valuemax>100</valuemax>
                <value>0</value>
              </parameter>
              <parameter>
                <parameterid>yoffset</parameterid>
                <name>Vertical Offset</name>
                <valuemin>-100</valuemin>
                <valuemax>100</valuemax>
                <value>0</value>
              </parameter>
              <parameter>
                <parameterid>backsoft</parameterid>
                <name>Back Soft</name>
                <valuemin>0</valuemin>
                <valuemax>100</valuemax>
                <value>0</value>
              </parameter>
              <parameter>
                <parameterid>backopacity</parameterid>
                <name>Back Opacity</name>
                <valuemin>0</valuemin>
                <valuemax>100</valuemax>
                <value>50</value>
              </parameter>
              <parameter>
                <parameterid>backcolor</parameterid>
                <name>Back Color</name>
                <value>
                  <alpha>255</alpha>
                  <red>255</red>
                  <green>255</green>
                  <blue>255</blue>
                </value>
              </parameter>
              <parameter>
                <parameterid>superback</parameterid>
                <name>Back Graphic</name>
              </parameter>
              <parameter>
                <parameterid>crop</parameterid>
                <name>Crop</name>
                <value>false</value>
              </parameter>
              <parameter>
                <parameterid>autokern</parameterid>
                <name>Auto Kerning</name>
                <value>true</value>
              </parameter>
            </effect>
            <sourcetrack>
              <mediatype>video</mediatype>
            </sourcetrack>
          </generatoritem>
          <generatoritem id="Outline Text1">
            <name>강력한 닥트 함성 밑에서 조리를 하게 주방 동선을 잡아드립니다</name>
            <duration>2249.7599999999998</duration>
            <rate>
              <timebase>24</timebase>
              <ntsc>false</ntsc>
            </rate>
            <start>1666.7999999999988</start>
            <end>1769.0399999999988</end>
            <in>1666.7999999999988</in>
            <out>1769.0399999999988</out>
            <enabled>true</enabled>
            <anamorphic>false</anamorphic>
            <alphatype>black</alphatype>
            <masterclipid>Outline Text1</masterclipid>
            <effect>
              <name>Outline Text</name>
              <effectid>Outline Text</effectid>
              <effectcategory>Text</effectcategory>
              <effecttype>generator</effecttype>
              <mediatype>video</mediatype>
              <parameter>
                <parameterid>part1</parameterid>
                <name>Text Settings</name>
                <value/>
              </parameter>
              <parameter>
                <parameterid>str</parameterid>
                <name>Text</name>
                <value>강력한 닥트 함성 밑에서 조리를 하게 주방 동선을 잡아드립니다</value>
              </parameter>
              <parameter>
                <parameterid>font</parameterid>
                <name>Font</name>
                <value>AppleSDGothicNeo-Regular</value>
              </parameter>
              <parameter>
                <parameterid>style</parameterid>
                <name>Style</name>
                <valuemin>1</valuemin>
                <valuemax>1</valuemax>
                <valuelist>
                  <valueentry>
                    <name>Regular</name>
                    <value>1</value>
                  </valueentry>
                </valuelist>
                <value>1</value>
              </parameter>
              <parameter>
                <parameterid>align</parameterid>
                <name>Alignment</name>
                <valuemin>1</valuemin>
                <valuemax>3</valuemax>
                <valuelist>
                  <valueentry>
                    <name>Left</name>
                    <value>1</value>
                  </valueentry>
                  <valueentry>
                    <name>Center</name>
                    <value>2</value>
                  </valueentry>
                  <valueentry>
                    <name>Right</name>
                    <value>3</value>
                  </valueentry>
                </valuelist>
                <value>2</value>
              </parameter>
              <parameter>
                <parameterid>size</parameterid>
                <name>Size</name>
                <valuemin>0</valuemin>
                <valuemax>200</valuemax>
                <value>24</value>
              </parameter>
              <parameter>
                <parameterid>track</parameterid>
                <name>Tracking</name>
                <valuemin>0</valuemin>
                <valuemax>100</valuemax>
                <value>1</value>
              </parameter>
              <parameter>
                <parameterid>lead</parameterid>
                <name>Leading</name>
                <valuemin>-100</valuemin>
                <valuemax>100</valuemax>
                <value>0</value>
              </parameter>
              <parameter>
                <parameterid>aspect</parameterid>
                <name>Aspect</name>
                <valuemin>0</valuemin>
                <valuemax>4</valuemax>
                <value>1</value>
              </parameter>
              <parameter>
                <parameterid>linewidth</parameterid>
                <name>Line Width</name>
                <valuemin>0</valuemin>
                <valuemax>200</valuemax>
                <value>2</value>
              </parameter>
              <parameter>
                <parameterid>linesoft</parameterid>
                <name>Line Softness</name>
                <valuemin>0</valuemin>
                <valuemax>100</valuemax>
                <value>5</value>
              </parameter>
              <parameter>
                <parameterid>textopacity</parameterid>
                <name>Text Opacity</name>
                <valuemin>0</valuemin>
                <valuemax>100</valuemax>
                <value>100</value>
              </parameter>
              <parameter>
                <parameterid>center</parameterid>
                <name>Center</name>
                <value>
                  <horiz>0</horiz>
                  <vert>0.4703703703703703</vert>
                </value>
              </parameter>
              <parameter>
                <parameterid>textcolor</parameterid>
                <name>Text Color</name>
                <value>
                  <alpha>255</alpha>
                  <red>255</red>
                  <green>255</green>
                  <blue>255</blue>
                </value>
              </parameter>
              <parameter>
                <parameterid>supertext</parameterid>
                <name>Text Graphic</name>
              </parameter>
              <parameter>
                <parameterid>linecolor</parameterid>
                <name>Line Color</name>
                <value>
                  <alpha>255</alpha>
                  <red>0</red>
                  <green>0</green>
                  <blue>0</blue>
                </value>
              </parameter>
              <parameter>
                <parameterid>superline</parameterid>
                <name>Line Graphic</name>
              </parameter>
              <parameter>
                <parameterid>part2</parameterid>
                <name>Background Settings</name>
              </parameter>
              <parameter>
                <parameterid>xscale</parameterid>
                <name>Horizontal Size</name>
                <valuemin>0</valuemin>
                <valuemax>200</valuemax>
                <value>0</value>
              </parameter>
              <parameter>
                <parameterid>yscale</parameterid>
                <name>Vertical Size</name>
                <valuemin>0</valuemin>
                <valuemax>200</valuemax>
                <value>0</value>
              </parameter>
              <parameter>
                <parameterid>xoffset</parameterid>
                <name>Horizontal Offset</name>
                <valuemin>-100</valuemin>
                <valuemax>100</valuemax>
                <value>0</value>
              </parameter>
              <parameter>
                <parameterid>yoffset</parameterid>
                <name>Vertical Offset</name>
                <valuemin>-100</valuemin>
                <valuemax>100</valuemax>
                <value>0</value>
              </parameter>
              <parameter>
                <parameterid>backsoft</parameterid>
                <name>Back Soft</name>
                <valuemin>0</valuemin>
                <valuemax>100</valuemax>
                <value>0</value>
              </parameter>
              <parameter>
                <parameterid>backopacity</parameterid>
                <name>Back Opacity</name>
                <valuemin>0</valuemin>
                <valuemax>100</valuemax>
                <value>50</value>
              </parameter>
              <parameter>
                <parameterid>backcolor</parameterid>
                <name>Back Color</name>
                <value>
                  <alpha>255</alpha>
                  <red>255</red>
                  <green>255</green>
                  <blue>255</blue>
                </value>
              </parameter>
              <parameter>
                <parameterid>superback</parameterid>
                <name>Back Graphic</name>
              </parameter>
              <parameter>
                <parameterid>crop</parameterid>
                <name>Crop</name>
                <value>false</value>
              </parameter>
              <parameter>
                <parameterid>autokern</parameterid>
                <name>Auto Kerning</name>
                <value>true</value>
              </parameter>
            </effect>
            <sourcetrack>
              <mediatype>video</mediatype>
            </sourcetrack>
          </generatoritem>
          <generatoritem id="Outline Text1">
            <name>기둥과 엔딩 파티션은 동경으로 청소가 편하게 했고요</name>
            <duration>2249.7599999999998</duration>
            <rate>
              <timebase>24</timebase>
              <ntsc>false</ntsc>
            </rate>
            <start>1769.0399999999988</start>
            <end>1852.0799999999986</end>
            <in>1769.0399999999988</in>
            <out>1852.0799999999986</out>
            <enabled>true</enabled>
            <anamorphic>false</anamorphic>
            <alphatype>black</alphatype>
            <masterclipid>Outline Text1</masterclipid>
            <effect>
              <name>Outline Text</name>
              <effectid>Outline Text</effectid>
              <effectcategory>Text</effectcategory>
              <effecttype>generator</effecttype>
              <mediatype>video</mediatype>
              <parameter>
                <parameterid>part1</parameterid>
                <name>Text Settings</name>
                <value/>
              </parameter>
              <parameter>
                <parameterid>str</parameterid>
                <name>Text</name>
                <value>기둥과 엔딩 파티션은 동경으로 청소가 편하게 했고요</value>
              </parameter>
              <parameter>
                <parameterid>font</parameterid>
                <name>Font</name>
                <value>AppleSDGothicNeo-Regular</value>
              </parameter>
              <parameter>
                <parameterid>style</parameterid>
                <name>Style</name>
                <valuemin>1</valuemin>
                <valuemax>1</valuemax>
                <valuelist>
                  <valueentry>
                    <name>Regular</name>
                    <value>1</value>
                  </valueentry>
                </valuelist>
                <value>1</value>
              </parameter>
              <parameter>
                <parameterid>align</parameterid>
                <name>Alignment</name>
                <valuemin>1</valuemin>
                <valuemax>3</valuemax>
                <valuelist>
                  <valueentry>
                    <name>Left</name>
                    <value>1</value>
                  </valueentry>
                  <valueentry>
                    <name>Center</name>
                    <value>2</value>
                  </valueentry>
                  <valueentry>
                    <name>Right</name>
                    <value>3</value>
                  </valueentry>
                </valuelist>
                <value>2</value>
              </parameter>
              <parameter>
                <parameterid>size</parameterid>
                <name>Size</name>
                <valuemin>0</valuemin>
                <valuemax>200</valuemax>
                <value>24</value>
              </parameter>
              <parameter>
                <parameterid>track</parameterid>
                <name>Tracking</name>
                <valuemin>0</valuemin>
                <valuemax>100</valuemax>
                <value>1</value>
              </parameter>
              <parameter>
                <parameterid>lead</parameterid>
                <name>Leading</name>
                <valuemin>-100</valuemin>
                <valuemax>100</valuemax>
                <value>0</value>
              </parameter>
              <parameter>
                <parameterid>aspect</parameterid>
                <name>Aspect</name>
                <valuemin>0</valuemin>
                <valuemax>4</valuemax>
                <value>1</value>
              </parameter>
              <parameter>
                <parameterid>linewidth</parameterid>
                <name>Line Width</name>
                <valuemin>0</valuemin>
                <valuemax>200</valuemax>
                <value>2</value>
              </parameter>
              <parameter>
                <parameterid>linesoft</parameterid>
                <name>Line Softness</name>
                <valuemin>0</valuemin>
                <valuemax>100</valuemax>
                <value>5</value>
              </parameter>
              <parameter>
                <parameterid>textopacity</parameterid>
                <name>Text Opacity</name>
                <valuemin>0</valuemin>
                <valuemax>100</valuemax>
                <value>100</value>
              </parameter>
              <parameter>
                <parameterid>center</parameterid>
                <name>Center</name>
                <value>
                  <horiz>0</horiz>
                  <vert>0.4703703703703703</vert>
                </value>
              </parameter>
              <parameter>
                <parameterid>textcolor</parameterid>
                <name>Text Color</name>
                <value>
                  <alpha>255</alpha>
                  <red>255</red>
                  <green>255</green>
                  <blue>255</blue>
                </value>
              </parameter>
              <parameter>
                <parameterid>supertext</parameterid>
                <name>Text Graphic</name>
              </parameter>
              <parameter>
                <parameterid>linecolor</parameterid>
                <name>Line Color</name>
                <value>
                  <alpha>255</alpha>
                  <red>0</red>
                  <green>0</green>
                  <blue>0</blue>
                </value>
              </parameter>
              <parameter>
                <parameterid>superline</parameterid>
                <name>Line Graphic</name>
              </parameter>
              <parameter>
                <parameterid>part2</parameterid>
                <name>Background Settings</name>
              </parameter>
              <parameter>
                <parameterid>xscale</parameterid>
                <name>Horizontal Size</name>
                <valuemin>0</valuemin>
                <valuemax>200</valuemax>
                <value>0</value>
              </parameter>
              <parameter>
                <parameterid>yscale</parameterid>
                <name>Vertical Size</name>
                <valuemin>0</valuemin>
                <valuemax>200</valuemax>
                <value>0</value>
              </parameter>
              <parameter>
                <parameterid>xoffset</parameterid>
                <name>Horizontal Offset</name>
                <valuemin>-100</valuemin>
                <valuemax>100</valuemax>
                <value>0</value>
              </parameter>
              <parameter>
                <parameterid>yoffset</parameterid>
                <name>Vertical Offset</name>
                <valuemin>-100</valuemin>
                <valuemax>100</valuemax>
                <value>0</value>
              </parameter>
              <parameter>
                <parameterid>backsoft</parameterid>
                <name>Back Soft</name>
                <valuemin>0</valuemin>
                <valuemax>100</valuemax>
                <value>0</value>
              </parameter>
              <parameter>
                <parameterid>backopacity</parameterid>
                <name>Back Opacity</name>
                <valuemin>0</valuemin>
                <valuemax>100</valuemax>
                <value>50</value>
              </parameter>
              <parameter>
                <parameterid>backcolor</parameterid>
                <name>Back Color</name>
                <value>
                  <alpha>255</alpha>
                  <red>255</red>
                  <green>255</green>
                  <blue>255</blue>
                </value>
              </parameter>
              <parameter>
                <parameterid>superback</parameterid>
                <name>Back Graphic</name>
              </parameter>
              <parameter>
                <parameterid>crop</parameterid>
                <name>Crop</name>
                <value>false</value>
              </parameter>
              <parameter>
                <parameterid>autokern</parameterid>
                <name>Auto Kerning</name>
                <value>true</value>
              </parameter>
            </effect>
            <sourcetrack>
              <mediatype>video</mediatype>
            </sourcetrack>
          </generatoritem>
          <generatoritem id="Outline Text1">
            <name>하부 타일도 청소가 편하고</name>
            <duration>2249.7599999999998</duration>
            <rate>
              <timebase>24</timebase>
              <ntsc>false</ntsc>
            </rate>
            <start>1852.0799999999986</start>
            <end>1891.4399999999987</end>
            <in>1852.0799999999986</in>
            <out>1891.4399999999987</out>
            <enabled>true</enabled>
            <anamorphic>false</anamorphic>
            <alphatype>black</alphatype>
            <masterclipid>Outline Text1</masterclipid>
            <effect>
              <name>Outline Text</name>
              <effectid>Outline Text</effectid>
              <effectcategory>Text</effectcategory>
              <effecttype>generator</effecttype>
              <mediatype>video</mediatype>
              <parameter>
                <parameterid>part1</parameterid>
                <name>Text Settings</name>
                <value/>
              </parameter>
              <parameter>
                <parameterid>str</parameterid>
                <name>Text</name>
                <value>하부 타일도 청소가 편하고</value>
              </parameter>
              <parameter>
                <parameterid>font</parameterid>
                <name>Font</name>
                <value>AppleSDGothicNeo-Regular</value>
              </parameter>
              <parameter>
                <parameterid>style</parameterid>
                <name>Style</name>
                <valuemin>1</valuemin>
                <valuemax>1</valuemax>
                <valuelist>
                  <valueentry>
                    <name>Regular</name>
                    <value>1</value>
                  </valueentry>
                </valuelist>
                <value>1</value>
              </parameter>
              <parameter>
                <parameterid>align</parameterid>
                <name>Alignment</name>
                <valuemin>1</valuemin>
                <valuemax>3</valuemax>
                <valuelist>
                  <valueentry>
                    <name>Left</name>
                    <value>1</value>
                  </valueentry>
                  <valueentry>
                    <name>Center</name>
                    <value>2</value>
                  </valueentry>
                  <valueentry>
                    <name>Right</name>
                    <value>3</value>
                  </valueentry>
                </valuelist>
                <value>2</value>
              </parameter>
              <parameter>
                <parameterid>size</parameterid>
                <name>Size</name>
                <valuemin>0</valuemin>
                <valuemax>200</valuemax>
                <value>24</value>
              </parameter>
              <parameter>
                <parameterid>track</parameterid>
                <name>Tracking</name>
                <valuemin>0</valuemin>
                <valuemax>100</valuemax>
                <value>1</value>
              </parameter>
              <parameter>
                <parameterid>lead</parameterid>
                <name>Leading</name>
                <valuemin>-100</valuemin>
                <valuemax>100</valuemax>
                <value>0</value>
              </parameter>
              <parameter>
                <parameterid>aspect</parameterid>
                <name>Aspect</name>
                <valuemin>0</valuemin>
                <valuemax>4</valuemax>
                <value>1</value>
              </parameter>
              <parameter>
                <parameterid>linewidth</parameterid>
                <name>Line Width</name>
                <valuemin>0</valuemin>
                <valuemax>200</valuemax>
                <value>2</value>
              </parameter>
              <parameter>
                <parameterid>linesoft</parameterid>
                <name>Line Softness</name>
                <valuemin>0</valuemin>
                <valuemax>100</valuemax>
                <value>5</value>
              </parameter>
              <parameter>
                <parameterid>textopacity</parameterid>
                <name>Text Opacity</name>
                <valuemin>0</valuemin>
                <valuemax>100</valuemax>
                <value>100</value>
              </parameter>
              <parameter>
                <parameterid>center</parameterid>
                <name>Center</name>
                <value>
                  <horiz>0</horiz>
                  <vert>0.4703703703703703</vert>
                </value>
              </parameter>
              <parameter>
                <parameterid>textcolor</parameterid>
                <name>Text Color</name>
                <value>
                  <alpha>255</alpha>
                  <red>255</red>
                  <green>255</green>
                  <blue>255</blue>
                </value>
              </parameter>
              <parameter>
                <parameterid>supertext</parameterid>
                <name>Text Graphic</name>
              </parameter>
              <parameter>
                <parameterid>linecolor</parameterid>
                <name>Line Color</name>
                <value>
                  <alpha>255</alpha>
                  <red>0</red>
                  <green>0</green>
                  <blue>0</blue>
                </value>
              </parameter>
              <parameter>
                <parameterid>superline</parameterid>
                <name>Line Graphic</name>
              </parameter>
              <parameter>
                <parameterid>part2</parameterid>
                <name>Background Settings</name>
              </parameter>
              <parameter>
                <parameterid>xscale</parameterid>
                <name>Horizontal Size</name>
                <valuemin>0</valuemin>
                <valuemax>200</valuemax>
                <value>0</value>
              </parameter>
              <parameter>
                <parameterid>yscale</parameterid>
                <name>Vertical Size</name>
                <valuemin>0</valuemin>
                <valuemax>200</valuemax>
                <value>0</value>
              </parameter>
              <parameter>
                <parameterid>xoffset</parameterid>
                <name>Horizontal Offset</name>
                <valuemin>-100</valuemin>
                <valuemax>100</valuemax>
                <value>0</value>
              </parameter>
              <parameter>
                <parameterid>yoffset</parameterid>
                <name>Vertical Offset</name>
                <valuemin>-100</valuemin>
                <valuemax>100</valuemax>
                <value>0</value>
              </parameter>
              <parameter>
                <parameterid>backsoft</parameterid>
                <name>Back Soft</name>
                <valuemin>0</valuemin>
                <valuemax>100</valuemax>
                <value>0</value>
              </parameter>
              <parameter>
                <parameterid>backopacity</parameterid>
                <name>Back Opacity</name>
                <valuemin>0</valuemin>
                <valuemax>100</valuemax>
                <value>50</value>
              </parameter>
              <parameter>
                <parameterid>backcolor</parameterid>
                <name>Back Color</name>
                <value>
                  <alpha>255</alpha>
                  <red>255</red>
                  <green>255</green>
                  <blue>255</blue>
                </value>
              </parameter>
              <parameter>
                <parameterid>superback</parameterid>
                <name>Back Graphic</name>
              </parameter>
              <parameter>
                <parameterid>crop</parameterid>
                <name>Crop</name>
                <value>false</value>
              </parameter>
              <parameter>
                <parameterid>autokern</parameterid>
                <name>Auto Kerning</name>
                <value>true</value>
              </parameter>
            </effect>
            <sourcetrack>
              <mediatype>video</mediatype>
            </sourcetrack>
          </generatoritem>
          <generatoritem id="Outline Text1">
            <name>때가 잘 안 먹는 타일로 시공을 했습니다</name>
            <duration>2249.7599999999998</duration>
            <rate>
              <timebase>24</timebase>
              <ntsc>false</ntsc>
            </rate>
            <start>1891.4399999999987</start>
            <end>1952.3999999999987</end>
            <in>1891.4399999999987</in>
            <out>1952.3999999999987</out>
            <enabled>true</enabled>
            <anamorphic>false</anamorphic>
            <alphatype>black</alphatype>
            <masterclipid>Outline Text1</masterclipid>
            <effect>
              <name>Outline Text</name>
              <effectid>Outline Text</effectid>
              <effectcategory>Text</effectcategory>
              <effecttype>generator</effecttype>
              <mediatype>video</mediatype>
              <parameter>
                <parameterid>part1</parameterid>
                <name>Text Settings</name>
                <value/>
              </parameter>
              <parameter>
                <parameterid>str</parameterid>
                <name>Text</name>
                <value>때가 잘 안 먹는 타일로 시공을 했습니다</value>
              </parameter>
              <parameter>
                <parameterid>font</parameterid>
                <name>Font</name>
                <value>AppleSDGothicNeo-Regular</value>
              </parameter>
              <parameter>
                <parameterid>style</parameterid>
                <name>Style</name>
                <valuemin>1</valuemin>
                <valuemax>1</valuemax>
                <valuelist>
                  <valueentry>
                    <name>Regular</name>
                    <value>1</value>
                  </valueentry>
                </valuelist>
                <value>1</value>
              </parameter>
              <parameter>
                <parameterid>align</parameterid>
                <name>Alignment</name>
                <valuemin>1</valuemin>
                <valuemax>3</valuemax>
                <valuelist>
                  <valueentry>
                    <name>Left</name>
                    <value>1</value>
                  </valueentry>
                  <valueentry>
                    <name>Center</name>
                    <value>2</value>
                  </valueentry>
                  <valueentry>
                    <name>Right</name>
                    <value>3</value>
                  </valueentry>
                </valuelist>
                <value>2</value>
              </parameter>
              <parameter>
                <parameterid>size</parameterid>
                <name>Size</name>
                <valuemin>0</valuemin>
                <valuemax>200</valuemax>
                <value>24</value>
              </parameter>
              <parameter>
                <parameterid>track</parameterid>
                <name>Tracking</name>
                <valuemin>0</valuemin>
                <valuemax>100</valuemax>
                <value>1</value>
              </parameter>
              <parameter>
                <parameterid>lead</parameterid>
                <name>Leading</name>
                <valuemin>-100</valuemin>
                <valuemax>100</valuemax>
                <value>0</value>
              </parameter>
              <parameter>
                <parameterid>aspect</parameterid>
                <name>Aspect</name>
                <valuemin>0</valuemin>
                <valuemax>4</valuemax>
                <value>1</value>
              </parameter>
              <parameter>
                <parameterid>linewidth</parameterid>
                <name>Line Width</name>
                <valuemin>0</valuemin>
                <valuemax>200</valuemax>
                <value>2</value>
              </parameter>
              <parameter>
                <parameterid>linesoft</parameterid>
                <name>Line Softness</name>
                <valuemin>0</valuemin>
                <valuemax>100</valuemax>
                <value>5</value>
              </parameter>
              <parameter>
                <parameterid>textopacity</parameterid>
                <name>Text Opacity</name>
                <valuemin>0</valuemin>
                <valuemax>100</valuemax>
                <value>100</value>
              </parameter>
              <parameter>
                <parameterid>center</parameterid>
                <name>Center</name>
                <value>
                  <horiz>0</horiz>
                  <vert>0.4703703703703703</vert>
                </value>
              </parameter>
              <parameter>
                <parameterid>textcolor</parameterid>
                <name>Text Color</name>
                <value>
                  <alpha>255</alpha>
                  <red>255</red>
                  <green>255</green>
                  <blue>255</blue>
                </value>
              </parameter>
              <parameter>
                <parameterid>supertext</parameterid>
                <name>Text Graphic</name>
              </parameter>
              <parameter>
                <parameterid>linecolor</parameterid>
                <name>Line Color</name>
                <value>
                  <alpha>255</alpha>
                  <red>0</red>
                  <green>0</green>
                  <blue>0</blue>
                </value>
              </parameter>
              <parameter>
                <parameterid>superline</parameterid>
                <name>Line Graphic</name>
              </parameter>
              <parameter>
                <parameterid>part2</parameterid>
                <name>Background Settings</name>
              </parameter>
              <parameter>
                <parameterid>xscale</parameterid>
                <name>Horizontal Size</name>
                <valuemin>0</valuemin>
                <valuemax>200</valuemax>
                <value>0</value>
              </parameter>
              <parameter>
                <parameterid>yscale</parameterid>
                <name>Vertical Size</name>
                <valuemin>0</valuemin>
                <valuemax>200</valuemax>
                <value>0</value>
              </parameter>
              <parameter>
                <parameterid>xoffset</parameterid>
                <name>Horizontal Offset</name>
                <valuemin>-100</valuemin>
                <valuemax>100</valuemax>
                <value>0</value>
              </parameter>
              <parameter>
                <parameterid>yoffset</parameterid>
                <name>Vertical Offset</name>
                <valuemin>-100</valuemin>
                <valuemax>100</valuemax>
                <value>0</value>
              </parameter>
              <parameter>
                <parameterid>backsoft</parameterid>
                <name>Back Soft</name>
                <valuemin>0</valuemin>
                <valuemax>100</valuemax>
                <value>0</value>
              </parameter>
              <parameter>
                <parameterid>backopacity</parameterid>
                <name>Back Opacity</name>
                <valuemin>0</valuemin>
                <valuemax>100</valuemax>
                <value>50</value>
              </parameter>
              <parameter>
                <parameterid>backcolor</parameterid>
                <name>Back Color</name>
                <value>
                  <alpha>255</alpha>
                  <red>255</red>
                  <green>255</green>
                  <blue>255</blue>
                </value>
              </parameter>
              <parameter>
                <parameterid>superback</parameterid>
                <name>Back Graphic</name>
              </parameter>
              <parameter>
                <parameterid>crop</parameterid>
                <name>Crop</name>
                <value>false</value>
              </parameter>
              <parameter>
                <parameterid>autokern</parameterid>
                <name>Auto Kerning</name>
                <value>true</value>
              </parameter>
            </effect>
            <sourcetrack>
              <mediatype>video</mediatype>
            </sourcetrack>
          </generatoritem>
          <generatoritem id="Outline Text1">
            <name>CCTV도 핸드폰으로 늘 매장 전체를 확인하실 수 있게 세팅을 해드렸고요</name>
            <duration>2249.7599999999998</duration>
            <rate>
              <timebase>24</timebase>
              <ntsc>false</ntsc>
            </rate>
            <start>1952.3999999999987</start>
            <end>2065.1999999999985</end>
            <in>1952.3999999999987</in>
            <out>2065.1999999999985</out>
            <enabled>true</enabled>
            <anamorphic>false</anamorphic>
            <alphatype>black</alphatype>
            <masterclipid>Outline Text1</masterclipid>
            <effect>
              <name>Outline Text</name>
              <effectid>Outline Text</effectid>
              <effectcategory>Text</effectcategory>
              <effecttype>generator</effecttype>
              <mediatype>video</mediatype>
              <parameter>
                <parameterid>part1</parameterid>
                <name>Text Settings</name>
                <value/>
              </parameter>
              <parameter>
                <parameterid>str</parameterid>
                <name>Text</name>
                <value>CCTV도 핸드폰으로 늘 매장 전체를 확인하실 수 있게 세팅을 해드렸고요</value>
              </parameter>
              <parameter>
                <parameterid>font</parameterid>
                <name>Font</name>
                <value>AppleSDGothicNeo-Regular</value>
              </parameter>
              <parameter>
                <parameterid>style</parameterid>
                <name>Style</name>
                <valuemin>1</valuemin>
                <valuemax>1</valuemax>
                <valuelist>
                  <valueentry>
                    <name>Regular</name>
                    <value>1</value>
                  </valueentry>
                </valuelist>
                <value>1</value>
              </parameter>
              <parameter>
                <parameterid>align</parameterid>
                <name>Alignment</name>
                <valuemin>1</valuemin>
                <valuemax>3</valuemax>
                <valuelist>
                  <valueentry>
                    <name>Left</name>
                    <value>1</value>
                  </valueentry>
                  <valueentry>
                    <name>Center</name>
                    <value>2</value>
                  </valueentry>
                  <valueentry>
                    <name>Right</name>
                    <value>3</value>
                  </valueentry>
                </valuelist>
                <value>2</value>
              </parameter>
              <parameter>
                <parameterid>size</parameterid>
                <name>Size</name>
                <valuemin>0</valuemin>
                <valuemax>200</valuemax>
                <value>24</value>
              </parameter>
              <parameter>
                <parameterid>track</parameterid>
                <name>Tracking</name>
                <valuemin>0</valuemin>
                <valuemax>100</valuemax>
                <value>1</value>
              </parameter>
              <parameter>
                <parameterid>lead</parameterid>
                <name>Leading</name>
                <valuemin>-100</valuemin>
                <valuemax>100</valuemax>
                <value>0</value>
              </parameter>
              <parameter>
                <parameterid>aspect</parameterid>
                <name>Aspect</name>
                <valuemin>0</valuemin>
                <valuemax>4</valuemax>
                <value>1</value>
              </parameter>
              <parameter>
                <parameterid>linewidth</parameterid>
                <name>Line Width</name>
                <valuemin>0</valuemin>
                <valuemax>200</valuemax>
                <value>2</value>
              </parameter>
              <parameter>
                <parameterid>linesoft</parameterid>
                <name>Line Softness</name>
                <valuemin>0</valuemin>
                <valuemax>100</valuemax>
                <value>5</value>
              </parameter>
              <parameter>
                <parameterid>textopacity</parameterid>
                <name>Text Opacity</name>
                <valuemin>0</valuemin>
                <valuemax>100</valuemax>
                <value>100</value>
              </parameter>
              <parameter>
                <parameterid>center</parameterid>
                <name>Center</name>
                <value>
                  <horiz>0</horiz>
                  <vert>0.4703703703703703</vert>
                </value>
              </parameter>
              <parameter>
                <parameterid>textcolor</parameterid>
                <name>Text Color</name>
                <value>
                  <alpha>255</alpha>
                  <red>255</red>
                  <green>255</green>
                  <blue>255</blue>
                </value>
              </parameter>
              <parameter>
                <parameterid>supertext</parameterid>
                <name>Text Graphic</name>
              </parameter>
              <parameter>
                <parameterid>linecolor</parameterid>
                <name>Line Color</name>
                <value>
                  <alpha>255</alpha>
                  <red>0</red>
                  <green>0</green>
                  <blue>0</blue>
                </value>
              </parameter>
              <parameter>
                <parameterid>superline</parameterid>
                <name>Line Graphic</name>
              </parameter>
              <parameter>
                <parameterid>part2</parameterid>
                <name>Background Settings</name>
              </parameter>
              <parameter>
                <parameterid>xscale</parameterid>
                <name>Horizontal Size</name>
                <valuemin>0</valuemin>
                <valuemax>200</valuemax>
                <value>0</value>
              </parameter>
              <parameter>
                <parameterid>yscale</parameterid>
                <name>Vertical Size</name>
                <valuemin>0</valuemin>
                <valuemax>200</valuemax>
                <value>0</value>
              </parameter>
              <parameter>
                <parameterid>xoffset</parameterid>
                <name>Horizontal Offset</name>
                <valuemin>-100</valuemin>
                <valuemax>100</valuemax>
                <value>0</value>
              </parameter>
              <parameter>
                <parameterid>yoffset</parameterid>
                <name>Vertical Offset</name>
                <valuemin>-100</valuemin>
                <valuemax>100</valuemax>
                <value>0</value>
              </parameter>
              <parameter>
                <parameterid>backsoft</parameterid>
                <name>Back Soft</name>
                <valuemin>0</valuemin>
                <valuemax>100</valuemax>
                <value>0</value>
              </parameter>
              <parameter>
                <parameterid>backopacity</parameterid>
                <name>Back Opacity</name>
                <valuemin>0</valuemin>
                <valuemax>100</valuemax>
                <value>50</value>
              </parameter>
              <parameter>
                <parameterid>backcolor</parameterid>
                <name>Back Color</name>
                <value>
                  <alpha>255</alpha>
                  <red>255</red>
                  <green>255</green>
                  <blue>255</blue>
                </value>
              </parameter>
              <parameter>
                <parameterid>superback</parameterid>
                <name>Back Graphic</name>
              </parameter>
              <parameter>
                <parameterid>crop</parameterid>
                <name>Crop</name>
                <value>false</value>
              </parameter>
              <parameter>
                <parameterid>autokern</parameterid>
                <name>Auto Kerning</name>
                <value>true</value>
              </parameter>
            </effect>
            <sourcetrack>
              <mediatype>video</mediatype>
            </sourcetrack>
          </generatoritem>
          <generatoritem id="Outline Text1">
            <name>매달 요금이 나가지 않는 방식입니다</name>
            <duration>2249.7599999999998</duration>
            <rate>
              <timebase>24</timebase>
              <ntsc>false</ntsc>
            </rate>
            <start>2065.1999999999985</start>
            <end>2128.079999999998</end>
            <in>2065.1999999999985</in>
            <out>2128.079999999998</out>
            <enabled>true</enabled>
            <anamorphic>false</anamorphic>
            <alphatype>black</alphatype>
            <masterclipid>Outline Text1</masterclipid>
            <effect>
              <name>Outline Text</name>
              <effectid>Outline Text</effectid>
              <effectcategory>Text</effectcategory>
              <effecttype>generator</effecttype>
              <mediatype>video</mediatype>
              <parameter>
                <parameterid>part1</parameterid>
                <name>Text Settings</name>
                <value/>
              </parameter>
              <parameter>
                <parameterid>str</parameterid>
                <name>Text</name>
                <value>매달 요금이 나가지 않는 방식입니다</value>
              </parameter>
              <parameter>
                <parameterid>font</parameterid>
                <name>Font</name>
                <value>AppleSDGothicNeo-Regular</value>
              </parameter>
              <parameter>
                <parameterid>style</parameterid>
                <name>Style</name>
                <valuemin>1</valuemin>
                <valuemax>1</valuemax>
                <valuelist>
                  <valueentry>
                    <name>Regular</name>
                    <value>1</value>
                  </valueentry>
                </valuelist>
                <value>1</value>
              </parameter>
              <parameter>
                <parameterid>align</parameterid>
                <name>Alignment</name>
                <valuemin>1</valuemin>
                <valuemax>3</valuemax>
                <valuelist>
                  <valueentry>
                    <name>Left</name>
                    <value>1</value>
                  </valueentry>
                  <valueentry>
                    <name>Center</name>
                    <value>2</value>
                  </valueentry>
                  <valueentry>
                    <name>Right</name>
                    <value>3</value>
                  </valueentry>
                </valuelist>
                <value>2</value>
              </parameter>
              <parameter>
                <parameterid>size</parameterid>
                <name>Size</name>
                <valuemin>0</valuemin>
                <valuemax>200</valuemax>
                <value>24</value>
              </parameter>
              <parameter>
                <parameterid>track</parameterid>
                <name>Tracking</name>
                <valuemin>0</valuemin>
                <valuemax>100</valuemax>
                <value>1</value>
              </parameter>
              <parameter>
                <parameterid>lead</parameterid>
                <name>Leading</name>
                <valuemin>-100</valuemin>
                <valuemax>100</valuemax>
                <value>0</value>
              </parameter>
              <parameter>
                <parameterid>aspect</parameterid>
                <name>Aspect</name>
                <valuemin>0</valuemin>
                <valuemax>4</valuemax>
                <value>1</value>
              </parameter>
              <parameter>
                <parameterid>linewidth</parameterid>
                <name>Line Width</name>
                <valuemin>0</valuemin>
                <valuemax>200</valuemax>
                <value>2</value>
              </parameter>
              <parameter>
                <parameterid>linesoft</parameterid>
                <name>Line Softness</name>
                <valuemin>0</valuemin>
                <valuemax>100</valuemax>
                <value>5</value>
              </parameter>
              <parameter>
                <parameterid>textopacity</parameterid>
                <name>Text Opacity</name>
                <valuemin>0</valuemin>
                <valuemax>100</valuemax>
                <value>100</value>
              </parameter>
              <parameter>
                <parameterid>center</parameterid>
                <name>Center</name>
                <value>
                  <horiz>0</horiz>
                  <vert>0.4703703703703703</vert>
                </value>
              </parameter>
              <parameter>
                <parameterid>textcolor</parameterid>
                <name>Text Color</name>
                <value>
                  <alpha>255</alpha>
                  <red>255</red>
                  <green>255</green>
                  <blue>255</blue>
                </value>
              </parameter>
              <parameter>
                <parameterid>supertext</parameterid>
                <name>Text Graphic</name>
              </parameter>
              <parameter>
                <parameterid>linecolor</parameterid>
                <name>Line Color</name>
                <value>
                  <alpha>255</alpha>
                  <red>0</red>
                  <green>0</green>
                  <blue>0</blue>
                </value>
              </parameter>
              <parameter>
                <parameterid>superline</parameterid>
                <name>Line Graphic</name>
              </parameter>
              <parameter>
                <parameterid>part2</parameterid>
                <name>Background Settings</name>
              </parameter>
              <parameter>
                <parameterid>xscale</parameterid>
                <name>Horizontal Size</name>
                <valuemin>0</valuemin>
                <valuemax>200</valuemax>
                <value>0</value>
              </parameter>
              <parameter>
                <parameterid>yscale</parameterid>
                <name>Vertical Size</name>
                <valuemin>0</valuemin>
                <valuemax>200</valuemax>
                <value>0</value>
              </parameter>
              <parameter>
                <parameterid>xoffset</parameterid>
                <name>Horizontal Offset</name>
                <valuemin>-100</valuemin>
                <valuemax>100</valuemax>
                <value>0</value>
              </parameter>
              <parameter>
                <parameterid>yoffset</parameterid>
                <name>Vertical Offset</name>
                <valuemin>-100</valuemin>
                <valuemax>100</valuemax>
                <value>0</value>
              </parameter>
              <parameter>
                <parameterid>backsoft</parameterid>
                <name>Back Soft</name>
                <valuemin>0</valuemin>
                <valuemax>100</valuemax>
                <value>0</value>
              </parameter>
              <parameter>
                <parameterid>backopacity</parameterid>
                <name>Back Opacity</name>
                <valuemin>0</valuemin>
                <valuemax>100</valuemax>
                <value>50</value>
              </parameter>
              <parameter>
                <parameterid>backcolor</parameterid>
                <name>Back Color</name>
                <value>
                  <alpha>255</alpha>
                  <red>255</red>
                  <green>255</green>
                  <blue>255</blue>
                </value>
              </parameter>
              <parameter>
                <parameterid>superback</parameterid>
                <name>Back Graphic</name>
              </parameter>
              <parameter>
                <parameterid>crop</parameterid>
                <name>Crop</name>
                <value>false</value>
              </parameter>
              <parameter>
                <parameterid>autokern</parameterid>
                <name>Auto Kerning</name>
                <value>true</value>
              </parameter>
            </effect>
            <sourcetrack>
              <mediatype>video</mediatype>
            </sourcetrack>
          </generatoritem>
          <generatoritem id="Outline Text1">
            <name>다음 영상은 666호점 서울 수락산점으로 돌아오겠습니다</name>
            <duration>2249.7599999999998</duration>
            <rate>
              <timebase>24</timebase>
              <ntsc>false</ntsc>
            </rate>
            <start>2128.079999999998</start>
            <end>2249.7599999999984</end>
            <in>2128.079999999998</in>
            <out>2249.7599999999984</out>
            <enabled>true</enabled>
            <anamorphic>false</anamorphic>
            <alphatype>black</alphatype>
            <masterclipid>Outline Text1</masterclipid>
            <effect>
              <name>Outline Text</name>
              <effectid>Outline Text</effectid>
              <effectcategory>Text</effectcategory>
              <effecttype>generator</effecttype>
              <mediatype>video</mediatype>
              <parameter>
                <parameterid>part1</parameterid>
                <name>Text Settings</name>
                <value/>
              </parameter>
              <parameter>
                <parameterid>str</parameterid>
                <name>Text</name>
                <value>다음 영상은 666호점 서울 수락산점으로 돌아오겠습니다</value>
              </parameter>
              <parameter>
                <parameterid>font</parameterid>
                <name>Font</name>
                <value>AppleSDGothicNeo-Regular</value>
              </parameter>
              <parameter>
                <parameterid>style</parameterid>
                <name>Style</name>
                <valuemin>1</valuemin>
                <valuemax>1</valuemax>
                <valuelist>
                  <valueentry>
                    <name>Regular</name>
                    <value>1</value>
                  </valueentry>
                </valuelist>
                <value>1</value>
              </parameter>
              <parameter>
                <parameterid>align</parameterid>
                <name>Alignment</name>
                <valuemin>1</valuemin>
                <valuemax>3</valuemax>
                <valuelist>
                  <valueentry>
                    <name>Left</name>
                    <value>1</value>
                  </valueentry>
                  <valueentry>
                    <name>Center</name>
                    <value>2</value>
                  </valueentry>
                  <valueentry>
                    <name>Right</name>
                    <value>3</value>
                  </valueentry>
                </valuelist>
                <value>2</value>
              </parameter>
              <parameter>
                <parameterid>size</parameterid>
                <name>Size</name>
                <valuemin>0</valuemin>
                <valuemax>200</valuemax>
                <value>24</value>
              </parameter>
              <parameter>
                <parameterid>track</parameterid>
                <name>Tracking</name>
                <valuemin>0</valuemin>
                <valuemax>100</valuemax>
                <value>1</value>
              </parameter>
              <parameter>
                <parameterid>lead</parameterid>
                <name>Leading</name>
                <valuemin>-100</valuemin>
                <valuemax>100</valuemax>
                <value>0</value>
              </parameter>
              <parameter>
                <parameterid>aspect</parameterid>
                <name>Aspect</name>
                <valuemin>0</valuemin>
                <valuemax>4</valuemax>
                <value>1</value>
              </parameter>
              <parameter>
                <parameterid>linewidth</parameterid>
                <name>Line Width</name>
                <valuemin>0</valuemin>
                <valuemax>200</valuemax>
                <value>2</value>
              </parameter>
              <parameter>
                <parameterid>linesoft</parameterid>
                <name>Line Softness</name>
                <valuemin>0</valuemin>
                <valuemax>100</valuemax>
                <value>5</value>
              </parameter>
              <parameter>
                <parameterid>textopacity</parameterid>
                <name>Text Opacity</name>
                <valuemin>0</valuemin>
                <valuemax>100</valuemax>
                <value>100</value>
              </parameter>
              <parameter>
                <parameterid>center</parameterid>
                <name>Center</name>
                <value>
                  <horiz>0</horiz>
                  <vert>0.4703703703703703</vert>
                </value>
              </parameter>
              <parameter>
                <parameterid>textcolor</parameterid>
                <name>Text Color</name>
                <value>
                  <alpha>255</alpha>
                  <red>255</red>
                  <green>255</green>
                  <blue>255</blue>
                </value>
              </parameter>
              <parameter>
                <parameterid>supertext</parameterid>
                <name>Text Graphic</name>
              </parameter>
              <parameter>
                <parameterid>linecolor</parameterid>
                <name>Line Color</name>
                <value>
                  <alpha>255</alpha>
                  <red>0</red>
                  <green>0</green>
                  <blue>0</blue>
                </value>
              </parameter>
              <parameter>
                <parameterid>superline</parameterid>
                <name>Line Graphic</name>
              </parameter>
              <parameter>
                <parameterid>part2</parameterid>
                <name>Background Settings</name>
              </parameter>
              <parameter>
                <parameterid>xscale</parameterid>
                <name>Horizontal Size</name>
                <valuemin>0</valuemin>
                <valuemax>200</valuemax>
                <value>0</value>
              </parameter>
              <parameter>
                <parameterid>yscale</parameterid>
                <name>Vertical Size</name>
                <valuemin>0</valuemin>
                <valuemax>200</valuemax>
                <value>0</value>
              </parameter>
              <parameter>
                <parameterid>xoffset</parameterid>
                <name>Horizontal Offset</name>
                <valuemin>-100</valuemin>
                <valuemax>100</valuemax>
                <value>0</value>
              </parameter>
              <parameter>
                <parameterid>yoffset</parameterid>
                <name>Vertical Offset</name>
                <valuemin>-100</valuemin>
                <valuemax>100</valuemax>
                <value>0</value>
              </parameter>
              <parameter>
                <parameterid>backsoft</parameterid>
                <name>Back Soft</name>
                <valuemin>0</valuemin>
                <valuemax>100</valuemax>
                <value>0</value>
              </parameter>
              <parameter>
                <parameterid>backopacity</parameterid>
                <name>Back Opacity</name>
                <valuemin>0</valuemin>
                <valuemax>100</valuemax>
                <value>50</value>
              </parameter>
              <parameter>
                <parameterid>backcolor</parameterid>
                <name>Back Color</name>
                <value>
                  <alpha>255</alpha>
                  <red>255</red>
                  <green>255</green>
                  <blue>255</blue>
                </value>
              </parameter>
              <parameter>
                <parameterid>superback</parameterid>
                <name>Back Graphic</name>
              </parameter>
              <parameter>
                <parameterid>crop</parameterid>
                <name>Crop</name>
                <value>false</value>
              </parameter>
              <parameter>
                <parameterid>autokern</parameterid>
                <name>Auto Kerning</name>
                <value>true</value>
              </parameter>
            </effect>
            <sourcetrack>
              <mediatype>video</mediatype>
            </sourcetrack>
          </generatoritem>
        </track>
      </video>
      <audio>
        <in>0</in>
        <out>2249.7599999999998</out>
        <channelcount>2</channelcount>
        <duration>2249.7599999999998</duration>
        <track>
          <clipitem>
            <name>상도지기_240617_자막.mp4</name>
            <enabled>true</enabled>
            <in>0</in>
            <out>92.64000000000001</out>
            <start>0</start>
            <end>92.64000000000001</end>
            <file id="상도지기_240617_자막.mp4"/>
            <sourcetrack>
              <mediatype>audio</mediatype>
              <trackindex>1</trackindex>
            </sourcetrack>
          </clipitem>
          <clipitem>
            <name>상도지기_240617_자막.mp4</name>
            <enabled>true</enabled>
            <in>92.64</in>
            <out>160.31999999999996</out>
            <start>92.64000000000001</start>
            <end>160.32</end>
            <file id="상도지기_240617_자막.mp4"/>
            <sourcetrack>
              <mediatype>audio</mediatype>
              <trackindex>1</trackindex>
            </sourcetrack>
          </clipitem>
          <clipitem>
            <name>상도지기_240617_자막.mp4</name>
            <enabled>true</enabled>
            <in>160.32</in>
            <out>215.03999999999996</out>
            <start>160.32</start>
            <end>215.03999999999996</end>
            <file id="상도지기_240617_자막.mp4"/>
            <sourcetrack>
              <mediatype>audio</mediatype>
              <trackindex>1</trackindex>
            </sourcetrack>
          </clipitem>
          <clipitem>
            <name>상도지기_240617_자막.mp4</name>
            <enabled>true</enabled>
            <in>215.04000000000002</in>
            <out>293.04</out>
            <start>215.03999999999996</start>
            <end>293.03999999999996</end>
            <file id="상도지기_240617_자막.mp4"/>
            <sourcetrack>
              <mediatype>audio</mediatype>
              <trackindex>1</trackindex>
            </sourcetrack>
          </clipitem>
          <clipitem>
            <name>상도지기_240617_자막.mp4</name>
            <enabled>true</enabled>
            <in>293.04</in>
            <out>360.7200000000001</out>
            <start>293.03999999999996</start>
            <end>360.72</end>
            <file id="상도지기_240617_자막.mp4"/>
            <sourcetrack>
              <mediatype>audio</mediatype>
              <trackindex>1</trackindex>
            </sourcetrack>
          </clipitem>
          <clipitem>
            <name>상도지기_240617_자막.mp4</name>
            <enabled>true</enabled>
            <in>360.71999999999997</in>
            <out>443.27999999999986</out>
            <start>360.72</start>
            <end>443.28</end>
            <file id="상도지기_240617_자막.mp4"/>
            <sourcetrack>
              <mediatype>audio</mediatype>
              <trackindex>1</trackindex>
            </sourcetrack>
          </clipitem>
          <clipitem>
            <name>상도지기_240617_자막.mp4</name>
            <enabled>true</enabled>
            <in>443.28</in>
            <out>532.3199999999999</out>
            <start>443.28</start>
            <end>532.3199999999999</end>
            <file id="상도지기_240617_자막.mp4"/>
            <sourcetrack>
              <mediatype>audio</mediatype>
              <trackindex>1</trackindex>
            </sourcetrack>
          </clipitem>
          <clipitem>
            <name>상도지기_240617_자막.mp4</name>
            <enabled>true</enabled>
            <in>532.3199999999999</in>
            <out>591.8399999999999</out>
            <start>532.3199999999999</start>
            <end>591.8399999999999</end>
            <file id="상도지기_240617_자막.mp4"/>
            <sourcetrack>
              <mediatype>audio</mediatype>
              <trackindex>1</trackindex>
            </sourcetrack>
          </clipitem>
          <clipitem>
            <name>상도지기_240617_자막.mp4</name>
            <enabled>true</enabled>
            <in>591.84</in>
            <out>634.3199999999999</out>
            <start>591.8399999999999</start>
            <end>634.3199999999999</end>
            <file id="상도지기_240617_자막.mp4"/>
            <sourcetrack>
              <mediatype>audio</mediatype>
              <trackindex>1</trackindex>
            </sourcetrack>
          </clipitem>
          <clipitem>
            <name>상도지기_240617_자막.mp4</name>
            <enabled>true</enabled>
            <in>634.3199999999999</in>
            <out>711.1199999999999</out>
            <start>634.3199999999999</start>
            <end>711.1199999999998</end>
            <file id="상도지기_240617_자막.mp4"/>
            <sourcetrack>
              <mediatype>audio</mediatype>
              <trackindex>1</trackindex>
            </sourcetrack>
          </clipitem>
          <clipitem>
            <name>상도지기_240617_자막.mp4</name>
            <enabled>true</enabled>
            <in>711.12</in>
            <out>797.7599999999999</out>
            <start>711.1199999999998</start>
            <end>797.7599999999998</end>
            <file id="상도지기_240617_자막.mp4"/>
            <sourcetrack>
              <mediatype>audio</mediatype>
              <trackindex>1</trackindex>
            </sourcetrack>
          </clipitem>
          <clipitem>
            <name>상도지기_240617_자막.mp4</name>
            <enabled>true</enabled>
            <in>797.76</in>
            <out>851.76</out>
            <start>797.7599999999998</start>
            <end>851.7599999999998</end>
            <file id="상도지기_240617_자막.mp4"/>
            <sourcetrack>
              <mediatype>audio</mediatype>
              <trackindex>1</trackindex>
            </sourcetrack>
          </clipitem>
          <clipitem>
            <name>상도지기_240617_자막.mp4</name>
            <enabled>true</enabled>
            <in>851.76</in>
            <out>937.6800000000001</out>
            <start>851.7599999999998</start>
            <end>937.6799999999996</end>
            <file id="상도지기_240617_자막.mp4"/>
            <sourcetrack>
              <mediatype>audio</mediatype>
              <trackindex>1</trackindex>
            </sourcetrack>
          </clipitem>
          <clipitem>
            <name>상도지기_240617_자막.mp4</name>
            <enabled>true</enabled>
            <in>937.6800000000001</in>
            <out>1015.6799999999998</out>
            <start>937.6799999999996</start>
            <end>1015.6799999999995</end>
            <file id="상도지기_240617_자막.mp4"/>
            <sourcetrack>
              <mediatype>audio</mediatype>
              <trackindex>1</trackindex>
            </sourcetrack>
          </clipitem>
          <clipitem>
            <name>상도지기_240617_자막.mp4</name>
            <enabled>true</enabled>
            <in>1015.6800000000001</in>
            <out>1099.1999999999998</out>
            <start>1015.6799999999995</start>
            <end>1099.1999999999994</end>
            <file id="상도지기_240617_자막.mp4"/>
            <sourcetrack>
              <mediatype>audio</mediatype>
              <trackindex>1</trackindex>
            </sourcetrack>
          </clipitem>
          <clipitem>
            <name>상도지기_240617_자막.mp4</name>
            <enabled>true</enabled>
            <in>1099.1999999999998</in>
            <out>1191.12</out>
            <start>1099.1999999999994</start>
            <end>1191.1199999999994</end>
            <file id="상도지기_240617_자막.mp4"/>
            <sourcetrack>
              <mediatype>audio</mediatype>
              <trackindex>1</trackindex>
            </sourcetrack>
          </clipitem>
          <clipitem>
            <name>상도지기_240617_자막.mp4</name>
            <enabled>true</enabled>
            <in>1191.1200000000001</in>
            <out>1251.1200000000001</out>
            <start>1191.1199999999994</start>
            <end>1251.1199999999994</end>
            <file id="상도지기_240617_자막.mp4"/>
            <sourcetrack>
              <mediatype>audio</mediatype>
              <trackindex>1</trackindex>
            </sourcetrack>
          </clipitem>
          <clipitem>
            <name>상도지기_240617_자막.mp4</name>
            <enabled>true</enabled>
            <in>1251.1200000000001</in>
            <out>1306.32</out>
            <start>1251.1199999999994</start>
            <end>1306.3199999999993</end>
            <file id="상도지기_240617_자막.mp4"/>
            <sourcetrack>
              <mediatype>audio</mediatype>
              <trackindex>1</trackindex>
            </sourcetrack>
          </clipitem>
          <clipitem>
            <name>상도지기_240617_자막.mp4</name>
            <enabled>true</enabled>
            <in>1306.32</in>
            <out>1366.32</out>
            <start>1306.3199999999993</start>
            <end>1366.3199999999993</end>
            <file id="상도지기_240617_자막.mp4"/>
            <sourcetrack>
              <mediatype>audio</mediatype>
              <trackindex>1</trackindex>
            </sourcetrack>
          </clipitem>
          <clipitem>
            <name>상도지기_240617_자막.mp4</name>
            <enabled>true</enabled>
            <in>1366.32</in>
            <out>1441.9199999999998</out>
            <start>1366.3199999999993</start>
            <end>1441.9199999999992</end>
            <file id="상도지기_240617_자막.mp4"/>
            <sourcetrack>
              <mediatype>audio</mediatype>
              <trackindex>1</trackindex>
            </sourcetrack>
          </clipitem>
          <clipitem>
            <name>상도지기_240617_자막.mp4</name>
            <enabled>true</enabled>
            <in>1441.92</in>
            <out>1532.3999999999999</out>
            <start>1441.9199999999992</start>
            <end>1532.399999999999</end>
            <file id="상도지기_240617_자막.mp4"/>
            <sourcetrack>
              <mediatype>audio</mediatype>
              <trackindex>1</trackindex>
            </sourcetrack>
          </clipitem>
          <clipitem>
            <name>상도지기_240617_자막.mp4</name>
            <enabled>true</enabled>
            <in>1532.4</in>
            <out>1591.6800000000003</out>
            <start>1532.399999999999</start>
            <end>1591.6799999999992</end>
            <file id="상도지기_240617_자막.mp4"/>
            <sourcetrack>
              <mediatype>audio</mediatype>
              <trackindex>1</trackindex>
            </sourcetrack>
          </clipitem>
          <clipitem>
            <name>상도지기_240617_자막.mp4</name>
            <enabled>true</enabled>
            <in>1591.6799999999998</in>
            <out>1666.7999999999993</out>
            <start>1591.6799999999992</start>
            <end>1666.7999999999988</end>
            <file id="상도지기_240617_자막.mp4"/>
            <sourcetrack>
              <mediatype>audio</mediatype>
              <trackindex>1</trackindex>
            </sourcetrack>
          </clipitem>
          <clipitem>
            <name>상도지기_240617_자막.mp4</name>
            <enabled>true</enabled>
            <in>1666.8000000000002</in>
            <out>1769.0400000000002</out>
            <start>1666.7999999999988</start>
            <end>1769.0399999999988</end>
            <file id="상도지기_240617_자막.mp4"/>
            <sourcetrack>
              <mediatype>audio</mediatype>
              <trackindex>1</trackindex>
            </sourcetrack>
          </clipitem>
          <clipitem>
            <name>상도지기_240617_자막.mp4</name>
            <enabled>true</enabled>
            <in>1769.04</in>
            <out>1852.0799999999997</out>
            <start>1769.0399999999988</start>
            <end>1852.0799999999986</end>
            <file id="상도지기_240617_자막.mp4"/>
            <sourcetrack>
              <mediatype>audio</mediatype>
              <trackindex>1</trackindex>
            </sourcetrack>
          </clipitem>
          <clipitem>
            <name>상도지기_240617_자막.mp4</name>
            <enabled>true</enabled>
            <in>1852.08</in>
            <out>1891.44</out>
            <start>1852.0799999999986</start>
            <end>1891.4399999999987</end>
            <file id="상도지기_240617_자막.mp4"/>
            <sourcetrack>
              <mediatype>audio</mediatype>
              <trackindex>1</trackindex>
            </sourcetrack>
          </clipitem>
          <clipitem>
            <name>상도지기_240617_자막.mp4</name>
            <enabled>true</enabled>
            <in>1891.44</in>
            <out>1952.4</out>
            <start>1891.4399999999987</start>
            <end>1952.3999999999987</end>
            <file id="상도지기_240617_자막.mp4"/>
            <sourcetrack>
              <mediatype>audio</mediatype>
              <trackindex>1</trackindex>
            </sourcetrack>
          </clipitem>
          <clipitem>
            <name>상도지기_240617_자막.mp4</name>
            <enabled>true</enabled>
            <in>1952.3999999999999</in>
            <out>2065.2</out>
            <start>1952.3999999999987</start>
            <end>2065.1999999999985</end>
            <file id="상도지기_240617_자막.mp4"/>
            <sourcetrack>
              <mediatype>audio</mediatype>
              <trackindex>1</trackindex>
            </sourcetrack>
          </clipitem>
          <clipitem>
            <name>상도지기_240617_자막.mp4</name>
            <enabled>true</enabled>
            <in>2065.2</in>
            <out>2128.08</out>
            <start>2065.1999999999985</start>
            <end>2128.079999999998</end>
            <file id="상도지기_240617_자막.mp4"/>
            <sourcetrack>
              <mediatype>audio</mediatype>
              <trackindex>1</trackindex>
            </sourcetrack>
          </clipitem>
          <clipitem>
            <name>상도지기_240617_자막.mp4</name>
            <enabled>true</enabled>
            <in>2128.08</in>
            <out>2249.76</out>
            <start>2128.079999999998</start>
            <end>2249.7599999999984</end>
            <file id="상도지기_240617_자막.mp4"/>
            <sourcetrack>
              <mediatype>audio</mediatype>
              <trackindex>1</trackindex>
            </sourcetrack>
          </clipitem>
        </track>
        <track>
          <clipitem>
            <name>상도지기_240617_자막.mp4</name>
            <enabled>true</enabled>
            <in>0</in>
            <out>92.64000000000001</out>
            <start>0</start>
            <end>92.64000000000001</end>
            <file id="상도지기_240617_자막.mp4"/>
            <sourcetrack>
              <mediatype>audio</mediatype>
              <trackindex>2</trackindex>
            </sourcetrack>
          </clipitem>
          <clipitem>
            <name>상도지기_240617_자막.mp4</name>
            <enabled>true</enabled>
            <in>92.64</in>
            <out>160.31999999999996</out>
            <start>92.64000000000001</start>
            <end>160.32</end>
            <file id="상도지기_240617_자막.mp4"/>
            <sourcetrack>
              <mediatype>audio</mediatype>
              <trackindex>2</trackindex>
            </sourcetrack>
          </clipitem>
          <clipitem>
            <name>상도지기_240617_자막.mp4</name>
            <enabled>true</enabled>
            <in>160.32</in>
            <out>215.03999999999996</out>
            <start>160.32</start>
            <end>215.03999999999996</end>
            <file id="상도지기_240617_자막.mp4"/>
            <sourcetrack>
              <mediatype>audio</mediatype>
              <trackindex>2</trackindex>
            </sourcetrack>
          </clipitem>
          <clipitem>
            <name>상도지기_240617_자막.mp4</name>
            <enabled>true</enabled>
            <in>215.04000000000002</in>
            <out>293.04</out>
            <start>215.03999999999996</start>
            <end>293.03999999999996</end>
            <file id="상도지기_240617_자막.mp4"/>
            <sourcetrack>
              <mediatype>audio</mediatype>
              <trackindex>2</trackindex>
            </sourcetrack>
          </clipitem>
          <clipitem>
            <name>상도지기_240617_자막.mp4</name>
            <enabled>true</enabled>
            <in>293.04</in>
            <out>360.7200000000001</out>
            <start>293.03999999999996</start>
            <end>360.72</end>
            <file id="상도지기_240617_자막.mp4"/>
            <sourcetrack>
              <mediatype>audio</mediatype>
              <trackindex>2</trackindex>
            </sourcetrack>
          </clipitem>
          <clipitem>
            <name>상도지기_240617_자막.mp4</name>
            <enabled>true</enabled>
            <in>360.71999999999997</in>
            <out>443.27999999999986</out>
            <start>360.72</start>
            <end>443.28</end>
            <file id="상도지기_240617_자막.mp4"/>
            <sourcetrack>
              <mediatype>audio</mediatype>
              <trackindex>2</trackindex>
            </sourcetrack>
          </clipitem>
          <clipitem>
            <name>상도지기_240617_자막.mp4</name>
            <enabled>true</enabled>
            <in>443.28</in>
            <out>532.3199999999999</out>
            <start>443.28</start>
            <end>532.3199999999999</end>
            <file id="상도지기_240617_자막.mp4"/>
            <sourcetrack>
              <mediatype>audio</mediatype>
              <trackindex>2</trackindex>
            </sourcetrack>
          </clipitem>
          <clipitem>
            <name>상도지기_240617_자막.mp4</name>
            <enabled>true</enabled>
            <in>532.3199999999999</in>
            <out>591.8399999999999</out>
            <start>532.3199999999999</start>
            <end>591.8399999999999</end>
            <file id="상도지기_240617_자막.mp4"/>
            <sourcetrack>
              <mediatype>audio</mediatype>
              <trackindex>2</trackindex>
            </sourcetrack>
          </clipitem>
          <clipitem>
            <name>상도지기_240617_자막.mp4</name>
            <enabled>true</enabled>
            <in>591.84</in>
            <out>634.3199999999999</out>
            <start>591.8399999999999</start>
            <end>634.3199999999999</end>
            <file id="상도지기_240617_자막.mp4"/>
            <sourcetrack>
              <mediatype>audio</mediatype>
              <trackindex>2</trackindex>
            </sourcetrack>
          </clipitem>
          <clipitem>
            <name>상도지기_240617_자막.mp4</name>
            <enabled>true</enabled>
            <in>634.3199999999999</in>
            <out>711.1199999999999</out>
            <start>634.3199999999999</start>
            <end>711.1199999999998</end>
            <file id="상도지기_240617_자막.mp4"/>
            <sourcetrack>
              <mediatype>audio</mediatype>
              <trackindex>2</trackindex>
            </sourcetrack>
          </clipitem>
          <clipitem>
            <name>상도지기_240617_자막.mp4</name>
            <enabled>true</enabled>
            <in>711.12</in>
            <out>797.7599999999999</out>
            <start>711.1199999999998</start>
            <end>797.7599999999998</end>
            <file id="상도지기_240617_자막.mp4"/>
            <sourcetrack>
              <mediatype>audio</mediatype>
              <trackindex>2</trackindex>
            </sourcetrack>
          </clipitem>
          <clipitem>
            <name>상도지기_240617_자막.mp4</name>
            <enabled>true</enabled>
            <in>797.76</in>
            <out>851.76</out>
            <start>797.7599999999998</start>
            <end>851.7599999999998</end>
            <file id="상도지기_240617_자막.mp4"/>
            <sourcetrack>
              <mediatype>audio</mediatype>
              <trackindex>2</trackindex>
            </sourcetrack>
          </clipitem>
          <clipitem>
            <name>상도지기_240617_자막.mp4</name>
            <enabled>true</enabled>
            <in>851.76</in>
            <out>937.6800000000001</out>
            <start>851.7599999999998</start>
            <end>937.6799999999996</end>
            <file id="상도지기_240617_자막.mp4"/>
            <sourcetrack>
              <mediatype>audio</mediatype>
              <trackindex>2</trackindex>
            </sourcetrack>
          </clipitem>
          <clipitem>
            <name>상도지기_240617_자막.mp4</name>
            <enabled>true</enabled>
            <in>937.6800000000001</in>
            <out>1015.6799999999998</out>
            <start>937.6799999999996</start>
            <end>1015.6799999999995</end>
            <file id="상도지기_240617_자막.mp4"/>
            <sourcetrack>
              <mediatype>audio</mediatype>
              <trackindex>2</trackindex>
            </sourcetrack>
          </clipitem>
          <clipitem>
            <name>상도지기_240617_자막.mp4</name>
            <enabled>true</enabled>
            <in>1015.6800000000001</in>
            <out>1099.1999999999998</out>
            <start>1015.6799999999995</start>
            <end>1099.1999999999994</end>
            <file id="상도지기_240617_자막.mp4"/>
            <sourcetrack>
              <mediatype>audio</mediatype>
              <trackindex>2</trackindex>
            </sourcetrack>
          </clipitem>
          <clipitem>
            <name>상도지기_240617_자막.mp4</name>
            <enabled>true</enabled>
            <in>1099.1999999999998</in>
            <out>1191.12</out>
            <start>1099.1999999999994</start>
            <end>1191.1199999999994</end>
            <file id="상도지기_240617_자막.mp4"/>
            <sourcetrack>
              <mediatype>audio</mediatype>
              <trackindex>2</trackindex>
            </sourcetrack>
          </clipitem>
          <clipitem>
            <name>상도지기_240617_자막.mp4</name>
            <enabled>true</enabled>
            <in>1191.1200000000001</in>
            <out>1251.1200000000001</out>
            <start>1191.1199999999994</start>
            <end>1251.1199999999994</end>
            <file id="상도지기_240617_자막.mp4"/>
            <sourcetrack>
              <mediatype>audio</mediatype>
              <trackindex>2</trackindex>
            </sourcetrack>
          </clipitem>
          <clipitem>
            <name>상도지기_240617_자막.mp4</name>
            <enabled>true</enabled>
            <in>1251.1200000000001</in>
            <out>1306.32</out>
            <start>1251.1199999999994</start>
            <end>1306.3199999999993</end>
            <file id="상도지기_240617_자막.mp4"/>
            <sourcetrack>
              <mediatype>audio</mediatype>
              <trackindex>2</trackindex>
            </sourcetrack>
          </clipitem>
          <clipitem>
            <name>상도지기_240617_자막.mp4</name>
            <enabled>true</enabled>
            <in>1306.32</in>
            <out>1366.32</out>
            <start>1306.3199999999993</start>
            <end>1366.3199999999993</end>
            <file id="상도지기_240617_자막.mp4"/>
            <sourcetrack>
              <mediatype>audio</mediatype>
              <trackindex>2</trackindex>
            </sourcetrack>
          </clipitem>
          <clipitem>
            <name>상도지기_240617_자막.mp4</name>
            <enabled>true</enabled>
            <in>1366.32</in>
            <out>1441.9199999999998</out>
            <start>1366.3199999999993</start>
            <end>1441.9199999999992</end>
            <file id="상도지기_240617_자막.mp4"/>
            <sourcetrack>
              <mediatype>audio</mediatype>
              <trackindex>2</trackindex>
            </sourcetrack>
          </clipitem>
          <clipitem>
            <name>상도지기_240617_자막.mp4</name>
            <enabled>true</enabled>
            <in>1441.92</in>
            <out>1532.3999999999999</out>
            <start>1441.9199999999992</start>
            <end>1532.399999999999</end>
            <file id="상도지기_240617_자막.mp4"/>
            <sourcetrack>
              <mediatype>audio</mediatype>
              <trackindex>2</trackindex>
            </sourcetrack>
          </clipitem>
          <clipitem>
            <name>상도지기_240617_자막.mp4</name>
            <enabled>true</enabled>
            <in>1532.4</in>
            <out>1591.6800000000003</out>
            <start>1532.399999999999</start>
            <end>1591.6799999999992</end>
            <file id="상도지기_240617_자막.mp4"/>
            <sourcetrack>
              <mediatype>audio</mediatype>
              <trackindex>2</trackindex>
            </sourcetrack>
          </clipitem>
          <clipitem>
            <name>상도지기_240617_자막.mp4</name>
            <enabled>true</enabled>
            <in>1591.6799999999998</in>
            <out>1666.7999999999993</out>
            <start>1591.6799999999992</start>
            <end>1666.7999999999988</end>
            <file id="상도지기_240617_자막.mp4"/>
            <sourcetrack>
              <mediatype>audio</mediatype>
              <trackindex>2</trackindex>
            </sourcetrack>
          </clipitem>
          <clipitem>
            <name>상도지기_240617_자막.mp4</name>
            <enabled>true</enabled>
            <in>1666.8000000000002</in>
            <out>1769.0400000000002</out>
            <start>1666.7999999999988</start>
            <end>1769.0399999999988</end>
            <file id="상도지기_240617_자막.mp4"/>
            <sourcetrack>
              <mediatype>audio</mediatype>
              <trackindex>2</trackindex>
            </sourcetrack>
          </clipitem>
          <clipitem>
            <name>상도지기_240617_자막.mp4</name>
            <enabled>true</enabled>
            <in>1769.04</in>
            <out>1852.0799999999997</out>
            <start>1769.0399999999988</start>
            <end>1852.0799999999986</end>
            <file id="상도지기_240617_자막.mp4"/>
            <sourcetrack>
              <mediatype>audio</mediatype>
              <trackindex>2</trackindex>
            </sourcetrack>
          </clipitem>
          <clipitem>
            <name>상도지기_240617_자막.mp4</name>
            <enabled>true</enabled>
            <in>1852.08</in>
            <out>1891.44</out>
            <start>1852.0799999999986</start>
            <end>1891.4399999999987</end>
            <file id="상도지기_240617_자막.mp4"/>
            <sourcetrack>
              <mediatype>audio</mediatype>
              <trackindex>2</trackindex>
            </sourcetrack>
          </clipitem>
          <clipitem>
            <name>상도지기_240617_자막.mp4</name>
            <enabled>true</enabled>
            <in>1891.44</in>
            <out>1952.4</out>
            <start>1891.4399999999987</start>
            <end>1952.3999999999987</end>
            <file id="상도지기_240617_자막.mp4"/>
            <sourcetrack>
              <mediatype>audio</mediatype>
              <trackindex>2</trackindex>
            </sourcetrack>
          </clipitem>
          <clipitem>
            <name>상도지기_240617_자막.mp4</name>
            <enabled>true</enabled>
            <in>1952.3999999999999</in>
            <out>2065.2</out>
            <start>1952.3999999999987</start>
            <end>2065.1999999999985</end>
            <file id="상도지기_240617_자막.mp4"/>
            <sourcetrack>
              <mediatype>audio</mediatype>
              <trackindex>2</trackindex>
            </sourcetrack>
          </clipitem>
          <clipitem>
            <name>상도지기_240617_자막.mp4</name>
            <enabled>true</enabled>
            <in>2065.2</in>
            <out>2128.08</out>
            <start>2065.1999999999985</start>
            <end>2128.079999999998</end>
            <file id="상도지기_240617_자막.mp4"/>
            <sourcetrack>
              <mediatype>audio</mediatype>
              <trackindex>2</trackindex>
            </sourcetrack>
          </clipitem>
          <clipitem>
            <name>상도지기_240617_자막.mp4</name>
            <enabled>true</enabled>
            <in>2128.08</in>
            <out>2249.76</out>
            <start>2128.079999999998</start>
            <end>2249.7599999999984</end>
            <file id="상도지기_240617_자막.mp4"/>
            <sourcetrack>
              <mediatype>audio</mediatype>
              <trackindex>2</trackindex>
            </sourcetrack>
          </clipitem>
        </track>
      </audio>
    </media>
  </sequence>
</xmeml>