<?xml version="1.0" encoding="utf-8"?>
<xmeml version="5">
  <sequence id="video">
    <name>로운맘의넛지육아_유아기관계기술_01_요약</name>
    <duration>1470</duration>
    <rate>
      <timebase>30</timebase>
      <ntsc>false</ntsc>
    </rate>
    <media>
      <video>
        <format>
          <samplecharacteristics>
            <width>1920</width>
            <height>1080</height>
            <anamorphic>false</anamorphic>
            <pixelaspectratio>square</pixelaspectratio>
            <fielddominance>none</fielddominance>
          </samplecharacteristics>
        </format>
        <track>
          <clipitem>
            <name>로운맘의넛지육아_유아기관계기술_01_요약.mp4</name>
            <enabled>true</enabled>
            <rate>
              <timebase>30</timebase>
              <ntsc>false</ntsc>
            </rate>
            <in>0</in>
            <out>71</out>
            <start>0</start>
            <end>71</end>
            <file id="로운맘의넛지육아_유아기관계기술_01_요약.mp4">
              <name>로운맘의넛지육아_유아기관계기술_01_요약.mp4</name>
              <pathurl>/Volumes/Macintosh HD/Users/ihuijae/Desktop/PythonWorkspace/videos/로운맘의넛지육아_유아기관계기술_01_요약.mp4</pathurl>
              <media>
                <video>
                  <samplecharacteristics>
                    <width>1920</width>
                    <height>1080</height>
                    <anamorphic>true</anamorphic>
                    <pixelaspectratio>square</pixelaspectratio>
                    <fielddominance>none</fielddominance>
                  </samplecharacteristics>
                </video>
                <audio>
                  <in>0</in>
                  <out>1470</out>
                  <channelcount>2</channelcount>
                  <duration>1470</duration>
                </audio>
              </media>
            </file>
            <link>
              <mediatype>video</mediatype>
              <trackindex>1</trackindex>
              <clipindex>1</clipindex>
            </link>
            <link>
              <mediatype>audio</mediatype>
              <trackindex>1</trackindex>
              <clipindex>1</clipindex>
              <groupindex>1</groupindex>
            </link>
            <link>
              <mediatype>audio</mediatype>
              <trackindex>2</trackindex>
              <clipindex>1</clipindex>
              <groupindex>1</groupindex>
            </link>
          </clipitem>
          <clipitem>
            <name>로운맘의넛지육아_유아기관계기술_01_요약.mp4</name>
            <enabled>true</enabled>
            <rate>
              <timebase>30</timebase>
              <ntsc>false</ntsc>
            </rate>
            <in>71</in>
            <out>204</out>
            <start>71</start>
            <end>204</end>
            <file id="로운맘의넛지육아_유아기관계기술_01_요약.mp4">
              <name>로운맘의넛지육아_유아기관계기술_01_요약.mp4</name>
              <pathurl>/Volumes/Macintosh HD/Users/ihuijae/Desktop/PythonWorkspace/videos/로운맘의넛지육아_유아기관계기술_01_요약.mp4</pathurl>
              <media>
                <video>
                  <samplecharacteristics>
                    <width>1920</width>
                    <height>1080</height>
                    <anamorphic>true</anamorphic>
                    <pixelaspectratio>square</pixelaspectratio>
                    <fielddominance>none</fielddominance>
                  </samplecharacteristics>
                </video>
                <audio>
                  <in>0</in>
                  <out>1470</out>
                  <channelcount>2</channelcount>
                  <duration>1470</duration>
                </audio>
              </media>
            </file>
            <link>
              <mediatype>video</mediatype>
              <trackindex>1</trackindex>
              <clipindex>2</clipindex>
            </link>
            <link>
              <mediatype>audio</mediatype>
              <trackindex>1</trackindex>
              <clipindex>2</clipindex>
              <groupindex>2</groupindex>
            </link>
            <link>
              <mediatype>audio</mediatype>
              <trackindex>2</trackindex>
              <clipindex>2</clipindex>
              <groupindex>2</groupindex>
            </link>
          </clipitem>
          <clipitem>
            <name>로운맘의넛지육아_유아기관계기술_01_요약.mp4</name>
            <enabled>true</enabled>
            <rate>
              <timebase>30</timebase>
              <ntsc>false</ntsc>
            </rate>
            <in>204</in>
            <out>310</out>
            <start>204</start>
            <end>310</end>
            <file id="로운맘의넛지육아_유아기관계기술_01_요약.mp4">
              <name>로운맘의넛지육아_유아기관계기술_01_요약.mp4</name>
              <pathurl>/Volumes/Macintosh HD/Users/ihuijae/Desktop/PythonWorkspace/videos/로운맘의넛지육아_유아기관계기술_01_요약.mp4</pathurl>
              <media>
                <video>
                  <samplecharacteristics>
                    <width>1920</width>
                    <height>1080</height>
                    <anamorphic>true</anamorphic>
                    <pixelaspectratio>square</pixelaspectratio>
                    <fielddominance>none</fielddominance>
                  </samplecharacteristics>
                </video>
                <audio>
                  <in>0</in>
                  <out>1470</out>
                  <channelcount>2</channelcount>
                  <duration>1470</duration>
                </audio>
              </media>
            </file>
            <link>
              <mediatype>video</mediatype>
              <trackindex>1</trackindex>
              <clipindex>3</clipindex>
            </link>
            <link>
              <mediatype>audio</mediatype>
              <trackindex>1</trackindex>
              <clipindex>3</clipindex>
              <groupindex>3</groupindex>
            </link>
            <link>
              <mediatype>audio</mediatype>
              <trackindex>2</trackindex>
              <clipindex>3</clipindex>
              <groupindex>3</groupindex>
            </link>
          </clipitem>
          <clipitem>
            <name>로운맘의넛지육아_유아기관계기술_01_요약.mp4</name>
            <enabled>true</enabled>
            <rate>
              <timebase>30</timebase>
              <ntsc>false</ntsc>
            </rate>
            <in>310</in>
            <out>423</out>
            <start>310</start>
            <end>423</end>
            <file id="로운맘의넛지육아_유아기관계기술_01_요약.mp4">
              <name>로운맘의넛지육아_유아기관계기술_01_요약.mp4</name>
              <pathurl>/Volumes/Macintosh HD/Users/ihuijae/Desktop/PythonWorkspace/videos/로운맘의넛지육아_유아기관계기술_01_요약.mp4</pathurl>
              <media>
                <video>
                  <samplecharacteristics>
                    <width>1920</width>
                    <height>1080</height>
                    <anamorphic>true</anamorphic>
                    <pixelaspectratio>square</pixelaspectratio>
                    <fielddominance>none</fielddominance>
                  </samplecharacteristics>
                </video>
                <audio>
                  <in>0</in>
                  <out>1470</out>
                  <channelcount>2</channelcount>
                  <duration>1470</duration>
                </audio>
              </media>
            </file>
            <link>
              <mediatype>video</mediatype>
              <trackindex>1</trackindex>
              <clipindex>4</clipindex>
            </link>
            <link>
              <mediatype>audio</mediatype>
              <trackindex>1</trackindex>
              <clipindex>4</clipindex>
              <groupindex>4</groupindex>
            </link>
            <link>
              <mediatype>audio</mediatype>
              <trackindex>2</trackindex>
              <clipindex>4</clipindex>
              <groupindex>4</groupindex>
            </link>
          </clipitem>
          <clipitem>
            <name>로운맘의넛지육아_유아기관계기술_01_요약.mp4</name>
            <enabled>true</enabled>
            <rate>
              <timebase>30</timebase>
              <ntsc>false</ntsc>
            </rate>
            <in>423</in>
            <out>555</out>
            <start>423</start>
            <end>555</end>
            <file id="로운맘의넛지육아_유아기관계기술_01_요약.mp4">
              <name>로운맘의넛지육아_유아기관계기술_01_요약.mp4</name>
              <pathurl>/Volumes/Macintosh HD/Users/ihuijae/Desktop/PythonWorkspace/videos/로운맘의넛지육아_유아기관계기술_01_요약.mp4</pathurl>
              <media>
                <video>
                  <samplecharacteristics>
                    <width>1920</width>
                    <height>1080</height>
                    <anamorphic>true</anamorphic>
                    <pixelaspectratio>square</pixelaspectratio>
                    <fielddominance>none</fielddominance>
                  </samplecharacteristics>
                </video>
                <audio>
                  <in>0</in>
                  <out>1470</out>
                  <channelcount>2</channelcount>
                  <duration>1470</duration>
                </audio>
              </media>
            </file>
            <link>
              <mediatype>video</mediatype>
              <trackindex>1</trackindex>
              <clipindex>5</clipindex>
            </link>
            <link>
              <mediatype>audio</mediatype>
              <trackindex>1</trackindex>
              <clipindex>5</clipindex>
              <groupindex>5</groupindex>
            </link>
            <link>
              <mediatype>audio</mediatype>
              <trackindex>2</trackindex>
              <clipindex>5</clipindex>
              <groupindex>5</groupindex>
            </link>
          </clipitem>
          <clipitem>
            <name>로운맘의넛지육아_유아기관계기술_01_요약.mp4</name>
            <enabled>true</enabled>
            <rate>
              <timebase>30</timebase>
              <ntsc>false</ntsc>
            </rate>
            <in>555</in>
            <out>775</out>
            <start>555</start>
            <end>775</end>
            <file id="로운맘의넛지육아_유아기관계기술_01_요약.mp4">
              <name>로운맘의넛지육아_유아기관계기술_01_요약.mp4</name>
              <pathurl>/Volumes/Macintosh HD/Users/ihuijae/Desktop/PythonWorkspace/videos/로운맘의넛지육아_유아기관계기술_01_요약.mp4</pathurl>
              <media>
                <video>
                  <samplecharacteristics>
                    <width>1920</width>
                    <height>1080</height>
                    <anamorphic>true</anamorphic>
                    <pixelaspectratio>square</pixelaspectratio>
                    <fielddominance>none</fielddominance>
                  </samplecharacteristics>
                </video>
                <audio>
                  <in>0</in>
                  <out>1470</out>
                  <channelcount>2</channelcount>
                  <duration>1470</duration>
                </audio>
              </media>
            </file>
            <link>
              <mediatype>video</mediatype>
              <trackindex>1</trackindex>
              <clipindex>6</clipindex>
            </link>
            <link>
              <mediatype>audio</mediatype>
              <trackindex>1</trackindex>
              <clipindex>6</clipindex>
              <groupindex>6</groupindex>
            </link>
            <link>
              <mediatype>audio</mediatype>
              <trackindex>2</trackindex>
              <clipindex>6</clipindex>
              <groupindex>6</groupindex>
            </link>
          </clipitem>
          <clipitem>
            <name>로운맘의넛지육아_유아기관계기술_01_요약.mp4</name>
            <enabled>true</enabled>
            <rate>
              <timebase>30</timebase>
              <ntsc>false</ntsc>
            </rate>
            <in>775</in>
            <out>905</out>
            <start>775</start>
            <end>905</end>
            <file id="로운맘의넛지육아_유아기관계기술_01_요약.mp4">
              <name>로운맘의넛지육아_유아기관계기술_01_요약.mp4</name>
              <pathurl>/Volumes/Macintosh HD/Users/ihuijae/Desktop/PythonWorkspace/videos/로운맘의넛지육아_유아기관계기술_01_요약.mp4</pathurl>
              <media>
                <video>
                  <samplecharacteristics>
                    <width>1920</width>
                    <height>1080</height>
                    <anamorphic>true</anamorphic>
                    <pixelaspectratio>square</pixelaspectratio>
                    <fielddominance>none</fielddominance>
                  </samplecharacteristics>
                </video>
                <audio>
                  <in>0</in>
                  <out>1470</out>
                  <channelcount>2</channelcount>
                  <duration>1470</duration>
                </audio>
              </media>
            </file>
            <link>
              <mediatype>video</mediatype>
              <trackindex>1</trackindex>
              <clipindex>7</clipindex>
            </link>
            <link>
              <mediatype>audio</mediatype>
              <trackindex>1</trackindex>
              <clipindex>7</clipindex>
              <groupindex>7</groupindex>
            </link>
            <link>
              <mediatype>audio</mediatype>
              <trackindex>2</trackindex>
              <clipindex>7</clipindex>
              <groupindex>7</groupindex>
            </link>
          </clipitem>
          <clipitem>
            <name>로운맘의넛지육아_유아기관계기술_01_요약.mp4</name>
            <enabled>true</enabled>
            <rate>
              <timebase>30</timebase>
              <ntsc>false</ntsc>
            </rate>
            <in>905</in>
            <out>1060</out>
            <start>905</start>
            <end>1060</end>
            <file id="로운맘의넛지육아_유아기관계기술_01_요약.mp4">
              <name>로운맘의넛지육아_유아기관계기술_01_요약.mp4</name>
              <pathurl>/Volumes/Macintosh HD/Users/ihuijae/Desktop/PythonWorkspace/videos/로운맘의넛지육아_유아기관계기술_01_요약.mp4</pathurl>
              <media>
                <video>
                  <samplecharacteristics>
                    <width>1920</width>
                    <height>1080</height>
                    <anamorphic>true</anamorphic>
                    <pixelaspectratio>square</pixelaspectratio>
                    <fielddominance>none</fielddominance>
                  </samplecharacteristics>
                </video>
                <audio>
                  <in>0</in>
                  <out>1470</out>
                  <channelcount>2</channelcount>
                  <duration>1470</duration>
                </audio>
              </media>
            </file>
            <link>
              <mediatype>video</mediatype>
              <trackindex>1</trackindex>
              <clipindex>8</clipindex>
            </link>
            <link>
              <mediatype>audio</mediatype>
              <trackindex>1</trackindex>
              <clipindex>8</clipindex>
              <groupindex>8</groupindex>
            </link>
            <link>
              <mediatype>audio</mediatype>
              <trackindex>2</trackindex>
              <clipindex>8</clipindex>
              <groupindex>8</groupindex>
            </link>
          </clipitem>
          <clipitem>
            <name>로운맘의넛지육아_유아기관계기술_01_요약.mp4</name>
            <enabled>true</enabled>
            <rate>
              <timebase>30</timebase>
              <ntsc>false</ntsc>
            </rate>
            <in>1060</in>
            <out>1228</out>
            <start>1060</start>
            <end>1228</end>
            <file id="로운맘의넛지육아_유아기관계기술_01_요약.mp4">
              <name>로운맘의넛지육아_유아기관계기술_01_요약.mp4</name>
              <pathurl>/Volumes/Macintosh HD/Users/ihuijae/Desktop/PythonWorkspace/videos/로운맘의넛지육아_유아기관계기술_01_요약.mp4</pathurl>
              <media>
                <video>
                  <samplecharacteristics>
                    <width>1920</width>
                    <height>1080</height>
                    <anamorphic>true</anamorphic>
                    <pixelaspectratio>square</pixelaspectratio>
                    <fielddominance>none</fielddominance>
                  </samplecharacteristics>
                </video>
                <audio>
                  <in>0</in>
                  <out>1470</out>
                  <channelcount>2</channelcount>
                  <duration>1470</duration>
                </audio>
              </media>
            </file>
            <link>
              <mediatype>video</mediatype>
              <trackindex>1</trackindex>
              <clipindex>9</clipindex>
            </link>
            <link>
              <mediatype>audio</mediatype>
              <trackindex>1</trackindex>
              <clipindex>9</clipindex>
              <groupindex>9</groupindex>
            </link>
            <link>
              <mediatype>audio</mediatype>
              <trackindex>2</trackindex>
              <clipindex>9</clipindex>
              <groupindex>9</groupindex>
            </link>
          </clipitem>
          <clipitem>
            <name>로운맘의넛지육아_유아기관계기술_01_요약.mp4</name>
            <enabled>true</enabled>
            <rate>
              <timebase>30</timebase>
              <ntsc>false</ntsc>
            </rate>
            <in>1228</in>
            <out>1377</out>
            <start>1228</start>
            <end>1377</end>
            <file id="로운맘의넛지육아_유아기관계기술_01_요약.mp4">
              <name>로운맘의넛지육아_유아기관계기술_01_요약.mp4</name>
              <pathurl>/Volumes/Macintosh HD/Users/ihuijae/Desktop/PythonWorkspace/videos/로운맘의넛지육아_유아기관계기술_01_요약.mp4</pathurl>
              <media>
                <video>
                  <samplecharacteristics>
                    <width>1920</width>
                    <height>1080</height>
                    <anamorphic>true</anamorphic>
                    <pixelaspectratio>square</pixelaspectratio>
                    <fielddominance>none</fielddominance>
                  </samplecharacteristics>
                </video>
                <audio>
                  <in>0</in>
                  <out>1470</out>
                  <channelcount>2</channelcount>
                  <duration>1470</duration>
                </audio>
              </media>
            </file>
            <link>
              <mediatype>video</mediatype>
              <trackindex>1</trackindex>
              <clipindex>10</clipindex>
            </link>
            <link>
              <mediatype>audio</mediatype>
              <trackindex>1</trackindex>
              <clipindex>10</clipindex>
              <groupindex>10</groupindex>
            </link>
            <link>
              <mediatype>audio</mediatype>
              <trackindex>2</trackindex>
              <clipindex>10</clipindex>
              <groupindex>10</groupindex>
            </link>
          </clipitem>
          <clipitem>
            <name>로운맘의넛지육아_유아기관계기술_01_요약.mp4</name>
            <enabled>true</enabled>
            <rate>
              <timebase>30</timebase>
              <ntsc>false</ntsc>
            </rate>
            <in>1377</in>
            <out>1481</out>
            <start>1377</start>
            <end>1481</end>
            <file id="로운맘의넛지육아_유아기관계기술_01_요약.mp4">
              <name>로운맘의넛지육아_유아기관계기술_01_요약.mp4</name>
              <pathurl>/Volumes/Macintosh HD/Users/ihuijae/Desktop/PythonWorkspace/videos/로운맘의넛지육아_유아기관계기술_01_요약.mp4</pathurl>
              <media>
                <video>
                  <samplecharacteristics>
                    <width>1920</width>
                    <height>1080</height>
                    <anamorphic>true</anamorphic>
                    <pixelaspectratio>square</pixelaspectratio>
                    <fielddominance>none</fielddominance>
                  </samplecharacteristics>
                </video>
                <audio>
                  <in>0</in>
                  <out>1470</out>
                  <channelcount>2</channelcount>
                  <duration>1470</duration>
                </audio>
              </media>
            </file>
            <link>
              <mediatype>video</mediatype>
              <trackindex>1</trackindex>
              <clipindex>11</clipindex>
            </link>
            <link>
              <mediatype>audio</mediatype>
              <trackindex>1</trackindex>
              <clipindex>11</clipindex>
              <groupindex>11</groupindex>
            </link>
            <link>
              <mediatype>audio</mediatype>
              <trackindex>2</trackindex>
              <clipindex>11</clipindex>
              <groupindex>11</groupindex>
            </link>
          </clipitem>
        </track>
      </video>
      <audio>
        <numOutputChannels>2</numOutputChannels>
        <format>
          <samplecharacteristics>
            <samplerate>48000</samplerate>
            <depth>16</depth>
          </samplecharacteristics>
        </format>
        <outputs>
          <group>
            <index>1</index>
            <numchannels>2</numchannels>
            <downmix>0</downmix>
            <channel>
              <index>1</index>
            </channel>
            <channel>
              <index>2</index>
            </channel>
          </group>
        </outputs>
        <track>
          <clipitem>
            <name>로운맘의넛지육아_유아기관계기술_01_요약.mp4</name>
            <enabled>true</enabled>
            <in>0</in>
            <out>71</out>
            <start>0</start>
            <end>71</end>
            <file id="로운맘의넛지육아_유아기관계기술_01_요약.mp4"/>
            <sourcetrack>
              <mediatype>audio</mediatype>
              <trackindex>1</trackindex>
            </sourcetrack>
          </clipitem>
          <clipitem>
            <name>로운맘의넛지육아_유아기관계기술_01_요약.mp4</name>
            <enabled>true</enabled>
            <in>71</in>
            <out>204</out>
            <start>71</start>
            <end>204</end>
            <file id="로운맘의넛지육아_유아기관계기술_01_요약.mp4"/>
            <sourcetrack>
              <mediatype>audio</mediatype>
              <trackindex>1</trackindex>
            </sourcetrack>
          </clipitem>
          <clipitem>
            <name>로운맘의넛지육아_유아기관계기술_01_요약.mp4</name>
            <enabled>true</enabled>
            <in>204</in>
            <out>310</out>
            <start>204</start>
            <end>310</end>
            <file id="로운맘의넛지육아_유아기관계기술_01_요약.mp4"/>
            <sourcetrack>
              <mediatype>audio</mediatype>
              <trackindex>1</trackindex>
            </sourcetrack>
          </clipitem>
          <clipitem>
            <name>로운맘의넛지육아_유아기관계기술_01_요약.mp4</name>
            <enabled>true</enabled>
            <in>310</in>
            <out>423</out>
            <start>310</start>
            <end>423</end>
            <file id="로운맘의넛지육아_유아기관계기술_01_요약.mp4"/>
            <sourcetrack>
              <mediatype>audio</mediatype>
              <trackindex>1</trackindex>
            </sourcetrack>
          </clipitem>
          <clipitem>
            <name>로운맘의넛지육아_유아기관계기술_01_요약.mp4</name>
            <enabled>true</enabled>
            <in>423</in>
            <out>555</out>
            <start>423</start>
            <end>555</end>
            <file id="로운맘의넛지육아_유아기관계기술_01_요약.mp4"/>
            <sourcetrack>
              <mediatype>audio</mediatype>
              <trackindex>1</trackindex>
            </sourcetrack>
          </clipitem>
          <clipitem>
            <name>로운맘의넛지육아_유아기관계기술_01_요약.mp4</name>
            <enabled>true</enabled>
            <in>555</in>
            <out>775</out>
            <start>555</start>
            <end>775</end>
            <file id="로운맘의넛지육아_유아기관계기술_01_요약.mp4"/>
            <sourcetrack>
              <mediatype>audio</mediatype>
              <trackindex>1</trackindex>
            </sourcetrack>
          </clipitem>
          <clipitem>
            <name>로운맘의넛지육아_유아기관계기술_01_요약.mp4</name>
            <enabled>true</enabled>
            <in>775</in>
            <out>905</out>
            <start>775</start>
            <end>905</end>
            <file id="로운맘의넛지육아_유아기관계기술_01_요약.mp4"/>
            <sourcetrack>
              <mediatype>audio</mediatype>
              <trackindex>1</trackindex>
            </sourcetrack>
          </clipitem>
          <clipitem>
            <name>로운맘의넛지육아_유아기관계기술_01_요약.mp4</name>
            <enabled>true</enabled>
            <in>905</in>
            <out>1060</out>
            <start>905</start>
            <end>1060</end>
            <file id="로운맘의넛지육아_유아기관계기술_01_요약.mp4"/>
            <sourcetrack>
              <mediatype>audio</mediatype>
              <trackindex>1</trackindex>
            </sourcetrack>
          </clipitem>
          <clipitem>
            <name>로운맘의넛지육아_유아기관계기술_01_요약.mp4</name>
            <enabled>true</enabled>
            <in>1060</in>
            <out>1228</out>
            <start>1060</start>
            <end>1228</end>
            <file id="로운맘의넛지육아_유아기관계기술_01_요약.mp4"/>
            <sourcetrack>
              <mediatype>audio</mediatype>
              <trackindex>1</trackindex>
            </sourcetrack>
          </clipitem>
          <clipitem>
            <name>로운맘의넛지육아_유아기관계기술_01_요약.mp4</name>
            <enabled>true</enabled>
            <in>1228</in>
            <out>1377</out>
            <start>1228</start>
            <end>1377</end>
            <file id="로운맘의넛지육아_유아기관계기술_01_요약.mp4"/>
            <sourcetrack>
              <mediatype>audio</mediatype>
              <trackindex>1</trackindex>
            </sourcetrack>
          </clipitem>
          <clipitem>
            <name>로운맘의넛지육아_유아기관계기술_01_요약.mp4</name>
            <enabled>true</enabled>
            <in>1377</in>
            <out>1481</out>
            <start>1377</start>
            <end>1481</end>
            <file id="로운맘의넛지육아_유아기관계기술_01_요약.mp4"/>
            <sourcetrack>
              <mediatype>audio</mediatype>
              <trackindex>1</trackindex>
            </sourcetrack>
          </clipitem>
        </track>
        <track>
          <clipitem>
            <name>로운맘의넛지육아_유아기관계기술_01_요약.mp4</name>
            <enabled>true</enabled>
            <in>0</in>
            <out>71</out>
            <start>0</start>
            <end>71</end>
            <file id="로운맘의넛지육아_유아기관계기술_01_요약.mp4"/>
            <sourcetrack>
              <mediatype>audio</mediatype>
              <trackindex>2</trackindex>
            </sourcetrack>
          </clipitem>
          <clipitem>
            <name>로운맘의넛지육아_유아기관계기술_01_요약.mp4</name>
            <enabled>true</enabled>
            <in>71</in>
            <out>204</out>
            <start>71</start>
            <end>204</end>
            <file id="로운맘의넛지육아_유아기관계기술_01_요약.mp4"/>
            <sourcetrack>
              <mediatype>audio</mediatype>
              <trackindex>2</trackindex>
            </sourcetrack>
          </clipitem>
          <clipitem>
            <name>로운맘의넛지육아_유아기관계기술_01_요약.mp4</name>
            <enabled>true</enabled>
            <in>204</in>
            <out>310</out>
            <start>204</start>
            <end>310</end>
            <file id="로운맘의넛지육아_유아기관계기술_01_요약.mp4"/>
            <sourcetrack>
              <mediatype>audio</mediatype>
              <trackindex>2</trackindex>
            </sourcetrack>
          </clipitem>
          <clipitem>
            <name>로운맘의넛지육아_유아기관계기술_01_요약.mp4</name>
            <enabled>true</enabled>
            <in>310</in>
            <out>423</out>
            <start>310</start>
            <end>423</end>
            <file id="로운맘의넛지육아_유아기관계기술_01_요약.mp4"/>
            <sourcetrack>
              <mediatype>audio</mediatype>
              <trackindex>2</trackindex>
            </sourcetrack>
          </clipitem>
          <clipitem>
            <name>로운맘의넛지육아_유아기관계기술_01_요약.mp4</name>
            <enabled>true</enabled>
            <in>423</in>
            <out>555</out>
            <start>423</start>
            <end>555</end>
            <file id="로운맘의넛지육아_유아기관계기술_01_요약.mp4"/>
            <sourcetrack>
              <mediatype>audio</mediatype>
              <trackindex>2</trackindex>
            </sourcetrack>
          </clipitem>
          <clipitem>
            <name>로운맘의넛지육아_유아기관계기술_01_요약.mp4</name>
            <enabled>true</enabled>
            <in>555</in>
            <out>775</out>
            <start>555</start>
            <end>775</end>
            <file id="로운맘의넛지육아_유아기관계기술_01_요약.mp4"/>
            <sourcetrack>
              <mediatype>audio</mediatype>
              <trackindex>2</trackindex>
            </sourcetrack>
          </clipitem>
          <clipitem>
            <name>로운맘의넛지육아_유아기관계기술_01_요약.mp4</name>
            <enabled>true</enabled>
            <in>775</in>
            <out>905</out>
            <start>775</start>
            <end>905</end>
            <file id="로운맘의넛지육아_유아기관계기술_01_요약.mp4"/>
            <sourcetrack>
              <mediatype>audio</mediatype>
              <trackindex>2</trackindex>
            </sourcetrack>
          </clipitem>
          <clipitem>
            <name>로운맘의넛지육아_유아기관계기술_01_요약.mp4</name>
            <enabled>true</enabled>
            <in>905</in>
            <out>1060</out>
            <start>905</start>
            <end>1060</end>
            <file id="로운맘의넛지육아_유아기관계기술_01_요약.mp4"/>
            <sourcetrack>
              <mediatype>audio</mediatype>
              <trackindex>2</trackindex>
            </sourcetrack>
          </clipitem>
          <clipitem>
            <name>로운맘의넛지육아_유아기관계기술_01_요약.mp4</name>
            <enabled>true</enabled>
            <in>1060</in>
            <out>1228</out>
            <start>1060</start>
            <end>1228</end>
            <file id="로운맘의넛지육아_유아기관계기술_01_요약.mp4"/>
            <sourcetrack>
              <mediatype>audio</mediatype>
              <trackindex>2</trackindex>
            </sourcetrack>
          </clipitem>
          <clipitem>
            <name>로운맘의넛지육아_유아기관계기술_01_요약.mp4</name>
            <enabled>true</enabled>
            <in>1228</in>
            <out>1377</out>
            <start>1228</start>
            <end>1377</end>
            <file id="로운맘의넛지육아_유아기관계기술_01_요약.mp4"/>
            <sourcetrack>
              <mediatype>audio</mediatype>
              <trackindex>2</trackindex>
            </sourcetrack>
          </clipitem>
          <clipitem>
            <name>로운맘의넛지육아_유아기관계기술_01_요약.mp4</name>
            <enabled>true</enabled>
            <in>1377</in>
            <out>1481</out>
            <start>1377</start>
            <end>1481</end>
            <file id="로운맘의넛지육아_유아기관계기술_01_요약.mp4"/>
            <sourcetrack>
              <mediatype>audio</mediatype>
              <trackindex>2</trackindex>
            </sourcetrack>
          </clipitem>
        </track>
      </audio>
      <video>
        <track>
          <generatoritem id="자막1">
            <name>박사님은 흔쾌히 좋아요라고 하시고는</name>
            <duration>2.36</duration>
            <rate>
              <timebase>30</timebase>
              <ntsc>false</ntsc>
            </rate>
            <start>0</start>
            <end>71</end>
            <in>0</in>
            <out>71</out>
            <enabled>true</enabled>
            <anamorphic>false</anamorphic>
            <alphatype>black</alphatype>
            <masterclipid>자막1</masterclipid>
            <effect>
              <name>Outline Text</name>
              <effectid>Outline Text</effectid>
              <effectcategory>Text</effectcategory>
              <effecttype>generator</effecttype>
              <mediatype>video</mediatype>
              <parameter>
                <parameterid>part1</parameterid>
                <name>Text Settings</name>
                <value/>
              </parameter>
              <parameter>
                <parameterid>str</parameterid>
                <name>Text</name>
                <value>박사님은 흔쾌히 좋아요라고 하시고는</value>
              </parameter>
              <parameter>
                <parameterid>font</parameterid>
                <name>Font</name>
                <value>AppleSDGothicNeo-Regular</value>
              </parameter>
              <parameter>
                <parameterid>style</parameterid>
                <name>Style</name>
                <valuemin>1</valuemin>
                <valuemax>1</valuemax>
                <valuelist>
                  <valueentry>
                    <name>Regular</name>
                    <value>1</value>
                  </valueentry>
                </valuelist>
                <value>1</value>
              </parameter>
              <parameter>
                <parameterid>align</parameterid>
                <name>Alignment</name>
                <valuemin>1</valuemin>
                <valuemax>3</valuemax>
                <valuelist>
                  <valueentry>
                    <name>Left</name>
                    <value>1</value>
                  </valueentry>
                  <valueentry>
                    <name>Center</name>
                    <value>2</value>
                  </valueentry>
                  <valueentry>
                    <name>Right</name>
                    <value>3</value>
                  </valueentry>
                </valuelist>
                <value>2</value>
              </parameter>
              <parameter>
                <parameterid>size</parameterid>
                <name>Size</name>
                <valuemin>0</valuemin>
                <valuemax>200</valuemax>
                <value>24</value>
              </parameter>
              <parameter>
                <parameterid>track</parameterid>
                <name>Tracking</name>
                <valuemin>0</valuemin>
                <valuemax>100</valuemax>
                <value>1</value>
              </parameter>
              <parameter>
                <parameterid>lead</parameterid>
                <name>Leading</name>
                <valuemin>-100</valuemin>
                <valuemax>100</valuemax>
                <value>0</value>
              </parameter>
              <parameter>
                <parameterid>aspect</parameterid>
                <name>Aspect</name>
                <valuemin>0</valuemin>
                <valuemax>4</valuemax>
                <value>1</value>
              </parameter>
              <parameter>
                <parameterid>linewidth</parameterid>
                <name>Line Width</name>
                <valuemin>0</valuemin>
                <valuemax>200</valuemax>
                <value>2</value>
              </parameter>
              <parameter>
                <parameterid>linesoft</parameterid>
                <name>Line Softness</name>
                <valuemin>0</valuemin>
                <valuemax>100</valuemax>
                <value>5</value>
              </parameter>
              <parameter>
                <parameterid>textopacity</parameterid>
                <name>Text Opacity</name>
                <valuemin>0</valuemin>
                <valuemax>100</valuemax>
                <value>100</value>
              </parameter>
              <parameter>
                <parameterid>center</parameterid>
                <name>Center</name>
                <value>
                  <horiz>0</horiz>
                  <vert>0.4703703703703703</vert>
                </value>
              </parameter>
              <parameter>
                <parameterid>textcolor</parameterid>
                <name>Text Color</name>
                <value>
                  <alpha>255</alpha>
                  <red>255</red>
                  <green>255</green>
                  <blue>255</blue>
                </value>
              </parameter>
              <parameter>
                <parameterid>supertext</parameterid>
                <name>Text Graphic</name>
              </parameter>
              <parameter>
                <parameterid>linecolor</parameterid>
                <name>Line Color</name>
                <value>
                  <alpha>255</alpha>
                  <red>0</red>
                  <green>0</green>
                  <blue>0</blue>
                </value>
              </parameter>
              <parameter>
                <parameterid>superline</parameterid>
                <name>Line Graphic</name>
              </parameter>
              <parameter>
                <parameterid>part2</parameterid>
                <name>Background Settings</name>
              </parameter>
              <parameter>
                <parameterid>xscale</parameterid>
                <name>Horizontal Size</name>
                <valuemin>0</valuemin>
                <valuemax>200</valuemax>
                <value>0</value>
              </parameter>
              <parameter>
                <parameterid>yscale</parameterid>
                <name>Vertical Size</name>
                <valuemin>0</valuemin>
                <valuemax>200</valuemax>
                <value>0</value>
              </parameter>
              <parameter>
                <parameterid>xoffset</parameterid>
                <name>Horizontal Offset</name>
                <valuemin>-100</valuemin>
                <valuemax>100</valuemax>
                <value>0</value>
              </parameter>
              <parameter>
                <parameterid>yoffset</parameterid>
                <name>Vertical Offset</name>
                <valuemin>-100</valuemin>
                <valuemax>100</valuemax>
                <value>0</value>
              </parameter>
              <parameter>
                <parameterid>backsoft</parameterid>
                <name>Back Soft</name>
                <valuemin>0</valuemin>
                <valuemax>100</valuemax>
                <value>0</value>
              </parameter>
              <parameter>
                <parameterid>backopacity</parameterid>
                <name>Back Opacity</name>
                <valuemin>0</valuemin>
                <valuemax>100</valuemax>
                <value>50</value>
              </parameter>
              <parameter>
                <parameterid>backcolor</parameterid>
                <name>Back Color</name>
                <value>
                  <alpha>255</alpha>
                  <red>255</red>
                  <green>255</green>
                  <blue>255</blue>
                </value>
              </parameter>
              <parameter>
                <parameterid>superback</parameterid>
                <name>Back Graphic</name>
              </parameter>
              <parameter>
                <parameterid>crop</parameterid>
                <name>Crop</name>
                <value>false</value>
              </parameter>
              <parameter>
                <parameterid>autokern</parameterid>
                <name>Auto Kerning</name>
                <value>true</value>
              </parameter>
            </effect>
            <sourcetrack>
              <mediatype>video</mediatype>
            </sourcetrack>
          </generatoritem>
          <generatoritem id="자막2">
            <name>관계의 시작은 감정을 읽는 연습에서부터 출발한다고 말씀하셨어요.</name>
            <duration>4.4399999999999995</duration>
            <rate>
              <timebase>30</timebase>
              <ntsc>false</ntsc>
            </rate>
            <start>71</start>
            <end>204</end>
            <in>71</in>
            <out>204</out>
            <enabled>true</enabled>
            <anamorphic>false</anamorphic>
            <alphatype>black</alphatype>
            <masterclipid>자막2</masterclipid>
            <effect>
              <name>Outline Text</name>
              <effectid>Outline Text</effectid>
              <effectcategory>Text</effectcategory>
              <effecttype>generator</effecttype>
              <mediatype>video</mediatype>
              <parameter>
                <parameterid>part1</parameterid>
                <name>Text Settings</name>
                <value/>
              </parameter>
              <parameter>
                <parameterid>str</parameterid>
                <name>Text</name>
                <value>관계의 시작은 감정을 읽는 연습에서부터 출발한다고 말씀하셨어요.</value>
              </parameter>
              <parameter>
                <parameterid>font</parameterid>
                <name>Font</name>
                <value>AppleSDGothicNeo-Regular</value>
              </parameter>
              <parameter>
                <parameterid>style</parameterid>
                <name>Style</name>
                <valuemin>1</valuemin>
                <valuemax>1</valuemax>
                <valuelist>
                  <valueentry>
                    <name>Regular</name>
                    <value>1</value>
                  </valueentry>
                </valuelist>
                <value>1</value>
              </parameter>
              <parameter>
                <parameterid>align</parameterid>
                <name>Alignment</name>
                <valuemin>1</valuemin>
                <valuemax>3</valuemax>
                <valuelist>
                  <valueentry>
                    <name>Left</name>
                    <value>1</value>
                  </valueentry>
                  <valueentry>
                    <name>Center</name>
                    <value>2</value>
                  </valueentry>
                  <valueentry>
                    <name>Right</name>
                    <value>3</value>
                  </valueentry>
                </valuelist>
                <value>2</value>
              </parameter>
              <parameter>
                <parameterid>size</parameterid>
                <name>Size</name>
                <valuemin>0</valuemin>
                <valuemax>200</valuemax>
                <value>24</value>
              </parameter>
              <parameter>
                <parameterid>track</parameterid>
                <name>Tracking</name>
                <valuemin>0</valuemin>
                <valuemax>100</valuemax>
                <value>1</value>
              </parameter>
              <parameter>
                <parameterid>lead</parameterid>
                <name>Leading</name>
                <valuemin>-100</valuemin>
                <valuemax>100</valuemax>
                <value>0</value>
              </parameter>
              <parameter>
                <parameterid>aspect</parameterid>
                <name>Aspect</name>
                <valuemin>0</valuemin>
                <valuemax>4</valuemax>
                <value>1</value>
              </parameter>
              <parameter>
                <parameterid>linewidth</parameterid>
                <name>Line Width</name>
                <valuemin>0</valuemin>
                <valuemax>200</valuemax>
                <value>2</value>
              </parameter>
              <parameter>
                <parameterid>linesoft</parameterid>
                <name>Line Softness</name>
                <valuemin>0</valuemin>
                <valuemax>100</valuemax>
                <value>5</value>
              </parameter>
              <parameter>
                <parameterid>textopacity</parameterid>
                <name>Text Opacity</name>
                <valuemin>0</valuemin>
                <valuemax>100</valuemax>
                <value>100</value>
              </parameter>
              <parameter>
                <parameterid>center</parameterid>
                <name>Center</name>
                <value>
                  <horiz>0</horiz>
                  <vert>0.4703703703703703</vert>
                </value>
              </parameter>
              <parameter>
                <parameterid>textcolor</parameterid>
                <name>Text Color</name>
                <value>
                  <alpha>255</alpha>
                  <red>255</red>
                  <green>255</green>
                  <blue>255</blue>
                </value>
              </parameter>
              <parameter>
                <parameterid>supertext</parameterid>
                <name>Text Graphic</name>
              </parameter>
              <parameter>
                <parameterid>linecolor</parameterid>
                <name>Line Color</name>
                <value>
                  <alpha>255</alpha>
                  <red>0</red>
                  <green>0</green>
                  <blue>0</blue>
                </value>
              </parameter>
              <parameter>
                <parameterid>superline</parameterid>
                <name>Line Graphic</name>
              </parameter>
              <parameter>
                <parameterid>part2</parameterid>
                <name>Background Settings</name>
              </parameter>
              <parameter>
                <parameterid>xscale</parameterid>
                <name>Horizontal Size</name>
                <valuemin>0</valuemin>
                <valuemax>200</valuemax>
                <value>0</value>
              </parameter>
              <parameter>
                <parameterid>yscale</parameterid>
                <name>Vertical Size</name>
                <valuemin>0</valuemin>
                <valuemax>200</valuemax>
                <value>0</value>
              </parameter>
              <parameter>
                <parameterid>xoffset</parameterid>
                <name>Horizontal Offset</name>
                <valuemin>-100</valuemin>
                <valuemax>100</valuemax>
                <value>0</value>
              </parameter>
              <parameter>
                <parameterid>yoffset</parameterid>
                <name>Vertical Offset</name>
                <valuemin>-100</valuemin>
                <valuemax>100</valuemax>
                <value>0</value>
              </parameter>
              <parameter>
                <parameterid>backsoft</parameterid>
                <name>Back Soft</name>
                <valuemin>0</valuemin>
                <valuemax>100</valuemax>
                <value>0</value>
              </parameter>
              <parameter>
                <parameterid>backopacity</parameterid>
                <name>Back Opacity</name>
                <valuemin>0</valuemin>
                <valuemax>100</valuemax>
                <value>50</value>
              </parameter>
              <parameter>
                <parameterid>backcolor</parameterid>
                <name>Back Color</name>
                <value>
                  <alpha>255</alpha>
                  <red>255</red>
                  <green>255</green>
                  <blue>255</blue>
                </value>
              </parameter>
              <parameter>
                <parameterid>superback</parameterid>
                <name>Back Graphic</name>
              </parameter>
              <parameter>
                <parameterid>crop</parameterid>
                <name>Crop</name>
                <value>false</value>
              </parameter>
              <parameter>
                <parameterid>autokern</parameterid>
                <name>Auto Kerning</name>
                <value>true</value>
              </parameter>
            </effect>
            <sourcetrack>
              <mediatype>video</mediatype>
            </sourcetrack>
          </generatoritem>
          <generatoritem id="자막3">
            <name>처음엔 낯설어하며 조심스럽던 소망이가</name>
            <duration>3.54</duration>
            <rate>
              <timebase>30</timebase>
              <ntsc>false</ntsc>
            </rate>
            <start>204</start>
            <end>310</end>
            <in>204</in>
            <out>310</out>
            <enabled>true</enabled>
            <anamorphic>false</anamorphic>
            <alphatype>black</alphatype>
            <masterclipid>자막3</masterclipid>
            <effect>
              <name>Outline Text</name>
              <effectid>Outline Text</effectid>
              <effectcategory>Text</effectcategory>
              <effecttype>generator</effecttype>
              <mediatype>video</mediatype>
              <parameter>
                <parameterid>part1</parameterid>
                <name>Text Settings</name>
                <value/>
              </parameter>
              <parameter>
                <parameterid>str</parameterid>
                <name>Text</name>
                <value>처음엔 낯설어하며 조심스럽던 소망이가</value>
              </parameter>
              <parameter>
                <parameterid>font</parameterid>
                <name>Font</name>
                <value>AppleSDGothicNeo-Regular</value>
              </parameter>
              <parameter>
                <parameterid>style</parameterid>
                <name>Style</name>
                <valuemin>1</valuemin>
                <valuemax>1</valuemax>
                <valuelist>
                  <valueentry>
                    <name>Regular</name>
                    <value>1</value>
                  </valueentry>
                </valuelist>
                <value>1</value>
              </parameter>
              <parameter>
                <parameterid>align</parameterid>
                <name>Alignment</name>
                <valuemin>1</valuemin>
                <valuemax>3</valuemax>
                <valuelist>
                  <valueentry>
                    <name>Left</name>
                    <value>1</value>
                  </valueentry>
                  <valueentry>
                    <name>Center</name>
                    <value>2</value>
                  </valueentry>
                  <valueentry>
                    <name>Right</name>
                    <value>3</value>
                  </valueentry>
                </valuelist>
                <value>2</value>
              </parameter>
              <parameter>
                <parameterid>size</parameterid>
                <name>Size</name>
                <valuemin>0</valuemin>
                <valuemax>200</valuemax>
                <value>24</value>
              </parameter>
              <parameter>
                <parameterid>track</parameterid>
                <name>Tracking</name>
                <valuemin>0</valuemin>
                <valuemax>100</valuemax>
                <value>1</value>
              </parameter>
              <parameter>
                <parameterid>lead</parameterid>
                <name>Leading</name>
                <valuemin>-100</valuemin>
                <valuemax>100</valuemax>
                <value>0</value>
              </parameter>
              <parameter>
                <parameterid>aspect</parameterid>
                <name>Aspect</name>
                <valuemin>0</valuemin>
                <valuemax>4</valuemax>
                <value>1</value>
              </parameter>
              <parameter>
                <parameterid>linewidth</parameterid>
                <name>Line Width</name>
                <valuemin>0</valuemin>
                <valuemax>200</valuemax>
                <value>2</value>
              </parameter>
              <parameter>
                <parameterid>linesoft</parameterid>
                <name>Line Softness</name>
                <valuemin>0</valuemin>
                <valuemax>100</valuemax>
                <value>5</value>
              </parameter>
              <parameter>
                <parameterid>textopacity</parameterid>
                <name>Text Opacity</name>
                <valuemin>0</valuemin>
                <valuemax>100</valuemax>
                <value>100</value>
              </parameter>
              <parameter>
                <parameterid>center</parameterid>
                <name>Center</name>
                <value>
                  <horiz>0</horiz>
                  <vert>0.4703703703703703</vert>
                </value>
              </parameter>
              <parameter>
                <parameterid>textcolor</parameterid>
                <name>Text Color</name>
                <value>
                  <alpha>255</alpha>
                  <red>255</red>
                  <green>255</green>
                  <blue>255</blue>
                </value>
              </parameter>
              <parameter>
                <parameterid>supertext</parameterid>
                <name>Text Graphic</name>
              </parameter>
              <parameter>
                <parameterid>linecolor</parameterid>
                <name>Line Color</name>
                <value>
                  <alpha>255</alpha>
                  <red>0</red>
                  <green>0</green>
                  <blue>0</blue>
                </value>
              </parameter>
              <parameter>
                <parameterid>superline</parameterid>
                <name>Line Graphic</name>
              </parameter>
              <parameter>
                <parameterid>part2</parameterid>
                <name>Background Settings</name>
              </parameter>
              <parameter>
                <parameterid>xscale</parameterid>
                <name>Horizontal Size</name>
                <valuemin>0</valuemin>
                <valuemax>200</valuemax>
                <value>0</value>
              </parameter>
              <parameter>
                <parameterid>yscale</parameterid>
                <name>Vertical Size</name>
                <valuemin>0</valuemin>
                <valuemax>200</valuemax>
                <value>0</value>
              </parameter>
              <parameter>
                <parameterid>xoffset</parameterid>
                <name>Horizontal Offset</name>
                <valuemin>-100</valuemin>
                <valuemax>100</valuemax>
                <value>0</value>
              </parameter>
              <parameter>
                <parameterid>yoffset</parameterid>
                <name>Vertical Offset</name>
                <valuemin>-100</valuemin>
                <valuemax>100</valuemax>
                <value>0</value>
              </parameter>
              <parameter>
                <parameterid>backsoft</parameterid>
                <name>Back Soft</name>
                <valuemin>0</valuemin>
                <valuemax>100</valuemax>
                <value>0</value>
              </parameter>
              <parameter>
                <parameterid>backopacity</parameterid>
                <name>Back Opacity</name>
                <valuemin>0</valuemin>
                <valuemax>100</valuemax>
                <value>50</value>
              </parameter>
              <parameter>
                <parameterid>backcolor</parameterid>
                <name>Back Color</name>
                <value>
                  <alpha>255</alpha>
                  <red>255</red>
                  <green>255</green>
                  <blue>255</blue>
                </value>
              </parameter>
              <parameter>
                <parameterid>superback</parameterid>
                <name>Back Graphic</name>
              </parameter>
              <parameter>
                <parameterid>crop</parameterid>
                <name>Crop</name>
                <value>false</value>
              </parameter>
              <parameter>
                <parameterid>autokern</parameterid>
                <name>Auto Kerning</name>
                <value>true</value>
              </parameter>
            </effect>
            <sourcetrack>
              <mediatype>video</mediatype>
            </sourcetrack>
          </generatoritem>
          <generatoritem id="자막4">
            <name>점점 박사님의 표정을 보면서 작게 이야기하기 시작했어요.</name>
            <duration>3.76</duration>
            <rate>
              <timebase>30</timebase>
              <ntsc>false</ntsc>
            </rate>
            <start>310</start>
            <end>423</end>
            <in>310</in>
            <out>423</out>
            <enabled>true</enabled>
            <anamorphic>false</anamorphic>
            <alphatype>black</alphatype>
            <masterclipid>자막4</masterclipid>
            <effect>
              <name>Outline Text</name>
              <effectid>Outline Text</effectid>
              <effectcategory>Text</effectcategory>
              <effecttype>generator</effecttype>
              <mediatype>video</mediatype>
              <parameter>
                <parameterid>part1</parameterid>
                <name>Text Settings</name>
                <value/>
              </parameter>
              <parameter>
                <parameterid>str</parameterid>
                <name>Text</name>
                <value>점점 박사님의 표정을 보면서 작게 이야기하기 시작했어요.</value>
              </parameter>
              <parameter>
                <parameterid>font</parameterid>
                <name>Font</name>
                <value>AppleSDGothicNeo-Regular</value>
              </parameter>
              <parameter>
                <parameterid>style</parameterid>
                <name>Style</name>
                <valuemin>1</valuemin>
                <valuemax>1</valuemax>
                <valuelist>
                  <valueentry>
                    <name>Regular</name>
                    <value>1</value>
                  </valueentry>
                </valuelist>
                <value>1</value>
              </parameter>
              <parameter>
                <parameterid>align</parameterid>
                <name>Alignment</name>
                <valuemin>1</valuemin>
                <valuemax>3</valuemax>
                <valuelist>
                  <valueentry>
                    <name>Left</name>
                    <value>1</value>
                  </valueentry>
                  <valueentry>
                    <name>Center</name>
                    <value>2</value>
                  </valueentry>
                  <valueentry>
                    <name>Right</name>
                    <value>3</value>
                  </valueentry>
                </valuelist>
                <value>2</value>
              </parameter>
              <parameter>
                <parameterid>size</parameterid>
                <name>Size</name>
                <valuemin>0</valuemin>
                <valuemax>200</valuemax>
                <value>24</value>
              </parameter>
              <parameter>
                <parameterid>track</parameterid>
                <name>Tracking</name>
                <valuemin>0</valuemin>
                <valuemax>100</valuemax>
                <value>1</value>
              </parameter>
              <parameter>
                <parameterid>lead</parameterid>
                <name>Leading</name>
                <valuemin>-100</valuemin>
                <valuemax>100</valuemax>
                <value>0</value>
              </parameter>
              <parameter>
                <parameterid>aspect</parameterid>
                <name>Aspect</name>
                <valuemin>0</valuemin>
                <valuemax>4</valuemax>
                <value>1</value>
              </parameter>
              <parameter>
                <parameterid>linewidth</parameterid>
                <name>Line Width</name>
                <valuemin>0</valuemin>
                <valuemax>200</valuemax>
                <value>2</value>
              </parameter>
              <parameter>
                <parameterid>linesoft</parameterid>
                <name>Line Softness</name>
                <valuemin>0</valuemin>
                <valuemax>100</valuemax>
                <value>5</value>
              </parameter>
              <parameter>
                <parameterid>textopacity</parameterid>
                <name>Text Opacity</name>
                <valuemin>0</valuemin>
                <valuemax>100</valuemax>
                <value>100</value>
              </parameter>
              <parameter>
                <parameterid>center</parameterid>
                <name>Center</name>
                <value>
                  <horiz>0</horiz>
                  <vert>0.4703703703703703</vert>
                </value>
              </parameter>
              <parameter>
                <parameterid>textcolor</parameterid>
                <name>Text Color</name>
                <value>
                  <alpha>255</alpha>
                  <red>255</red>
                  <green>255</green>
                  <blue>255</blue>
                </value>
              </parameter>
              <parameter>
                <parameterid>supertext</parameterid>
                <name>Text Graphic</name>
              </parameter>
              <parameter>
                <parameterid>linecolor</parameterid>
                <name>Line Color</name>
                <value>
                  <alpha>255</alpha>
                  <red>0</red>
                  <green>0</green>
                  <blue>0</blue>
                </value>
              </parameter>
              <parameter>
                <parameterid>superline</parameterid>
                <name>Line Graphic</name>
              </parameter>
              <parameter>
                <parameterid>part2</parameterid>
                <name>Background Settings</name>
              </parameter>
              <parameter>
                <parameterid>xscale</parameterid>
                <name>Horizontal Size</name>
                <valuemin>0</valuemin>
                <valuemax>200</valuemax>
                <value>0</value>
              </parameter>
              <parameter>
                <parameterid>yscale</parameterid>
                <name>Vertical Size</name>
                <valuemin>0</valuemin>
                <valuemax>200</valuemax>
                <value>0</value>
              </parameter>
              <parameter>
                <parameterid>xoffset</parameterid>
                <name>Horizontal Offset</name>
                <valuemin>-100</valuemin>
                <valuemax>100</valuemax>
                <value>0</value>
              </parameter>
              <parameter>
                <parameterid>yoffset</parameterid>
                <name>Vertical Offset</name>
                <valuemin>-100</valuemin>
                <valuemax>100</valuemax>
                <value>0</value>
              </parameter>
              <parameter>
                <parameterid>backsoft</parameterid>
                <name>Back Soft</name>
                <valuemin>0</valuemin>
                <valuemax>100</valuemax>
                <value>0</value>
              </parameter>
              <parameter>
                <parameterid>backopacity</parameterid>
                <name>Back Opacity</name>
                <valuemin>0</valuemin>
                <valuemax>100</valuemax>
                <value>50</value>
              </parameter>
              <parameter>
                <parameterid>backcolor</parameterid>
                <name>Back Color</name>
                <value>
                  <alpha>255</alpha>
                  <red>255</red>
                  <green>255</green>
                  <blue>255</blue>
                </value>
              </parameter>
              <parameter>
                <parameterid>superback</parameterid>
                <name>Back Graphic</name>
              </parameter>
              <parameter>
                <parameterid>crop</parameterid>
                <name>Crop</name>
                <value>false</value>
              </parameter>
              <parameter>
                <parameterid>autokern</parameterid>
                <name>Auto Kerning</name>
                <value>true</value>
              </parameter>
            </effect>
            <sourcetrack>
              <mediatype>video</mediatype>
            </sourcetrack>
          </generatoritem>
          <generatoritem id="자막5">
            <name>소망이는 그 표정을 바라보며 조심스럽게 감정을 읽기 시작했어요.</name>
            <duration>4.4</duration>
            <rate>
              <timebase>30</timebase>
              <ntsc>false</ntsc>
            </rate>
            <start>423</start>
            <end>555</end>
            <in>423</in>
            <out>555</out>
            <enabled>true</enabled>
            <anamorphic>false</anamorphic>
            <alphatype>black</alphatype>
            <masterclipid>자막5</masterclipid>
            <effect>
              <name>Outline Text</name>
              <effectid>Outline Text</effectid>
              <effectcategory>Text</effectcategory>
              <effecttype>generator</effecttype>
              <mediatype>video</mediatype>
              <parameter>
                <parameterid>part1</parameterid>
                <name>Text Settings</name>
                <value/>
              </parameter>
              <parameter>
                <parameterid>str</parameterid>
                <name>Text</name>
                <value>소망이는 그 표정을 바라보며 조심스럽게 감정을 읽기 시작했어요.</value>
              </parameter>
              <parameter>
                <parameterid>font</parameterid>
                <name>Font</name>
                <value>AppleSDGothicNeo-Regular</value>
              </parameter>
              <parameter>
                <parameterid>style</parameterid>
                <name>Style</name>
                <valuemin>1</valuemin>
                <valuemax>1</valuemax>
                <valuelist>
                  <valueentry>
                    <name>Regular</name>
                    <value>1</value>
                  </valueentry>
                </valuelist>
                <value>1</value>
              </parameter>
              <parameter>
                <parameterid>align</parameterid>
                <name>Alignment</name>
                <valuemin>1</valuemin>
                <valuemax>3</valuemax>
                <valuelist>
                  <valueentry>
                    <name>Left</name>
                    <value>1</value>
                  </valueentry>
                  <valueentry>
                    <name>Center</name>
                    <value>2</value>
                  </valueentry>
                  <valueentry>
                    <name>Right</name>
                    <value>3</value>
                  </valueentry>
                </valuelist>
                <value>2</value>
              </parameter>
              <parameter>
                <parameterid>size</parameterid>
                <name>Size</name>
                <valuemin>0</valuemin>
                <valuemax>200</valuemax>
                <value>24</value>
              </parameter>
              <parameter>
                <parameterid>track</parameterid>
                <name>Tracking</name>
                <valuemin>0</valuemin>
                <valuemax>100</valuemax>
                <value>1</value>
              </parameter>
              <parameter>
                <parameterid>lead</parameterid>
                <name>Leading</name>
                <valuemin>-100</valuemin>
                <valuemax>100</valuemax>
                <value>0</value>
              </parameter>
              <parameter>
                <parameterid>aspect</parameterid>
                <name>Aspect</name>
                <valuemin>0</valuemin>
                <valuemax>4</valuemax>
                <value>1</value>
              </parameter>
              <parameter>
                <parameterid>linewidth</parameterid>
                <name>Line Width</name>
                <valuemin>0</valuemin>
                <valuemax>200</valuemax>
                <value>2</value>
              </parameter>
              <parameter>
                <parameterid>linesoft</parameterid>
                <name>Line Softness</name>
                <valuemin>0</valuemin>
                <valuemax>100</valuemax>
                <value>5</value>
              </parameter>
              <parameter>
                <parameterid>textopacity</parameterid>
                <name>Text Opacity</name>
                <valuemin>0</valuemin>
                <valuemax>100</valuemax>
                <value>100</value>
              </parameter>
              <parameter>
                <parameterid>center</parameterid>
                <name>Center</name>
                <value>
                  <horiz>0</horiz>
                  <vert>0.4703703703703703</vert>
                </value>
              </parameter>
              <parameter>
                <parameterid>textcolor</parameterid>
                <name>Text Color</name>
                <value>
                  <alpha>255</alpha>
                  <red>255</red>
                  <green>255</green>
                  <blue>255</blue>
                </value>
              </parameter>
              <parameter>
                <parameterid>supertext</parameterid>
                <name>Text Graphic</name>
              </parameter>
              <parameter>
                <parameterid>linecolor</parameterid>
                <name>Line Color</name>
                <value>
                  <alpha>255</alpha>
                  <red>0</red>
                  <green>0</green>
                  <blue>0</blue>
                </value>
              </parameter>
              <parameter>
                <parameterid>superline</parameterid>
                <name>Line Graphic</name>
              </parameter>
              <parameter>
                <parameterid>part2</parameterid>
                <name>Background Settings</name>
              </parameter>
              <parameter>
                <parameterid>xscale</parameterid>
                <name>Horizontal Size</name>
                <valuemin>0</valuemin>
                <valuemax>200</valuemax>
                <value>0</value>
              </parameter>
              <parameter>
                <parameterid>yscale</parameterid>
                <name>Vertical Size</name>
                <valuemin>0</valuemin>
                <valuemax>200</valuemax>
                <value>0</value>
              </parameter>
              <parameter>
                <parameterid>xoffset</parameterid>
                <name>Horizontal Offset</name>
                <valuemin>-100</valuemin>
                <valuemax>100</valuemax>
                <value>0</value>
              </parameter>
              <parameter>
                <parameterid>yoffset</parameterid>
                <name>Vertical Offset</name>
                <valuemin>-100</valuemin>
                <valuemax>100</valuemax>
                <value>0</value>
              </parameter>
              <parameter>
                <parameterid>backsoft</parameterid>
                <name>Back Soft</name>
                <valuemin>0</valuemin>
                <valuemax>100</valuemax>
                <value>0</value>
              </parameter>
              <parameter>
                <parameterid>backopacity</parameterid>
                <name>Back Opacity</name>
                <valuemin>0</valuemin>
                <valuemax>100</valuemax>
                <value>50</value>
              </parameter>
              <parameter>
                <parameterid>backcolor</parameterid>
                <name>Back Color</name>
                <value>
                  <alpha>255</alpha>
                  <red>255</red>
                  <green>255</green>
                  <blue>255</blue>
                </value>
              </parameter>
              <parameter>
                <parameterid>superback</parameterid>
                <name>Back Graphic</name>
              </parameter>
              <parameter>
                <parameterid>crop</parameterid>
                <name>Crop</name>
                <value>false</value>
              </parameter>
              <parameter>
                <parameterid>autokern</parameterid>
                <name>Auto Kerning</name>
                <value>true</value>
              </parameter>
            </effect>
            <sourcetrack>
              <mediatype>video</mediatype>
            </sourcetrack>
          </generatoritem>
          <generatoritem id="자막6">
            <name>그것은 아이가 평소의 경험을 통해 자연스럽게 익힌 관계의 언어였습니다.</name>
            <duration>7.32</duration>
            <rate>
              <timebase>30</timebase>
              <ntsc>false</ntsc>
            </rate>
            <start>555</start>
            <end>775</end>
            <in>555</in>
            <out>775</out>
            <enabled>true</enabled>
            <anamorphic>false</anamorphic>
            <alphatype>black</alphatype>
            <masterclipid>자막6</masterclipid>
            <effect>
              <name>Outline Text</name>
              <effectid>Outline Text</effectid>
              <effectcategory>Text</effectcategory>
              <effecttype>generator</effecttype>
              <mediatype>video</mediatype>
              <parameter>
                <parameterid>part1</parameterid>
                <name>Text Settings</name>
                <value/>
              </parameter>
              <parameter>
                <parameterid>str</parameterid>
                <name>Text</name>
                <value>그것은 아이가 평소의 경험을 통해 자연스럽게 익힌 관계의 언어였습니다.</value>
              </parameter>
              <parameter>
                <parameterid>font</parameterid>
                <name>Font</name>
                <value>AppleSDGothicNeo-Regular</value>
              </parameter>
              <parameter>
                <parameterid>style</parameterid>
                <name>Style</name>
                <valuemin>1</valuemin>
                <valuemax>1</valuemax>
                <valuelist>
                  <valueentry>
                    <name>Regular</name>
                    <value>1</value>
                  </valueentry>
                </valuelist>
                <value>1</value>
              </parameter>
              <parameter>
                <parameterid>align</parameterid>
                <name>Alignment</name>
                <valuemin>1</valuemin>
                <valuemax>3</valuemax>
                <valuelist>
                  <valueentry>
                    <name>Left</name>
                    <value>1</value>
                  </valueentry>
                  <valueentry>
                    <name>Center</name>
                    <value>2</value>
                  </valueentry>
                  <valueentry>
                    <name>Right</name>
                    <value>3</value>
                  </valueentry>
                </valuelist>
                <value>2</value>
              </parameter>
              <parameter>
                <parameterid>size</parameterid>
                <name>Size</name>
                <valuemin>0</valuemin>
                <valuemax>200</valuemax>
                <value>24</value>
              </parameter>
              <parameter>
                <parameterid>track</parameterid>
                <name>Tracking</name>
                <valuemin>0</valuemin>
                <valuemax>100</valuemax>
                <value>1</value>
              </parameter>
              <parameter>
                <parameterid>lead</parameterid>
                <name>Leading</name>
                <valuemin>-100</valuemin>
                <valuemax>100</valuemax>
                <value>0</value>
              </parameter>
              <parameter>
                <parameterid>aspect</parameterid>
                <name>Aspect</name>
                <valuemin>0</valuemin>
                <valuemax>4</valuemax>
                <value>1</value>
              </parameter>
              <parameter>
                <parameterid>linewidth</parameterid>
                <name>Line Width</name>
                <valuemin>0</valuemin>
                <valuemax>200</valuemax>
                <value>2</value>
              </parameter>
              <parameter>
                <parameterid>linesoft</parameterid>
                <name>Line Softness</name>
                <valuemin>0</valuemin>
                <valuemax>100</valuemax>
                <value>5</value>
              </parameter>
              <parameter>
                <parameterid>textopacity</parameterid>
                <name>Text Opacity</name>
                <valuemin>0</valuemin>
                <valuemax>100</valuemax>
                <value>100</value>
              </parameter>
              <parameter>
                <parameterid>center</parameterid>
                <name>Center</name>
                <value>
                  <horiz>0</horiz>
                  <vert>0.4703703703703703</vert>
                </value>
              </parameter>
              <parameter>
                <parameterid>textcolor</parameterid>
                <name>Text Color</name>
                <value>
                  <alpha>255</alpha>
                  <red>255</red>
                  <green>255</green>
                  <blue>255</blue>
                </value>
              </parameter>
              <parameter>
                <parameterid>supertext</parameterid>
                <name>Text Graphic</name>
              </parameter>
              <parameter>
                <parameterid>linecolor</parameterid>
                <name>Line Color</name>
                <value>
                  <alpha>255</alpha>
                  <red>0</red>
                  <green>0</green>
                  <blue>0</blue>
                </value>
              </parameter>
              <parameter>
                <parameterid>superline</parameterid>
                <name>Line Graphic</name>
              </parameter>
              <parameter>
                <parameterid>part2</parameterid>
                <name>Background Settings</name>
              </parameter>
              <parameter>
                <parameterid>xscale</parameterid>
                <name>Horizontal Size</name>
                <valuemin>0</valuemin>
                <valuemax>200</valuemax>
                <value>0</value>
              </parameter>
              <parameter>
                <parameterid>yscale</parameterid>
                <name>Vertical Size</name>
                <valuemin>0</valuemin>
                <valuemax>200</valuemax>
                <value>0</value>
              </parameter>
              <parameter>
                <parameterid>xoffset</parameterid>
                <name>Horizontal Offset</name>
                <valuemin>-100</valuemin>
                <valuemax>100</valuemax>
                <value>0</value>
              </parameter>
              <parameter>
                <parameterid>yoffset</parameterid>
                <name>Vertical Offset</name>
                <valuemin>-100</valuemin>
                <valuemax>100</valuemax>
                <value>0</value>
              </parameter>
              <parameter>
                <parameterid>backsoft</parameterid>
                <name>Back Soft</name>
                <valuemin>0</valuemin>
                <valuemax>100</valuemax>
                <value>0</value>
              </parameter>
              <parameter>
                <parameterid>backopacity</parameterid>
                <name>Back Opacity</name>
                <valuemin>0</valuemin>
                <valuemax>100</valuemax>
                <value>50</value>
              </parameter>
              <parameter>
                <parameterid>backcolor</parameterid>
                <name>Back Color</name>
                <value>
                  <alpha>255</alpha>
                  <red>255</red>
                  <green>255</green>
                  <blue>255</blue>
                </value>
              </parameter>
              <parameter>
                <parameterid>superback</parameterid>
                <name>Back Graphic</name>
              </parameter>
              <parameter>
                <parameterid>crop</parameterid>
                <name>Crop</name>
                <value>false</value>
              </parameter>
              <parameter>
                <parameterid>autokern</parameterid>
                <name>Auto Kerning</name>
                <value>true</value>
              </parameter>
            </effect>
            <sourcetrack>
              <mediatype>video</mediatype>
            </sourcetrack>
          </generatoritem>
          <generatoritem id="자막7">
            <name>안녕하세요. 육아를 깊이 탐구하고 나만의 육아 방향을 찾아간 애의 로맘입니다.</name>
            <duration>4.359999999999999</duration>
            <rate>
              <timebase>30</timebase>
              <ntsc>false</ntsc>
            </rate>
            <start>775</start>
            <end>905</end>
            <in>775</in>
            <out>905</out>
            <enabled>true</enabled>
            <anamorphic>false</anamorphic>
            <alphatype>black</alphatype>
            <masterclipid>자막7</masterclipid>
            <effect>
              <name>Outline Text</name>
              <effectid>Outline Text</effectid>
              <effectcategory>Text</effectcategory>
              <effecttype>generator</effecttype>
              <mediatype>video</mediatype>
              <parameter>
                <parameterid>part1</parameterid>
                <name>Text Settings</name>
                <value/>
              </parameter>
              <parameter>
                <parameterid>str</parameterid>
                <name>Text</name>
                <value>안녕하세요. 육아를 깊이 탐구하고 나만의 육아 방향을 찾아간 애의 로맘입니다.</value>
              </parameter>
              <parameter>
                <parameterid>font</parameterid>
                <name>Font</name>
                <value>AppleSDGothicNeo-Regular</value>
              </parameter>
              <parameter>
                <parameterid>style</parameterid>
                <name>Style</name>
                <valuemin>1</valuemin>
                <valuemax>1</valuemax>
                <valuelist>
                  <valueentry>
                    <name>Regular</name>
                    <value>1</value>
                  </valueentry>
                </valuelist>
                <value>1</value>
              </parameter>
              <parameter>
                <parameterid>align</parameterid>
                <name>Alignment</name>
                <valuemin>1</valuemin>
                <valuemax>3</valuemax>
                <valuelist>
                  <valueentry>
                    <name>Left</name>
                    <value>1</value>
                  </valueentry>
                  <valueentry>
                    <name>Center</name>
                    <value>2</value>
                  </valueentry>
                  <valueentry>
                    <name>Right</name>
                    <value>3</value>
                  </valueentry>
                </valuelist>
                <value>2</value>
              </parameter>
              <parameter>
                <parameterid>size</parameterid>
                <name>Size</name>
                <valuemin>0</valuemin>
                <valuemax>200</valuemax>
                <value>24</value>
              </parameter>
              <parameter>
                <parameterid>track</parameterid>
                <name>Tracking</name>
                <valuemin>0</valuemin>
                <valuemax>100</valuemax>
                <value>1</value>
              </parameter>
              <parameter>
                <parameterid>lead</parameterid>
                <name>Leading</name>
                <valuemin>-100</valuemin>
                <valuemax>100</valuemax>
                <value>0</value>
              </parameter>
              <parameter>
                <parameterid>aspect</parameterid>
                <name>Aspect</name>
                <valuemin>0</valuemin>
                <valuemax>4</valuemax>
                <value>1</value>
              </parameter>
              <parameter>
                <parameterid>linewidth</parameterid>
                <name>Line Width</name>
                <valuemin>0</valuemin>
                <valuemax>200</valuemax>
                <value>2</value>
              </parameter>
              <parameter>
                <parameterid>linesoft</parameterid>
                <name>Line Softness</name>
                <valuemin>0</valuemin>
                <valuemax>100</valuemax>
                <value>5</value>
              </parameter>
              <parameter>
                <parameterid>textopacity</parameterid>
                <name>Text Opacity</name>
                <valuemin>0</valuemin>
                <valuemax>100</valuemax>
                <value>100</value>
              </parameter>
              <parameter>
                <parameterid>center</parameterid>
                <name>Center</name>
                <value>
                  <horiz>0</horiz>
                  <vert>0.4703703703703703</vert>
                </value>
              </parameter>
              <parameter>
                <parameterid>textcolor</parameterid>
                <name>Text Color</name>
                <value>
                  <alpha>255</alpha>
                  <red>255</red>
                  <green>255</green>
                  <blue>255</blue>
                </value>
              </parameter>
              <parameter>
                <parameterid>supertext</parameterid>
                <name>Text Graphic</name>
              </parameter>
              <parameter>
                <parameterid>linecolor</parameterid>
                <name>Line Color</name>
                <value>
                  <alpha>255</alpha>
                  <red>0</red>
                  <green>0</green>
                  <blue>0</blue>
                </value>
              </parameter>
              <parameter>
                <parameterid>superline</parameterid>
                <name>Line Graphic</name>
              </parameter>
              <parameter>
                <parameterid>part2</parameterid>
                <name>Background Settings</name>
              </parameter>
              <parameter>
                <parameterid>xscale</parameterid>
                <name>Horizontal Size</name>
                <valuemin>0</valuemin>
                <valuemax>200</valuemax>
                <value>0</value>
              </parameter>
              <parameter>
                <parameterid>yscale</parameterid>
                <name>Vertical Size</name>
                <valuemin>0</valuemin>
                <valuemax>200</valuemax>
                <value>0</value>
              </parameter>
              <parameter>
                <parameterid>xoffset</parameterid>
                <name>Horizontal Offset</name>
                <valuemin>-100</valuemin>
                <valuemax>100</valuemax>
                <value>0</value>
              </parameter>
              <parameter>
                <parameterid>yoffset</parameterid>
                <name>Vertical Offset</name>
                <valuemin>-100</valuemin>
                <valuemax>100</valuemax>
                <value>0</value>
              </parameter>
              <parameter>
                <parameterid>backsoft</parameterid>
                <name>Back Soft</name>
                <valuemin>0</valuemin>
                <valuemax>100</valuemax>
                <value>0</value>
              </parameter>
              <parameter>
                <parameterid>backopacity</parameterid>
                <name>Back Opacity</name>
                <valuemin>0</valuemin>
                <valuemax>100</valuemax>
                <value>50</value>
              </parameter>
              <parameter>
                <parameterid>backcolor</parameterid>
                <name>Back Color</name>
                <value>
                  <alpha>255</alpha>
                  <red>255</red>
                  <green>255</green>
                  <blue>255</blue>
                </value>
              </parameter>
              <parameter>
                <parameterid>superback</parameterid>
                <name>Back Graphic</name>
              </parameter>
              <parameter>
                <parameterid>crop</parameterid>
                <name>Crop</name>
                <value>false</value>
              </parameter>
              <parameter>
                <parameterid>autokern</parameterid>
                <name>Auto Kerning</name>
                <value>true</value>
              </parameter>
            </effect>
            <sourcetrack>
              <mediatype>video</mediatype>
            </sourcetrack>
          </generatoritem>
          <generatoritem id="자막8">
            <name>그 감정이 어떻게 반응하면 좋을지를 이미 자기식으로 해석하고 있었거든요.</name>
            <duration>5.140000000000001</duration>
            <rate>
              <timebase>30</timebase>
              <ntsc>false</ntsc>
            </rate>
            <start>905</start>
            <end>1060</end>
            <in>905</in>
            <out>1060</out>
            <enabled>true</enabled>
            <anamorphic>false</anamorphic>
            <alphatype>black</alphatype>
            <masterclipid>자막8</masterclipid>
            <effect>
              <name>Outline Text</name>
              <effectid>Outline Text</effectid>
              <effectcategory>Text</effectcategory>
              <effecttype>generator</effecttype>
              <mediatype>video</mediatype>
              <parameter>
                <parameterid>part1</parameterid>
                <name>Text Settings</name>
                <value/>
              </parameter>
              <parameter>
                <parameterid>str</parameterid>
                <name>Text</name>
                <value>그 감정이 어떻게 반응하면 좋을지를 이미 자기식으로 해석하고 있었거든요.</value>
              </parameter>
              <parameter>
                <parameterid>font</parameterid>
                <name>Font</name>
                <value>AppleSDGothicNeo-Regular</value>
              </parameter>
              <parameter>
                <parameterid>style</parameterid>
                <name>Style</name>
                <valuemin>1</valuemin>
                <valuemax>1</valuemax>
                <valuelist>
                  <valueentry>
                    <name>Regular</name>
                    <value>1</value>
                  </valueentry>
                </valuelist>
                <value>1</value>
              </parameter>
              <parameter>
                <parameterid>align</parameterid>
                <name>Alignment</name>
                <valuemin>1</valuemin>
                <valuemax>3</valuemax>
                <valuelist>
                  <valueentry>
                    <name>Left</name>
                    <value>1</value>
                  </valueentry>
                  <valueentry>
                    <name>Center</name>
                    <value>2</value>
                  </valueentry>
                  <valueentry>
                    <name>Right</name>
                    <value>3</value>
                  </valueentry>
                </valuelist>
                <value>2</value>
              </parameter>
              <parameter>
                <parameterid>size</parameterid>
                <name>Size</name>
                <valuemin>0</valuemin>
                <valuemax>200</valuemax>
                <value>24</value>
              </parameter>
              <parameter>
                <parameterid>track</parameterid>
                <name>Tracking</name>
                <valuemin>0</valuemin>
                <valuemax>100</valuemax>
                <value>1</value>
              </parameter>
              <parameter>
                <parameterid>lead</parameterid>
                <name>Leading</name>
                <valuemin>-100</valuemin>
                <valuemax>100</valuemax>
                <value>0</value>
              </parameter>
              <parameter>
                <parameterid>aspect</parameterid>
                <name>Aspect</name>
                <valuemin>0</valuemin>
                <valuemax>4</valuemax>
                <value>1</value>
              </parameter>
              <parameter>
                <parameterid>linewidth</parameterid>
                <name>Line Width</name>
                <valuemin>0</valuemin>
                <valuemax>200</valuemax>
                <value>2</value>
              </parameter>
              <parameter>
                <parameterid>linesoft</parameterid>
                <name>Line Softness</name>
                <valuemin>0</valuemin>
                <valuemax>100</valuemax>
                <value>5</value>
              </parameter>
              <parameter>
                <parameterid>textopacity</parameterid>
                <name>Text Opacity</name>
                <valuemin>0</valuemin>
                <valuemax>100</valuemax>
                <value>100</value>
              </parameter>
              <parameter>
                <parameterid>center</parameterid>
                <name>Center</name>
                <value>
                  <horiz>0</horiz>
                  <vert>0.4703703703703703</vert>
                </value>
              </parameter>
              <parameter>
                <parameterid>textcolor</parameterid>
                <name>Text Color</name>
                <value>
                  <alpha>255</alpha>
                  <red>255</red>
                  <green>255</green>
                  <blue>255</blue>
                </value>
              </parameter>
              <parameter>
                <parameterid>supertext</parameterid>
                <name>Text Graphic</name>
              </parameter>
              <parameter>
                <parameterid>linecolor</parameterid>
                <name>Line Color</name>
                <value>
                  <alpha>255</alpha>
                  <red>0</red>
                  <green>0</green>
                  <blue>0</blue>
                </value>
              </parameter>
              <parameter>
                <parameterid>superline</parameterid>
                <name>Line Graphic</name>
              </parameter>
              <parameter>
                <parameterid>part2</parameterid>
                <name>Background Settings</name>
              </parameter>
              <parameter>
                <parameterid>xscale</parameterid>
                <name>Horizontal Size</name>
                <valuemin>0</valuemin>
                <valuemax>200</valuemax>
                <value>0</value>
              </parameter>
              <parameter>
                <parameterid>yscale</parameterid>
                <name>Vertical Size</name>
                <valuemin>0</valuemin>
                <valuemax>200</valuemax>
                <value>0</value>
              </parameter>
              <parameter>
                <parameterid>xoffset</parameterid>
                <name>Horizontal Offset</name>
                <valuemin>-100</valuemin>
                <valuemax>100</valuemax>
                <value>0</value>
              </parameter>
              <parameter>
                <parameterid>yoffset</parameterid>
                <name>Vertical Offset</name>
                <valuemin>-100</valuemin>
                <valuemax>100</valuemax>
                <value>0</value>
              </parameter>
              <parameter>
                <parameterid>backsoft</parameterid>
                <name>Back Soft</name>
                <valuemin>0</valuemin>
                <valuemax>100</valuemax>
                <value>0</value>
              </parameter>
              <parameter>
                <parameterid>backopacity</parameterid>
                <name>Back Opacity</name>
                <valuemin>0</valuemin>
                <valuemax>100</valuemax>
                <value>50</value>
              </parameter>
              <parameter>
                <parameterid>backcolor</parameterid>
                <name>Back Color</name>
                <value>
                  <alpha>255</alpha>
                  <red>255</red>
                  <green>255</green>
                  <blue>255</blue>
                </value>
              </parameter>
              <parameter>
                <parameterid>superback</parameterid>
                <name>Back Graphic</name>
              </parameter>
              <parameter>
                <parameterid>crop</parameterid>
                <name>Crop</name>
                <value>false</value>
              </parameter>
              <parameter>
                <parameterid>autokern</parameterid>
                <name>Auto Kerning</name>
                <value>true</value>
              </parameter>
            </effect>
            <sourcetrack>
              <mediatype>video</mediatype>
            </sourcetrack>
          </generatoritem>
          <generatoritem id="자막9">
            <name>놀이터에서 또래 아이를 본 순간 놀고 싶은 절박한 마음은 더욱 간절해졌던 거죠.</name>
            <duration>5.600000000000001</duration>
            <rate>
              <timebase>30</timebase>
              <ntsc>false</ntsc>
            </rate>
            <start>1060</start>
            <end>1228</end>
            <in>1060</in>
            <out>1228</out>
            <enabled>true</enabled>
            <anamorphic>false</anamorphic>
            <alphatype>black</alphatype>
            <masterclipid>자막9</masterclipid>
            <effect>
              <name>Outline Text</name>
              <effectid>Outline Text</effectid>
              <effectcategory>Text</effectcategory>
              <effecttype>generator</effecttype>
              <mediatype>video</mediatype>
              <parameter>
                <parameterid>part1</parameterid>
                <name>Text Settings</name>
                <value/>
              </parameter>
              <parameter>
                <parameterid>str</parameterid>
                <name>Text</name>
                <value>놀이터에서 또래 아이를 본 순간 놀고 싶은 절박한 마음은 더욱 간절해졌던 거죠.</value>
              </parameter>
              <parameter>
                <parameterid>font</parameterid>
                <name>Font</name>
                <value>AppleSDGothicNeo-Regular</value>
              </parameter>
              <parameter>
                <parameterid>style</parameterid>
                <name>Style</name>
                <valuemin>1</valuemin>
                <valuemax>1</valuemax>
                <valuelist>
                  <valueentry>
                    <name>Regular</name>
                    <value>1</value>
                  </valueentry>
                </valuelist>
                <value>1</value>
              </parameter>
              <parameter>
                <parameterid>align</parameterid>
                <name>Alignment</name>
                <valuemin>1</valuemin>
                <valuemax>3</valuemax>
                <valuelist>
                  <valueentry>
                    <name>Left</name>
                    <value>1</value>
                  </valueentry>
                  <valueentry>
                    <name>Center</name>
                    <value>2</value>
                  </valueentry>
                  <valueentry>
                    <name>Right</name>
                    <value>3</value>
                  </valueentry>
                </valuelist>
                <value>2</value>
              </parameter>
              <parameter>
                <parameterid>size</parameterid>
                <name>Size</name>
                <valuemin>0</valuemin>
                <valuemax>200</valuemax>
                <value>24</value>
              </parameter>
              <parameter>
                <parameterid>track</parameterid>
                <name>Tracking</name>
                <valuemin>0</valuemin>
                <valuemax>100</valuemax>
                <value>1</value>
              </parameter>
              <parameter>
                <parameterid>lead</parameterid>
                <name>Leading</name>
                <valuemin>-100</valuemin>
                <valuemax>100</valuemax>
                <value>0</value>
              </parameter>
              <parameter>
                <parameterid>aspect</parameterid>
                <name>Aspect</name>
                <valuemin>0</valuemin>
                <valuemax>4</valuemax>
                <value>1</value>
              </parameter>
              <parameter>
                <parameterid>linewidth</parameterid>
                <name>Line Width</name>
                <valuemin>0</valuemin>
                <valuemax>200</valuemax>
                <value>2</value>
              </parameter>
              <parameter>
                <parameterid>linesoft</parameterid>
                <name>Line Softness</name>
                <valuemin>0</valuemin>
                <valuemax>100</valuemax>
                <value>5</value>
              </parameter>
              <parameter>
                <parameterid>textopacity</parameterid>
                <name>Text Opacity</name>
                <valuemin>0</valuemin>
                <valuemax>100</valuemax>
                <value>100</value>
              </parameter>
              <parameter>
                <parameterid>center</parameterid>
                <name>Center</name>
                <value>
                  <horiz>0</horiz>
                  <vert>0.4703703703703703</vert>
                </value>
              </parameter>
              <parameter>
                <parameterid>textcolor</parameterid>
                <name>Text Color</name>
                <value>
                  <alpha>255</alpha>
                  <red>255</red>
                  <green>255</green>
                  <blue>255</blue>
                </value>
              </parameter>
              <parameter>
                <parameterid>supertext</parameterid>
                <name>Text Graphic</name>
              </parameter>
              <parameter>
                <parameterid>linecolor</parameterid>
                <name>Line Color</name>
                <value>
                  <alpha>255</alpha>
                  <red>0</red>
                  <green>0</green>
                  <blue>0</blue>
                </value>
              </parameter>
              <parameter>
                <parameterid>superline</parameterid>
                <name>Line Graphic</name>
              </parameter>
              <parameter>
                <parameterid>part2</parameterid>
                <name>Background Settings</name>
              </parameter>
              <parameter>
                <parameterid>xscale</parameterid>
                <name>Horizontal Size</name>
                <valuemin>0</valuemin>
                <valuemax>200</valuemax>
                <value>0</value>
              </parameter>
              <parameter>
                <parameterid>yscale</parameterid>
                <name>Vertical Size</name>
                <valuemin>0</valuemin>
                <valuemax>200</valuemax>
                <value>0</value>
              </parameter>
              <parameter>
                <parameterid>xoffset</parameterid>
                <name>Horizontal Offset</name>
                <valuemin>-100</valuemin>
                <valuemax>100</valuemax>
                <value>0</value>
              </parameter>
              <parameter>
                <parameterid>yoffset</parameterid>
                <name>Vertical Offset</name>
                <valuemin>-100</valuemin>
                <valuemax>100</valuemax>
                <value>0</value>
              </parameter>
              <parameter>
                <parameterid>backsoft</parameterid>
                <name>Back Soft</name>
                <valuemin>0</valuemin>
                <valuemax>100</valuemax>
                <value>0</value>
              </parameter>
              <parameter>
                <parameterid>backopacity</parameterid>
                <name>Back Opacity</name>
                <valuemin>0</valuemin>
                <valuemax>100</valuemax>
                <value>50</value>
              </parameter>
              <parameter>
                <parameterid>backcolor</parameterid>
                <name>Back Color</name>
                <value>
                  <alpha>255</alpha>
                  <red>255</red>
                  <green>255</green>
                  <blue>255</blue>
                </value>
              </parameter>
              <parameter>
                <parameterid>superback</parameterid>
                <name>Back Graphic</name>
              </parameter>
              <parameter>
                <parameterid>crop</parameterid>
                <name>Crop</name>
                <value>false</value>
              </parameter>
              <parameter>
                <parameterid>autokern</parameterid>
                <name>Auto Kerning</name>
                <value>true</value>
              </parameter>
            </effect>
            <sourcetrack>
              <mediatype>video</mediatype>
            </sourcetrack>
          </generatoritem>
          <generatoritem id="자막10">
            <name>박사님은 말없이 얼굴 표정과 선친만으로 어떤 상황을 표현하셨고</name>
            <duration>4.979999999999997</duration>
            <rate>
              <timebase>30</timebase>
              <ntsc>false</ntsc>
            </rate>
            <start>1228</start>
            <end>1377</end>
            <in>1228</in>
            <out>1377</out>
            <enabled>true</enabled>
            <anamorphic>false</anamorphic>
            <alphatype>black</alphatype>
            <masterclipid>자막10</masterclipid>
            <effect>
              <name>Outline Text</name>
              <effectid>Outline Text</effectid>
              <effectcategory>Text</effectcategory>
              <effecttype>generator</effecttype>
              <mediatype>video</mediatype>
              <parameter>
                <parameterid>part1</parameterid>
                <name>Text Settings</name>
                <value/>
              </parameter>
              <parameter>
                <parameterid>str</parameterid>
                <name>Text</name>
                <value>박사님은 말없이 얼굴 표정과 선친만으로 어떤 상황을 표현하셨고</value>
              </parameter>
              <parameter>
                <parameterid>font</parameterid>
                <name>Font</name>
                <value>AppleSDGothicNeo-Regular</value>
              </parameter>
              <parameter>
                <parameterid>style</parameterid>
                <name>Style</name>
                <valuemin>1</valuemin>
                <valuemax>1</valuemax>
                <valuelist>
                  <valueentry>
                    <name>Regular</name>
                    <value>1</value>
                  </valueentry>
                </valuelist>
                <value>1</value>
              </parameter>
              <parameter>
                <parameterid>align</parameterid>
                <name>Alignment</name>
                <valuemin>1</valuemin>
                <valuemax>3</valuemax>
                <valuelist>
                  <valueentry>
                    <name>Left</name>
                    <value>1</value>
                  </valueentry>
                  <valueentry>
                    <name>Center</name>
                    <value>2</value>
                  </valueentry>
                  <valueentry>
                    <name>Right</name>
                    <value>3</value>
                  </valueentry>
                </valuelist>
                <value>2</value>
              </parameter>
              <parameter>
                <parameterid>size</parameterid>
                <name>Size</name>
                <valuemin>0</valuemin>
                <valuemax>200</valuemax>
                <value>24</value>
              </parameter>
              <parameter>
                <parameterid>track</parameterid>
                <name>Tracking</name>
                <valuemin>0</valuemin>
                <valuemax>100</valuemax>
                <value>1</value>
              </parameter>
              <parameter>
                <parameterid>lead</parameterid>
                <name>Leading</name>
                <valuemin>-100</valuemin>
                <valuemax>100</valuemax>
                <value>0</value>
              </parameter>
              <parameter>
                <parameterid>aspect</parameterid>
                <name>Aspect</name>
                <valuemin>0</valuemin>
                <valuemax>4</valuemax>
                <value>1</value>
              </parameter>
              <parameter>
                <parameterid>linewidth</parameterid>
                <name>Line Width</name>
                <valuemin>0</valuemin>
                <valuemax>200</valuemax>
                <value>2</value>
              </parameter>
              <parameter>
                <parameterid>linesoft</parameterid>
                <name>Line Softness</name>
                <valuemin>0</valuemin>
                <valuemax>100</valuemax>
                <value>5</value>
              </parameter>
              <parameter>
                <parameterid>textopacity</parameterid>
                <name>Text Opacity</name>
                <valuemin>0</valuemin>
                <valuemax>100</valuemax>
                <value>100</value>
              </parameter>
              <parameter>
                <parameterid>center</parameterid>
                <name>Center</name>
                <value>
                  <horiz>0</horiz>
                  <vert>0.4703703703703703</vert>
                </value>
              </parameter>
              <parameter>
                <parameterid>textcolor</parameterid>
                <name>Text Color</name>
                <value>
                  <alpha>255</alpha>
                  <red>255</red>
                  <green>255</green>
                  <blue>255</blue>
                </value>
              </parameter>
              <parameter>
                <parameterid>supertext</parameterid>
                <name>Text Graphic</name>
              </parameter>
              <parameter>
                <parameterid>linecolor</parameterid>
                <name>Line Color</name>
                <value>
                  <alpha>255</alpha>
                  <red>0</red>
                  <green>0</green>
                  <blue>0</blue>
                </value>
              </parameter>
              <parameter>
                <parameterid>superline</parameterid>
                <name>Line Graphic</name>
              </parameter>
              <parameter>
                <parameterid>part2</parameterid>
                <name>Background Settings</name>
              </parameter>
              <parameter>
                <parameterid>xscale</parameterid>
                <name>Horizontal Size</name>
                <valuemin>0</valuemin>
                <valuemax>200</valuemax>
                <value>0</value>
              </parameter>
              <parameter>
                <parameterid>yscale</parameterid>
                <name>Vertical Size</name>
                <valuemin>0</valuemin>
                <valuemax>200</valuemax>
                <value>0</value>
              </parameter>
              <parameter>
                <parameterid>xoffset</parameterid>
                <name>Horizontal Offset</name>
                <valuemin>-100</valuemin>
                <valuemax>100</valuemax>
                <value>0</value>
              </parameter>
              <parameter>
                <parameterid>yoffset</parameterid>
                <name>Vertical Offset</name>
                <valuemin>-100</valuemin>
                <valuemax>100</valuemax>
                <value>0</value>
              </parameter>
              <parameter>
                <parameterid>backsoft</parameterid>
                <name>Back Soft</name>
                <valuemin>0</valuemin>
                <valuemax>100</valuemax>
                <value>0</value>
              </parameter>
              <parameter>
                <parameterid>backopacity</parameterid>
                <name>Back Opacity</name>
                <valuemin>0</valuemin>
                <valuemax>100</valuemax>
                <value>50</value>
              </parameter>
              <parameter>
                <parameterid>backcolor</parameterid>
                <name>Back Color</name>
                <value>
                  <alpha>255</alpha>
                  <red>255</red>
                  <green>255</green>
                  <blue>255</blue>
                </value>
              </parameter>
              <parameter>
                <parameterid>superback</parameterid>
                <name>Back Graphic</name>
              </parameter>
              <parameter>
                <parameterid>crop</parameterid>
                <name>Crop</name>
                <value>false</value>
              </parameter>
              <parameter>
                <parameterid>autokern</parameterid>
                <name>Auto Kerning</name>
                <value>true</value>
              </parameter>
            </effect>
            <sourcetrack>
              <mediatype>video</mediatype>
            </sourcetrack>
          </generatoritem>
          <generatoritem id="자막11">
            <name>저는 그 순간 아이의 반응이 무척 인상 깊었습니다.</name>
            <duration>3.460000000000001</duration>
            <rate>
              <timebase>30</timebase>
              <ntsc>false</ntsc>
            </rate>
            <start>1377</start>
            <end>1481</end>
            <in>1377</in>
            <out>1481</out>
            <enabled>true</enabled>
            <anamorphic>false</anamorphic>
            <alphatype>black</alphatype>
            <masterclipid>자막11</masterclipid>
            <effect>
              <name>Outline Text</name>
              <effectid>Outline Text</effectid>
              <effectcategory>Text</effectcategory>
              <effecttype>generator</effecttype>
              <mediatype>video</mediatype>
              <parameter>
                <parameterid>part1</parameterid>
                <name>Text Settings</name>
                <value/>
              </parameter>
              <parameter>
                <parameterid>str</parameterid>
                <name>Text</name>
                <value>저는 그 순간 아이의 반응이 무척 인상 깊었습니다.</value>
              </parameter>
              <parameter>
                <parameterid>font</parameterid>
                <name>Font</name>
                <value>AppleSDGothicNeo-Regular</value>
              </parameter>
              <parameter>
                <parameterid>style</parameterid>
                <name>Style</name>
                <valuemin>1</valuemin>
                <valuemax>1</valuemax>
                <valuelist>
                  <valueentry>
                    <name>Regular</name>
                    <value>1</value>
                  </valueentry>
                </valuelist>
                <value>1</value>
              </parameter>
              <parameter>
                <parameterid>align</parameterid>
                <name>Alignment</name>
                <valuemin>1</valuemin>
                <valuemax>3</valuemax>
                <valuelist>
                  <valueentry>
                    <name>Left</name>
                    <value>1</value>
                  </valueentry>
                  <valueentry>
                    <name>Center</name>
                    <value>2</value>
                  </valueentry>
                  <valueentry>
                    <name>Right</name>
                    <value>3</value>
                  </valueentry>
                </valuelist>
                <value>2</value>
              </parameter>
              <parameter>
                <parameterid>size</parameterid>
                <name>Size</name>
                <valuemin>0</valuemin>
                <valuemax>200</valuemax>
                <value>24</value>
              </parameter>
              <parameter>
                <parameterid>track</parameterid>
                <name>Tracking</name>
                <valuemin>0</valuemin>
                <valuemax>100</valuemax>
                <value>1</value>
              </parameter>
              <parameter>
                <parameterid>lead</parameterid>
                <name>Leading</name>
                <valuemin>-100</valuemin>
                <valuemax>100</valuemax>
                <value>0</value>
              </parameter>
              <parameter>
                <parameterid>aspect</parameterid>
                <name>Aspect</name>
                <valuemin>0</valuemin>
                <valuemax>4</valuemax>
                <value>1</value>
              </parameter>
              <parameter>
                <parameterid>linewidth</parameterid>
                <name>Line Width</name>
                <valuemin>0</valuemin>
                <valuemax>200</valuemax>
                <value>2</value>
              </parameter>
              <parameter>
                <parameterid>linesoft</parameterid>
                <name>Line Softness</name>
                <valuemin>0</valuemin>
                <valuemax>100</valuemax>
                <value>5</value>
              </parameter>
              <parameter>
                <parameterid>textopacity</parameterid>
                <name>Text Opacity</name>
                <valuemin>0</valuemin>
                <valuemax>100</valuemax>
                <value>100</value>
              </parameter>
              <parameter>
                <parameterid>center</parameterid>
                <name>Center</name>
                <value>
                  <horiz>0</horiz>
                  <vert>0.4703703703703703</vert>
                </value>
              </parameter>
              <parameter>
                <parameterid>textcolor</parameterid>
                <name>Text Color</name>
                <value>
                  <alpha>255</alpha>
                  <red>255</red>
                  <green>255</green>
                  <blue>255</blue>
                </value>
              </parameter>
              <parameter>
                <parameterid>supertext</parameterid>
                <name>Text Graphic</name>
              </parameter>
              <parameter>
                <parameterid>linecolor</parameterid>
                <name>Line Color</name>
                <value>
                  <alpha>255</alpha>
                  <red>0</red>
                  <green>0</green>
                  <blue>0</blue>
                </value>
              </parameter>
              <parameter>
                <parameterid>superline</parameterid>
                <name>Line Graphic</name>
              </parameter>
              <parameter>
                <parameterid>part2</parameterid>
                <name>Background Settings</name>
              </parameter>
              <parameter>
                <parameterid>xscale</parameterid>
                <name>Horizontal Size</name>
                <valuemin>0</valuemin>
                <valuemax>200</valuemax>
                <value>0</value>
              </parameter>
              <parameter>
                <parameterid>yscale</parameterid>
                <name>Vertical Size</name>
                <valuemin>0</valuemin>
                <valuemax>200</valuemax>
                <value>0</value>
              </parameter>
              <parameter>
                <parameterid>xoffset</parameterid>
                <name>Horizontal Offset</name>
                <valuemin>-100</valuemin>
                <valuemax>100</valuemax>
                <value>0</value>
              </parameter>
              <parameter>
                <parameterid>yoffset</parameterid>
                <name>Vertical Offset</name>
                <valuemin>-100</valuemin>
                <valuemax>100</valuemax>
                <value>0</value>
              </parameter>
              <parameter>
                <parameterid>backsoft</parameterid>
                <name>Back Soft</name>
                <valuemin>0</valuemin>
                <valuemax>100</valuemax>
                <value>0</value>
              </parameter>
              <parameter>
                <parameterid>backopacity</parameterid>
                <name>Back Opacity</name>
                <valuemin>0</valuemin>
                <valuemax>100</valuemax>
                <value>50</value>
              </parameter>
              <parameter>
                <parameterid>backcolor</parameterid>
                <name>Back Color</name>
                <value>
                  <alpha>255</alpha>
                  <red>255</red>
                  <green>255</green>
                  <blue>255</blue>
                </value>
              </parameter>
              <parameter>
                <parameterid>superback</parameterid>
                <name>Back Graphic</name>
              </parameter>
              <parameter>
                <parameterid>crop</parameterid>
                <name>Crop</name>
                <value>false</value>
              </parameter>
              <parameter>
                <parameterid>autokern</parameterid>
                <name>Auto Kerning</name>
                <value>true</value>
              </parameter>
            </effect>
            <sourcetrack>
              <mediatype>video</mediatype>
            </sourcetrack>
          </generatoritem>
        </track>
      </video>
    </media>
  </sequence>
</xmeml>
